<?xml version="1.0" encoding="UTF-8"?>
<!DOCTYPE svg PUBLIC "-//W3C//DTD SVG 1.1//EN"
  "http://www.w3.org/Graphics/SVG/1.1/DTD/svg11.dtd">
<svg xmlns:xlink="http://www.w3.org/1999/xlink" width="128pt" viewBox="0,0,128,128" xmlns="http://www.w3.org/2000/svg" version="1.1" height="128pt">
	<defs/>
	<g id="Layer 2">
		<path d="M0 0 L40 0 L128 88 L128 128 L0 0 Z" stroke-width="2" fill="#bb9e00" stroke="#bb9e00"/>
		<text fill="#000" transform="matrix(0.707468 0.706745 -0.706745 0.707468 22.3024 -5.30785)">
			<tspan y="11" font-size="11" font-family="'Futura-CondensedExtraBold'" x="36.0223">Work in progress</tspan>
		</text>
	</g>
	<g id="Layer 1">
		<path d="M8 8 L24 24 " stroke-width="2.5" stroke="#000"/>
		<path d="M120 120 L104 104 " stroke-width="2.5" stroke="#000"/>
		<path d="M40 40 L56 56 " stroke-width="2.5" stroke="#000"/>
		<path d="M88 88 L72 72 " stroke-width="2.5" stroke="#000"/>
		<path d="M8 0 L32 0 " stroke-width="2.5" stroke="#000"/>
		<path d="M128 120 L128 96 " stroke-width="2.5" stroke="#000"/>
		<path d="M48 8 " stroke-width="2.5" stroke="#000"/>
		<path d="M48 8 L64 24 " stroke-width="2.5" stroke="#000"/>
		<path d="M120 80 L104 64 " stroke-width="2.5" stroke="#000"/>
		<path d="M80 40 L88 48 " stroke-width="2.5" stroke="#000"/>
	</g>
	<g id="Layer 3">
		<path fill="#000" d="M41.4914 8 L35.5943 29.4703 L20 13.8198 C20 13.8198 28.754 17.8154 28.7964 18.7909C28.8388 19.7664 29.7517 20.6721 30.7281 20.6739C31.6576 20.6756 32.6827 19.701 32.6844 18.7246C32.6862 17.7482 31.7115 16.7701 30.7351 16.7683C30.2782 16.7675 32.2006 16.2827 32.2006 16.2827L33.1753 17.2609 L38.0643 13.3641 L36.115 11.4077 L32.2006 16.2827 C32.2006 16.2827 31.7115 16.7701 30.7351 16.7683C29.7587 16.7665 28.7806 17.7412 28.7788 18.7176C28.7771 19.694 20 13.8198 20 13.8198L41.4914 8 Z"/>
		<path fill="#000" d="M120 86.5297 L114.103 108 L98.5086 92.3495 C98.5086 92.3495 107.263 96.3451 107.305 97.3206C107.347 98.2961 108.26 99.2018 109.237 99.2036C110.166 99.2053 111.191 98.2307 111.193 97.2543C111.195 96.2779 110.22 95.2998 109.244 95.298C108.787 95.2972 110.709 94.8124 110.709 94.8124L111.684 95.7906 L116.573 91.8938 L114.624 89.9374 L110.709 94.8124 C110.709 94.8124 110.22 95.2998 109.244 95.298C108.267 95.2962 107.289 96.2709 107.287 97.2473C107.286 98.2237 98.5086 92.3495 98.5086 92.3495L120 86.5297 Z"/>
	</g>
</svg>
