<?xml version="1.0" encoding="utf-8"?>
<!-- Generator: Adobe Illustrator 16.0.0, SVG Export Plug-In . SVG Version: 6.00 Build 0)  -->
<!DOCTYPE svg PUBLIC "-//W3C//DTD SVG 1.1//EN" "http://www.w3.org/Graphics/SVG/1.1/DTD/svg11.dtd">
<svg version="1.1" id="Layer_3" xmlns="http://www.w3.org/2000/svg" xmlns:xlink="http://www.w3.org/1999/xlink" x="0px" y="0px"
	 width="363.149px" height="104.417px" viewBox="0 0 363.149 104.417" enable-background="new 0 0 363.149 104.417"
	 xml:space="preserve">
<g id="Layer_5">
	<circle fill="#004A1C" cx="260.85" cy="20.501" r="16.327"/>
	<path fill="#004A1C" stroke="#004A1C" stroke-width="2.7953" stroke-linecap="round" stroke-linejoin="round" d="M48.83,70.781
		l9.986,2.322L44.7,77.149c-6.198-14.288-9.812-16.609-9.812-16.609c-2.322-1.378-5.766-1.378-7.573-1.293
		c-0.949,0.949-1.809,1.809-2.497,2.494l-0.343,8.009l8.435,4.474H10.1l8.262-4.474l-1.119-42.09L7.86,23.701l18.249-1.464
		l-1.205,36.408l12.394-12.91l14.717-1.033c-8.434,3.186-10.501,3.875-10.501,3.875c-1.979,0.775-4.647,2.237-6.541,3.699
		c-0.69,0.514-2.412,2.067-4.392,3.873c2.065,0.086,7.23,0.26,9.468,1.807C40.05,57.957,43.581,60.452,48.83,70.781z"/>
	<path fill="#004A1C" stroke="#004A1C" stroke-width="2.7953" stroke-linecap="round" stroke-linejoin="round" d="M62.513,45.529
		c0.948,0.943,0.948,2.928,0.948,2.928c0,1.977-2.323,4.127-4.905,4.127c-2.755,0-3.959-1.978-4.046-3.873
		c0-1.978,6.628-10.155,19.537-10.155c9.554,0,14.117,9.552,13.686,15.492c0,0,0,3.53-1.12,15.577l8.349,4.134l-16.525,2.667
		l0.603-3.7c-6.369,1.548-11.447,1.548-11.447,1.636c-1.979,0-14.372-0.433-14.462-7.746c0-7.402,7.231-11.62,16.442-11.104
		c0,0,9.467,0,10.157,0.604c1.98-14.978-7.316-14.978-7.316-14.978s-8.348,0-9.897,4.475v-0.084L62.513,45.529L62.513,45.529z
		 M79.469,65.152c0-1.289,0-0.863,0-4.131c0-3.185-5.251-3.875-8.178-3.875c-2.926,0-9.467,0.863-9.467,7.576
		c0,4.991,5.077,6.8,8.177,6.8C79.901,71.522,79.469,66.444,79.469,65.152z"/>
	<path fill="#004A1C" stroke="#004A1C" stroke-width="2.7953" stroke-linecap="round" stroke-linejoin="round" d="M133.266,58.621
		c0,10.931-8.866,16.181-18.334,16.181c-4.218,0-7.229-1.031-9.295-2.24l0.173,13.255l12.05,5.168l-29.263,1.119l10.759-6.287
		l-1.893-37.524L83.946,43.47l21.518-2.411l0.086,5.765c1.979-1.031,5.853-2.582,11.361-2.582
		C125.433,44.245,133.266,49.328,133.266,58.621z M105.635,64.388c0,4.39,3.444,7.485,9.295,7.485
		c6.282,0,10.329-4.991,10.329-12.996c0-7.92-5.854-11.706-10.242-11.706c-3.529,0-9.554,3.614-9.466,10.414L105.635,64.388z"/>
	<path fill="#004A1C" stroke="#004A1C" stroke-width="2.7953" stroke-linecap="round" stroke-linejoin="round" d="M172.279,58.621
		c0,10.931-8.867,16.181-18.333,16.181c-4.218,0-7.231-1.031-9.295-2.24l0.172,13.255l12.05,5.168l-29.265,1.119l10.76-6.287
		l-1.894-37.524l-13.514-4.822l21.519-2.411l0.086,5.765c1.979-1.031,5.854-2.582,11.361-2.582
		C164.445,44.245,172.279,49.328,172.279,58.621z M144.649,64.388c0,4.39,3.444,7.485,9.295,7.485
		c6.282,0,10.329-4.991,10.329-12.996c0-7.92-5.854-11.706-10.244-11.706c-3.527,0-9.552,3.614-9.465,10.414L144.649,64.388z"/>
	<path fill="#004A1C" stroke="#004A1C" stroke-width="2.7953" stroke-linecap="round" stroke-linejoin="round" d="M183.269,45.529
		c0.947,0.943,0.947,2.928,0.947,2.928c0,1.977-2.323,4.127-4.906,4.127c-2.755,0-3.959-1.978-4.047-3.873
		c0-1.978,6.629-10.155,19.539-10.155c9.554,0,14.115,9.552,13.687,15.492c0,0,0,3.53-1.119,15.577l8.348,4.134l-16.525,2.667
		l0.604-3.7c-6.371,1.548-11.448,1.548-11.448,1.636c-1.979,0-14.373-0.433-14.459-7.746c0-7.402,7.23-11.62,16.444-11.104
		c0,0,9.466,0,10.154,0.604c1.981-14.978-7.315-14.978-7.315-14.978s-8.348,0-9.898,4.475v-0.084L183.269,45.529L183.269,45.529z
		 M200.227,65.152c0-1.289,0-0.863,0-4.131c0-3.185-5.253-3.875-8.179-3.875c-2.927,0-9.466,0.863-9.466,7.576
		c0,4.991,5.076,6.8,8.175,6.8C200.654,71.522,200.227,66.444,200.227,65.152z"/>
	<path fill="#004A1C" stroke="#004A1C" stroke-width="2.7953" stroke-linecap="round" stroke-linejoin="round" d="M266.699,43.432
		l-1.375,26.596l7.4,5.079l-21.517-0.431l8.09-4.99l-1.117-22.382l-8.178-3.873L266.699,43.432L266.699,43.432z"/>
	<path fill="#004A1C" stroke="#004A1C" stroke-width="2.7953" stroke-linecap="round" stroke-linejoin="round" d="M295.769,75.316
		l7.572-4.647c4.651-24.013-6.11-24.013-6.11-24.013c-4.563,0-7.748,2.324-9.554,4.218c-0.603,5.252-1.292,12.221-1.376,14.288
		c0,0-0.172,3.528,0.429,5.164l8.008,3.961l-24.878,0.343c4.218-2.24,5.94-2.926,5.94-2.926c0.086,0,1.806-0.689,3.957-1.98
		l-0.259-19.885l-10.068-5.333l18.938-0.344c-0.088,0.776-0.176,1.979-0.176,1.979c1.895-1.029,5.768-2.667,10.244-2.667
		c8.605,0,11.706,5.938,12.565,11.619c-0.086,0,1.033,7.057,0.43,16.182l8.266,4.649L295.769,75.316z"/>
	<path fill="#004A1C" stroke="#004A1C" stroke-width="2.7953" stroke-linecap="round" stroke-linejoin="round" d="M315.221,59.106
		c0-6.025,6.369-16.612,22.38-16.612c7.575,0,15.751,4.819,15.751,14.119c0,10.068-6.284,18.934-21.863,18.934
		c-10.501,0-16.352-8.262-16.352-16.44H315.221z M333.725,46.542c-4.817,0-10.499,3.786-10.499,12.652
		c0,8.347,5.076,11.965,10.931,11.965c4.991,0,11.532-2.583,11.532-12.31c0-6.628-4.048-12.308-11.879-12.308H333.725z"/>
	<path fill="#004A1C" stroke="#004A1C" stroke-width="2.7953" stroke-linecap="round" stroke-linejoin="round" d="M247.882,60.611
		c-6.369-18.075-14.202-18.075-14.202-18.075c-8.176,0-12.137,7.83-12.137,15.664c0,7.92,2.756,15.922,11.19,15.922
		c0,0,8.435,0,11.36-7.314l4.649,1.636c-2.322,7.918-15.577,7.918-15.577,7.918c-9.555,0-20.14-5.509-20.14-18.159
		c-0.088-12.738,13.597-17.99,19.018-17.99c0,0,5.426,0,12.397,3.96l5.766-4.476L247.882,60.611z"/>
	<polygon fill="#004A1C" points="276.497,17.888 280.085,19.041 278.675,16.734 275.473,15.838 	"/>
	
		<linearGradient id="SVGID_1_" gradientUnits="userSpaceOnUse" x1="-129.1646" y1="670.5034" x2="-129.1646" y2="703.1587" gradientTransform="matrix(1 0 0 1 388 -667)">
		<stop  offset="0" style="stop-color:#8DC63F"/>
		<stop  offset="0.243" style="stop-color:#84BD3E"/>
		<stop  offset="0.5692" style="stop-color:#6EAB3E"/>
		<stop  offset="0.9414" style="stop-color:#4A923C"/>
		<stop  offset="1" style="stop-color:#438E3B"/>
	</linearGradient>
	
		<circle fill="url(#SVGID_1_)" stroke="#004A1C" stroke-width="1.3976" stroke-linecap="round" stroke-linejoin="round" cx="258.836" cy="19.832" r="16.328"/>
	<path fill="none" stroke="#004A1C" stroke-width="4.1928" stroke-linecap="round" stroke-linejoin="round" d="M46.764,68.849
		l9.986,2.324l-14.115,4.048c-6.198-14.29-9.813-16.613-9.813-16.613c-2.322-1.378-5.767-1.378-7.573-1.291
		c-0.947,0.947-1.808,1.808-2.496,2.493l-0.343,8.009l8.434,4.473H8.033l8.263-4.473l-1.121-42.089L5.794,21.77l18.249-1.462
		l-1.206,36.408l12.395-12.91l14.718-1.033c-8.435,3.186-10.502,3.873-10.502,3.873c-1.979,0.776-4.648,2.239-6.542,3.703
		c-0.688,0.514-2.411,2.066-4.392,3.873c2.066,0.084,7.229,0.256,9.468,1.807C37.985,56.025,41.514,58.518,46.764,68.849z"/>
	<path fill="none" stroke="#004A1C" stroke-width="4.1928" stroke-linecap="round" stroke-linejoin="round" d="M60.449,43.595
		c0.946,0.947,0.946,2.926,0.946,2.926c0,1.98-2.322,4.131-4.906,4.131c-2.754,0-3.959-1.979-4.046-3.873
		c0-1.979,6.628-10.155,19.538-10.155c9.554,0,14.117,9.554,13.686,15.492c0,0,0,3.529-1.119,15.578l8.349,4.134l-16.525,2.667
		l0.601-3.698c-6.369,1.547-11.446,1.547-11.446,1.634c-1.979,0-14.374-0.431-14.46-7.746c0-7.403,7.231-11.62,16.44-11.105
		c0,0,9.466,0,10.158,0.604c1.979-14.977-7.317-14.977-7.317-14.977s-8.349,0-9.898,4.475L60.449,43.595L60.449,43.595z
		 M77.406,63.22c0-1.291,0-0.861,0-4.133c0-3.183-5.25-3.873-8.178-3.873c-2.926,0-9.466,0.86-9.466,7.575
		c0,4.992,5.078,6.798,8.177,6.798C77.834,69.587,77.406,64.51,77.406,63.22z"/>
	<path fill="none" stroke="#004A1C" stroke-width="4.1928" stroke-linecap="round" stroke-linejoin="round" d="M131.2,56.687
		c0,10.933-8.867,16.184-18.334,16.184c-4.217,0-7.23-1.032-9.295-2.239l0.172,13.253l12.051,5.166l-29.264,1.119l10.759-6.285
		l-1.893-37.526L81.881,41.54l21.518-2.412l0.086,5.766c1.979-1.03,5.853-2.58,11.361-2.58
		C123.368,42.315,131.2,47.394,131.2,56.687z M103.57,62.455c0,4.39,3.444,7.487,9.295,7.487c6.283,0,10.329-4.992,10.329-12.994
		c0-7.92-5.854-11.708-10.242-11.708c-3.529,0-9.555,3.618-9.467,10.417L103.57,62.455z"/>
	<path fill="none" stroke="#004A1C" stroke-width="4.1928" stroke-linecap="round" stroke-linejoin="round" d="M170.213,56.687
		c0,10.933-8.868,16.184-18.334,16.184c-4.217,0-7.231-1.032-9.295-2.239l0.172,13.253l12.051,5.166l-29.265,1.119l10.76-6.285
		l-1.895-37.526l-13.514-4.819l21.517-2.412l0.087,5.766c1.979-1.03,5.853-2.58,11.361-2.58
		C162.382,42.315,170.213,47.394,170.213,56.687z M142.585,62.455c0,4.39,3.444,7.487,9.295,7.487
		c6.283,0,10.329-4.992,10.329-12.994c0-7.92-5.854-11.708-10.243-11.708c-3.528,0-9.554,3.618-9.467,10.417L142.585,62.455z"/>
	<path fill="none" stroke="#004A1C" stroke-width="4.1928" stroke-linecap="round" stroke-linejoin="round" d="M181.203,43.595
		c0.947,0.947,0.947,2.926,0.947,2.926c0,1.98-2.325,4.131-4.906,4.131c-2.755,0-3.959-1.979-4.046-3.873
		c0-1.979,6.627-10.155,19.538-10.155c9.554,0,14.116,9.554,13.685,15.492c0,0,0,3.529-1.119,15.578l8.351,4.134l-16.526,2.667
		l0.603-3.698c-6.37,1.547-11.445,1.547-11.445,1.634c-1.979,0-14.374-0.431-14.462-7.746c0-7.403,7.231-11.62,16.443-11.105
		c0,0,9.465,0,10.154,0.604c1.982-14.977-7.315-14.977-7.315-14.977s-8.349,0-9.898,4.475v-0.086H181.203z M198.161,63.22
		c0-1.291,0-0.861,0-4.133c0-3.183-5.251-3.873-8.177-3.873s-9.468,0.86-9.468,7.575c0,4.992,5.078,6.798,8.178,6.798
		C198.59,69.587,198.161,64.51,198.161,63.22z"/>
	<path fill="none" stroke="#004A1C" stroke-width="4.1928" stroke-linecap="round" stroke-linejoin="round" d="M245.819,58.677
		c-6.368-18.075-14.202-18.075-14.202-18.075c-8.175,0-12.136,7.833-12.136,15.666c0,7.918,2.755,15.924,11.19,15.924
		c0,0,8.434,0,11.36-7.319l4.649,1.639c-2.325,7.918-15.578,7.918-15.578,7.918c-9.556,0-20.141-5.508-20.141-18.161
		c-0.088-12.735,13.597-17.988,19.018-17.988c0,0,5.427,0,12.397,3.96l5.767-4.476L245.819,58.677z"/>
	<path fill="none" stroke="#004A1C" stroke-width="4.1928" stroke-linecap="round" stroke-linejoin="round" d="M264.636,41.501
		l-1.376,26.594l7.402,5.079l-21.519-0.432l8.093-4.988l-1.12-22.383l-8.18-3.872h16.699V41.501z"/>
	<path fill="none" stroke="#004A1C" stroke-width="4.1928" stroke-linecap="round" stroke-linejoin="round" d="M293.705,73.386
		l7.574-4.646c4.649-24.017-6.112-24.017-6.112-24.017c-4.562,0-7.746,2.324-9.552,4.218c-0.604,5.254-1.293,12.225-1.378,14.29
		c0,0-0.173,3.526,0.431,5.164l8.006,3.959l-24.875,0.344c4.22-2.24,5.939-2.927,5.939-2.927c0.086,0,1.807-0.688,3.959-1.979
		l-0.259-19.886l-10.071-5.336l18.937-0.341c-0.086,0.775-0.172,1.978-0.172,1.978c1.893-1.032,5.765-2.667,10.242-2.667
		c8.605,0,11.705,5.937,12.564,11.617c-0.086,0,1.033,7.059,0.433,16.184l8.263,4.649L293.705,73.386z"/>
	<path fill="none" stroke="#004A1C" stroke-width="4.1928" stroke-linecap="round" stroke-linejoin="round" d="M313.156,57.174
		c0-6.026,6.371-16.611,22.382-16.611c7.574,0,15.752,4.818,15.752,14.116c0,10.072-6.283,18.938-21.862,18.938
		c-10.501,0-16.352-8.263-16.352-16.44h0.08V57.174z M331.663,44.608c-4.82,0-10.501,3.787-10.501,12.654
		c0,8.351,5.079,11.963,10.929,11.963c4.991,0,11.533-2.581,11.533-12.308c0-6.628-4.045-12.309-11.879-12.309H331.663z"/>
	<path fill="#004A1C" d="M168.305,84.452c0.67-0.557,1.451-0.892,2.561-0.892c1.894,0.11,3.006,0.892,3.231,2.45
		c0.779-0.335,1.781-0.558,2.896-0.67c-0.669-2.005-2.562-3.116-5.68-3.451c-1.78,0-3.007,0.222-4.231,1.112
		c-0.892,0.559-1.448,1.339-1.893,2.228c-0.891,2.116-0.668,3.897,0.445,5.347c1.114,1.558,3.007,2.229,5.679,2.229
		c2.896,0,4.901-1.116,6.015-3.232c-0.781-0.221-1.67-0.554-2.673-0.893c-0.668,1.562-1.894,2.451-3.453,2.562
		c-1.225,0-2.115-0.336-2.896-1.112c-0.89-1.004-1.224-2.229-1-3.674C167.417,85.675,167.749,85.009,168.305,84.452z"/>
	<path fill="#004A1C" d="M196.926,85.675c1.004-0.11,2.005-0.223,2.785-0.223c0-1.558-0.668-2.782-2.118-3.229
		c-2.224-0.892-4.566-0.557-6.902,1.003v-1.56c-1.113,0.222-2.006,0.222-2.783,0.443c0.444,3.899,0.556,7.462,0.556,10.804
		c0.89-0.109,1.67-0.334,2.228-0.446V85.34c1.893-1.445,3.452-2.113,4.787-1.67C196.369,83.894,196.926,84.563,196.926,85.675z"/>
	<path fill="#004A1C" d="M212.518,83.001c-1.002,0.669-1.672,1.45-2.006,2.339c-0.891,2.005-0.779,3.786,0.444,5.235
		c1.337,1.67,3.229,2.339,5.791,2.117c2.783-0.225,5.011-1.338,6.571-3.341c-0.781-0.333-1.562-0.559-2.562-0.894
		c-1.114,1.672-2.562,2.563-4.232,2.563c-1.224,0.109-2.339-0.337-3.009-1.004c-0.554-0.668-1-1.338-1.111-2.007
		c3.341-0.329,6.683-0.445,10.132-0.329c0.114-1.672-0.223-3.119-1.335-4.122c-0.999-0.894-2.562-1.451-4.342-1.451
		C215.191,81.998,213.742,82.335,212.518,83.001z M216.192,83.56c2.338,0,3.452,1.003,3.562,2.559l-7.236,0.225
		c0.11-0.668,0.555-1.334,1.111-1.78C214.298,83.894,215.191,83.56,216.192,83.56z"/>
	<path fill="#004A1C" d="M236.793,85.786c0.222-1.559,1.112-2.338,2.896-2.338c2.448,0.112,3.783,1.115,4.117,3.229
		c-1.111-0.445-2.562-0.666-4.231-0.553c-1.449,0-2.671,0.333-3.675,0.777c-1.557,0.783-2.115,1.67-2.115,3.009
		c0.222,1.112,0.777,1.893,1.893,2.559c1.115,0.67,2.563,1.004,4.455,0.893c1.337-0.223,2.45-0.444,3.342-0.893v0.67
		c0.893-0.112,1.669-0.222,2.45-0.222l-0.223-6.904c-0.222-3.23-2.336-4.678-6.346-4.341c-3.12,0.222-4.899,1.559-5.346,3.896
		C235.123,85.675,236.015,85.675,236.793,85.786z M241.801,87.901c1.115,0.335,1.783,0.555,1.895,1.114
		c0.111,0.556-0.223,1.228-1,1.67c-0.67,0.556-1.449,0.777-2.562,0.895c-2.228,0.221-3.452-0.337-3.673-1.449
		c-0.112-1.115,0.889-1.895,2.783-2.229C240.023,87.791,240.912,87.791,241.801,87.901z"/>
	<path fill="#004A1C" d="M257.95,82.111l-1.447,0.225c0.111,0.666,0,1.225-0.109,1.666l1.335-0.107l-0.222,4.564
		c-0.111,1.114,0.222,2.117,0.779,2.896c0.558,0.776,1.336,1.222,2.227,1.446c3.341,0.671,4.899-0.556,4.788-3.675
		c-0.891,0-1.781,0-2.562-0.221c0.113,1.668-0.335,2.337-1.222,2.337c-1.114-0.111-1.782-1-1.782-2.337
		c0-1.224,0.222-3.008,0.443-5.123l3.676-0.112c0-0.671,0.224-1.335,0.224-2.005l-3.675,0.332l0.446-4.339
		c-1.114,0.22-2.005,0.333-2.896,0.333C258.064,78.993,258.064,80.441,257.95,82.111z"/>
	<path fill="#004A1C" d="M279.108,82.111c-1.114,0-2.005,0.113-2.784,0.225c0.224,3.783,0.224,7.237,0,10.466
		c1.006-0.333,1.67-0.443,2.341-0.443C278.665,89.573,278.887,86.231,279.108,82.111z"/>
	<path fill="#004A1C" d="M296.481,81.889c-1.895,0.108-3.452,0.781-4.788,2.006c-1.449,1.334-1.894,3.004-1.449,5.013
		c0.672,2.561,2.897,3.785,6.905,3.675c1.779,0,3.451-0.447,4.788-1.449c1.447-1.112,2.116-2.675,2.226-4.454
		c0-1.668-0.558-2.782-1.895-3.676C300.822,82.111,298.928,81.778,296.481,81.889z M296.925,83.56c1.45,0,2.451,0.223,3.34,0.892
		c0.894,0.558,1.449,1.559,1.339,2.784c-0.223,2.445-1.781,3.786-4.455,3.896c-0.999,0-1.895-0.335-2.673-0.666
		c-0.891-0.556-1.447-1.339-1.67-2.119c-0.221-1.336,0-2.45,0.779-3.341C294.476,84.001,295.59,83.56,296.925,83.56z"/>
	<path fill="#004A1C" d="M326.771,86.231c-0.225-2.229-0.891-3.674-2.562-4.233c-1.895-0.665-4.231-0.22-6.683,1.229v-1.67
		c-0.893,0.221-1.78,0.332-2.671,0.332c0.444,3.896,0.557,7.574,0.108,10.916c0.891,0,1.783-0.223,2.896-0.223
		c0-0.894,0-3.456-0.338-7.459c0.781-0.448,1.67-0.896,2.562-1.227c1.002-0.333,1.894-0.445,2.449-0.333
		c1.115,0.223,1.672,1.336,1.672,3.337c0,1.339-0.335,3.12-0.893,5.569c1.002,0,2.004,0.112,2.785,0.337
		C326.546,89.573,326.771,87.345,326.771,86.231z"/>
	<path fill="#004A1C" d="M340.132,85.338c0-0.442,0.222-0.777,0.777-1.223c0.558-0.333,1.114-0.555,1.896-0.666
		c2.005-0.222,3.453,0.219,3.896,1.558c1.114-0.338,2.115-0.444,3.117-0.444c-0.22-0.895-1.114-1.562-2.225-2.116
		c-1.339-0.558-3.006-0.779-5.123-0.558c-1.893,0.222-3.453,0.779-4.234,1.672c-0.667,0.777-0.889,1.559-0.556,2.56
		c0.445,0.892,1.001,1.56,2.008,1.893c1.11,0.444,2.562,0.444,4.339,0c3.009-0.668,4.456-0.223,4.456,1.004
		c-0.11,1.448-1.225,2.226-3.34,2.338c-2.229,0.221-3.788-0.559-4.453-2.005c-1.002,0.221-2.009,0.668-2.787,0.895
		c0.335,1.22,1.336,2.003,3.006,2.446c1.339,0.443,2.785,0.443,4.567,0.224c3.564-0.446,5.457-1.672,5.569-4.013
		c0.223-1.222-0.334-2.116-1.447-2.562c-1.006-0.556-2.562-0.556-4.453,0C341.804,87.236,340.132,86.788,340.132,85.338z"/>
	
		<linearGradient id="SVGID_2_" gradientUnits="userSpaceOnUse" x1="-356.7285" y1="687.3071" x2="-356.7285" y2="742.2212" gradientTransform="matrix(1 0 0 1 388 -667)">
		<stop  offset="0" style="stop-color:#8DC63F"/>
		<stop  offset="1" style="stop-color:#438E3B"/>
	</linearGradient>
	<path fill="url(#SVGID_2_)" d="M46.764,68.849l9.986,2.324l-14.115,4.048c-6.198-14.29-9.813-16.613-9.813-16.613
		c-2.322-1.378-5.767-1.378-7.573-1.291c-0.947,0.947-1.808,1.808-2.496,2.493l-0.343,8.009l8.434,4.473H8.033l8.263-4.473
		l-1.121-42.089L5.794,21.77l18.249-1.462l-1.206,36.408l12.395-12.91l14.718-1.033c-8.435,3.186-10.502,3.873-10.502,3.873
		c-1.979,0.776-4.648,2.239-6.542,3.703c-0.688,0.514-2.411,2.066-4.392,3.873c2.066,0.084,7.229,0.256,9.468,1.807
		C37.985,56.025,41.514,58.518,46.764,68.849z"/>
	
		<linearGradient id="SVGID_3_" gradientUnits="userSpaceOnUse" x1="-316.0195" y1="703.6245" x2="-316.0195" y2="741.4946" gradientTransform="matrix(1 0 0 1 388 -667)">
		<stop  offset="0" style="stop-color:#8DC63F"/>
		<stop  offset="1" style="stop-color:#438E3B"/>
	</linearGradient>
	<path fill="url(#SVGID_3_)" d="M60.449,43.595c0.946,0.947,0.946,2.926,0.946,2.926c0,1.98-2.322,4.131-4.906,4.131
		c-2.754,0-3.959-1.979-4.046-3.873c0-1.979,6.628-10.155,19.538-10.155c9.554,0,14.117,9.554,13.686,15.492
		c0,0,0,3.529-1.119,15.578l8.349,4.134l-16.525,2.667l0.601-3.698c-6.369,1.547-11.446,1.547-11.446,1.634
		c-1.979,0-14.374-0.431-14.46-7.746c0-7.403,7.231-11.62,16.44-11.105c0,0,9.466,0,10.158,0.604
		c1.979-14.977-7.317-14.977-7.317-14.977s-8.349,0-9.898,4.475L60.449,43.595L60.449,43.595z M77.406,63.22
		c0-1.291,0-0.861,0-4.133c0-3.183-5.25-3.873-8.178-3.873c-2.926,0-9.466,0.86-9.466,7.575c0,4.992,5.078,6.798,8.177,6.798
		C77.834,69.587,77.406,64.51,77.406,63.22z"/>
	
		<linearGradient id="SVGID_4_" gradientUnits="userSpaceOnUse" x1="-281.46" y1="706.1265" x2="-281.46" y2="757.1694" gradientTransform="matrix(1 0 0 1 388 -667)">
		<stop  offset="0" style="stop-color:#8DC63F"/>
		<stop  offset="1" style="stop-color:#438E3B"/>
	</linearGradient>
	<path fill="url(#SVGID_4_)" d="M131.2,56.687c0,10.933-8.867,16.184-18.334,16.184c-4.217,0-7.23-1.032-9.295-2.239l0.172,13.253
		l12.051,5.166l-29.264,1.119l10.759-6.285l-1.893-37.526L81.881,41.54l21.518-2.412l0.086,5.766c1.979-1.03,5.853-2.58,11.361-2.58
		C123.368,42.315,131.2,47.394,131.2,56.687z M103.57,62.455c0,4.39,3.444,7.487,9.295,7.487c6.283,0,10.329-4.992,10.329-12.994
		c0-7.92-5.854-11.708-10.242-11.708c-3.529,0-9.555,3.618-9.467,10.417L103.57,62.455z"/>
	
		<linearGradient id="SVGID_5_" gradientUnits="userSpaceOnUse" x1="-242.4463" y1="706.1265" x2="-242.4463" y2="757.1694" gradientTransform="matrix(1 0 0 1 388 -667)">
		<stop  offset="0" style="stop-color:#8DC63F"/>
		<stop  offset="1" style="stop-color:#438E3B"/>
	</linearGradient>
	<path fill="url(#SVGID_5_)" d="M170.213,56.687c0,10.933-8.868,16.184-18.334,16.184c-4.217,0-7.231-1.032-9.295-2.239
		l0.172,13.253l12.051,5.166l-29.265,1.119l10.76-6.285l-1.895-37.526l-13.514-4.819l21.517-2.412l0.087,5.766
		c1.979-1.03,5.853-2.58,11.361-2.58C162.382,42.315,170.213,47.394,170.213,56.687z M142.585,62.455
		c0,4.39,3.444,7.487,9.295,7.487c6.283,0,10.329-4.992,10.329-12.994c0-7.92-5.854-11.708-10.243-11.708
		c-3.528,0-9.554,3.618-9.467,10.417L142.585,62.455z"/>
	
		<linearGradient id="SVGID_6_" gradientUnits="userSpaceOnUse" x1="-195.2637" y1="703.6245" x2="-195.2637" y2="741.4946" gradientTransform="matrix(1 0 0 1 388 -667)">
		<stop  offset="0" style="stop-color:#8DC63F"/>
		<stop  offset="1" style="stop-color:#438E3B"/>
	</linearGradient>
	<path fill="url(#SVGID_6_)" d="M181.203,43.595c0.947,0.947,0.947,2.926,0.947,2.926c0,1.98-2.325,4.131-4.906,4.131
		c-2.755,0-3.959-1.979-4.046-3.873c0-1.979,6.627-10.155,19.538-10.155c9.554,0,14.116,9.554,13.685,15.492
		c0,0,0,3.529-1.119,15.578l8.351,4.134l-16.526,2.667l0.603-3.698c-6.37,1.547-11.445,1.547-11.445,1.634
		c-1.979,0-14.374-0.431-14.462-7.746c0-7.403,7.231-11.62,16.443-11.105c0,0,9.465,0,10.154,0.604
		c1.982-14.977-7.315-14.977-7.315-14.977s-8.349,0-9.898,4.475v-0.086H181.203z M198.161,63.22c0-1.291,0-0.861,0-4.133
		c0-3.183-5.251-3.873-8.177-3.873s-9.468,0.86-9.468,7.575c0,4.992,5.078,6.798,8.178,6.798
		C198.59,69.587,198.161,64.51,198.161,63.22z"/>
	
		<linearGradient id="SVGID_7_" gradientUnits="userSpaceOnUse" x1="-128.7007" y1="708.4995" x2="-128.7007" y2="740.1743" gradientTransform="matrix(1 0 0 1 388 -667)">
		<stop  offset="0" style="stop-color:#8DC63F"/>
		<stop  offset="1" style="stop-color:#438E3B"/>
	</linearGradient>
	<path fill="url(#SVGID_7_)" d="M264.636,41.501l-1.376,26.594l7.402,5.079l-21.519-0.432l8.093-4.988l-1.12-22.383l-8.18-3.872
		h16.699V41.501z"/>
	
		<linearGradient id="SVGID_8_" gradientUnits="userSpaceOnUse" x1="-95.5005" y1="708.5415" x2="-95.5005" y2="740.9917" gradientTransform="matrix(1 0 0 1 388 -667)">
		<stop  offset="0" style="stop-color:#8DC63F"/>
		<stop  offset="1" style="stop-color:#438E3B"/>
	</linearGradient>
	<path fill="url(#SVGID_8_)" d="M293.705,73.386l7.574-4.646c4.649-24.017-6.112-24.017-6.112-24.017
		c-4.562,0-7.746,2.324-9.552,4.218c-0.604,5.254-1.293,12.225-1.378,14.29c0,0-0.173,3.526,0.431,5.164l8.006,3.959l-24.875,0.344
		c4.22-2.24,5.939-2.927,5.939-2.927c0.086,0,1.807-0.688,3.959-1.979l-0.259-19.886l-10.071-5.336l18.937-0.341
		c-0.086,0.775-0.172,1.978-0.172,1.978c1.893-1.032,5.765-2.667,10.242-2.667c8.605,0,11.705,5.937,12.564,11.617
		c-0.086,0,1.033,7.059,0.433,16.184l8.263,4.649L293.705,73.386z"/>
	
		<linearGradient id="SVGID_9_" gradientUnits="userSpaceOnUse" x1="-55.8179" y1="707.562" x2="-55.8179" y2="740.6167" gradientTransform="matrix(1 0 0 1 388 -667)">
		<stop  offset="0" style="stop-color:#8DC63F"/>
		<stop  offset="1" style="stop-color:#438E3B"/>
	</linearGradient>
	<path fill="url(#SVGID_9_)" d="M313.156,57.174c0-6.026,6.371-16.611,22.382-16.611c7.574,0,15.752,4.818,15.752,14.116
		c0,10.072-6.283,18.938-21.862,18.938c-10.501,0-16.352-8.263-16.352-16.44h0.08V57.174z M331.663,44.608
		c-4.82,0-10.501,3.787-10.501,12.654c0,8.351,5.079,11.963,10.929,11.963c4.991,0,11.533-2.581,11.533-12.308
		c0-6.628-4.045-12.309-11.879-12.309H331.663z"/>
	
		<linearGradient id="SVGID_10_" gradientUnits="userSpaceOnUse" x1="-158.4473" y1="704.7632" x2="-158.4473" y2="741.4292" gradientTransform="matrix(1 0 0 1 388 -667)">
		<stop  offset="0" style="stop-color:#8DC63F"/>
		<stop  offset="1" style="stop-color:#438E3B"/>
	</linearGradient>
	<path fill="url(#SVGID_10_)" d="M245.819,58.677c-6.368-18.075-14.202-18.075-14.202-18.075c-8.175,0-12.136,7.833-12.136,15.666
		c0,7.918,2.755,15.924,11.19,15.924c0,0,8.434,0,11.36-7.319l4.649,1.639c-2.325,7.918-15.578,7.918-15.578,7.918
		c-9.556,0-20.141-5.508-20.141-18.161c-0.088-12.735,13.597-17.988,19.018-17.988c0,0,5.427,0,12.397,3.96l5.767-4.476
		L245.819,58.677z"/>
	<polyline opacity="0.86" fill="#C6DE87" enable-background="new    " points="5.638,21.608 7.363,21.493 24.023,20.115 
		23.524,22.208 14.461,23.304 17.946,25.793 18.943,67.129 11.271,72.54 8.165,72.424 16.445,67.595 14.95,25.863 	"/>
	<polygon opacity="0.86" fill="#C6DE87" enable-background="new    " points="22.998,56.444 35.185,43.566 50.131,42.648 
		35.759,44.718 	"/>
	<path opacity="0.86" fill="#C6DE87" enable-background="new    " d="M28.763,54.189c0,0,7.249,0.101,9.368,1.922
		c0,0,4.585,4.145,8.627,12.722l10.059,2.22l-10.699-1.236C46.118,69.816,41.531,55.226,28.763,54.189z"/>
	<path opacity="0.86" fill="#C6DE87" enable-background="new    " d="M56.253,50.646c0,0-4.646,0.1-3.535-5.05
		c0,0,4.543-8.281,17.673-8.989c0,0,7.777-0.708,11.616,4.847l21.413-2.423v2.526l-16.464,0.402l10.605,3.94l2.02,37.27
		l-10.808,7.073l-2.223,0.097l2.93-2.018l7.677-4.445L95.34,46.405l-12.626-4.445l-1.515-0.402c0,0-6.263-6.565-15.555-3.232
		C56.353,41.658,52.415,45.902,56.253,50.646z"/>
	<path opacity="0.86" fill="#C6DE87" enable-background="new    " d="M77.666,54.082c0,0-11.11-1.213-15.151-0.305
		c0,0-10.605,1.109-11.211,9.696c0,0-2.324,5.958,7.878,8.283c0,0-9.9-7.374-1.415-14.949
		C57.767,56.805,62.716,54.284,77.666,54.082z"/>
	<path opacity="0.86" fill="#C6DE87" enable-background="new    " d="M76.941,70.993l-0.504,3.537l3.838-0.641
		C80.275,73.889,77.079,74.503,76.941,70.993z"/>
	<path opacity="0.86" fill="#C6DE87" enable-background="new    " d="M203.194,41.959l-1.517-0.402c0,0-6.262-6.565-15.554-3.232
		c-9.291,3.334-13.231,7.577-9.393,12.322c0,0-4.646,0.102-3.536-5.048c0,0,4.543-8.282,17.674-8.99c0,0,7.78-0.708,11.617,4.848"/>
	<path opacity="0.86" fill="#C6DE87" enable-background="new    " d="M207.317,41.959"/>
	<path opacity="0.86" fill="#C6DE87" enable-background="new    " d="M198.203,54.255c0,0-11.111-1.213-15.151-0.303
		c0,0-10.604,1.11-11.211,9.696c0,0-2.323,5.958,7.878,8.283c0,0-9.9-7.369-1.415-14.948
		C178.303,56.982,183.252,54.459,198.203,54.255z"/>
	<path opacity="0.86" fill="#C6DE87" enable-background="new    " d="M197.672,71.048l-0.507,3.534l4.089-0.71
		C201.254,73.873,199.286,74.105,197.672,71.048z"/>
	<path opacity="0.86" fill="#C6DE87" enable-background="new    " d="M117.663,46.405c0,0,5.96,3.838,5.454,11.009
		c0,0-1.312,9.29-5.05,11.109C118.066,68.523,136.146,57.009,117.663,46.405z"/>
	<polyline opacity="0.86" fill="#C6DE87" enable-background="new    " points="120.993,41.456 142.406,39.032 142.406,41.557 
		125.942,41.959 136.549,45.902 138.568,83.169 127.76,90.239 125.539,90.339 128.468,88.32 136.145,83.876 134.327,46.405 
		121.701,41.959 120.187,41.557 	"/>
	<path opacity="0.86" fill="#C6DE87" enable-background="new    " d="M156.649,46.405c0,0,5.959,3.838,5.452,11.009
		c0,0-1.312,9.29-5.05,11.109C157.052,68.523,175.131,57.009,156.649,46.405z"/>
	<path opacity="0.86" fill="#C6DE87" enable-background="new    " d="M248.023,37.8l-5.518,4.345c0,0-10.453-7.397-20.434-1.762
		c0,0-12.328,4.344-11.037,17.263c0,0-0.351,11.625,12.8,15.851c0,0-20.549-12.68-4.814-29.591c0,0,12.097-9.159,23.485,0
		l5.402-3.99L248.023,37.8z"/>
	<path opacity="0.86" fill="#C6DE87" enable-background="new    " d="M246.851,66.568l-4.697-1.762c0,0-3.64,7.046-10.569,7.163
		c0,0,9.747-0.819,11.038-6.223l3.992,1.528L246.851,66.568z"/>
	<polygon opacity="0.86" fill="#C6DE87" enable-background="new    " points="248.257,41.675 256.127,45.55 257.184,67.625 
		249.317,72.322 249.317,72.907 258.71,68.565 258.24,44.726 253.779,42.496 264.464,42.966 264.816,41.203 248.963,41.557 	"/>
	<polygon opacity="0.86" fill="#C6DE87" enable-background="new    " points="286.394,42.042 267.409,42.554 277.615,47.897 
		277.732,67.861 269.279,71.733 270.333,72.555 279.259,68.212 278.908,46.842 272.213,43.434 286.307,43.062 	"/>
	<path opacity="0.86" fill="#C6DE87" enable-background="new    " d="M293.682,73.403l7.542-4.745c0,0,5.086-20.51-5.594-23.902
		c0,0,12.46-1.02,7.205,23.646l-6.864,4.999h-2.289V73.403z"/>
	<path opacity="0.86" fill="#C6DE87" enable-background="new    " d="M286.48,43.993c0,0,8.984-4.747,16.017-1.103
		c0,0,4.069,2.119,5.088,5.426C307.583,48.316,300.378,39.417,286.48,43.993z"/>
	<path opacity="0.86" fill="#C6DE87" enable-background="new    " d="M329.792,41.149c0,0-11.843,1.232-15.665,11.469
		c0,0-5.798,14.182,10.976,20.597c0,0,9.496,1.235,14.802-1.232c0,0-17.516,3.329-23.312-7.524
		C316.594,64.459,308.824,51.384,329.792,41.149z"/>
	<path opacity="0.86" fill="#C6DE87" enable-background="new    " d="M338.919,46.822c0,0,5.059,3.824,4.688,10.732
		c0,0,0.198,5.833-5.097,10.173C338.51,67.727,353.721,58.663,338.919,46.822z"/>
	<path opacity="0.86" fill="#C6DE87" enable-background="new    " d="M254.787,4.676c0,0-6.502,1.928-8.748,6.1
		c0,0-5.697,6.824-1.044,16.293c0,0,3.532,8.186,14.045,8.507C259.042,35.576,236.409,24.019,254.787,4.676z"/>
	<ellipse fill="#D7DF23" stroke="#004A1C" stroke-width="1.3976" cx="258.834" cy="26.951" rx="8.58" ry="3.598"/>
	<circle fill="#004A1C" cx="250.258" cy="21.216" r="2.353"/>
	<circle fill="#004A1C" cx="267.691" cy="21.216" r="2.353"/>
	<polygon fill="#005926" stroke="#004A1C" stroke-width="1.3976" stroke-linecap="round" stroke-linejoin="round" points="
		243.831,11.544 239.956,16.801 248.81,14.034 252.951,17.393 256.559,14.31 260.434,17.355 263.201,13.204 268.733,17.355 
		269.843,14.034 278.118,17.004 273.579,11.265 	"/>
	<polygon opacity="0.5" fill="#C6DE87" enable-background="new    " points="242.026,15.59 244.193,11.978 246.12,12.058 	"/>
	<polygon opacity="0.5" fill="#C6DE87" enable-background="new    " points="249.33,13.504 253.022,16.633 253.744,15.912 
		250.05,12.861 	"/>
	<polygon opacity="0.5" fill="#C6DE87" enable-background="new    " points="257.113,13.985 260.484,16.553 258.319,13.102 	"/>
	<polygon opacity="0.5" fill="#C6DE87" enable-background="new    " points="263.855,12.541 268.348,16.071 268.67,15.107 	"/>
	<polygon opacity="0.5" fill="#C6DE87" enable-background="new    " points="270.116,13.261 276.294,15.669 271.641,12.541 	"/>
	<circle opacity="0.5" fill="#C6DE87" enable-background="new    " cx="250.172" cy="21.167" r="1.406"/>
	<circle opacity="0.5" fill="#C6DE87" enable-background="new    " cx="267.586" cy="21.167" r="1.406"/>
	<circle opacity="0.71" fill="#005926" enable-background="new    " cx="250.211" cy="21.127" r="1.044"/>
	<circle opacity="0.71" fill="#005926" enable-background="new    " cx="267.628" cy="21.127" r="1.044"/>
	<circle fill="#FFFFFF" cx="250.292" cy="20.404" r="0.842"/>
	<circle fill="#FFFFFF" cx="267.467" cy="20.404" r="0.842"/>
	<path opacity="0.78" fill="#FFFFFF" enable-background="new    " d="M257.414,24.102c0,0-6.606,0.623-6.451,3.119
		c0,0,0.677,2.653,8.843,2.706C259.805,29.927,247.321,28.159,257.414,24.102z"/>
	<polygon opacity="0.5" fill="#005926" enable-background="new    " points="24.023,22.68 22.998,56.444 22.277,55.435 
		22.893,22.476 24.023,20.115 	"/>
	<path opacity="0.5" fill="#005926" enable-background="new    " d="M28.763,54.189c0,0,5.63-5.839,9.636-6.867l11.734-4.676
		C50.131,42.648,34.017,45.037,28.763,54.189z"/>
	<path opacity="0.5" fill="#005926" enable-background="new    " d="M22.406,67.817l8.435,4.475l0.164,0.496l-11.09-0.517
		c0,0,5.853,0.003,5.647-1.539c0,0-2.464-2.255-4.416-2.771l0.412-8.01l3.491-3.18l0.199,0.545l-2.496,2.494L22.406,67.817z"/>
	<polygon opacity="0.5" fill="#005926" enable-background="new    " points="42.634,75.221 56.75,71.173 44.456,73.198 
		42.301,74.431 	"/>
	<path opacity="0.5" fill="#005926" enable-background="new    " d="M57.282,50.694c0,0,5.034-1.292,4.014-5.44
		c0,0-0.033-1.044-0.408-1.497c-0.377-0.449-0.204-0.204-0.204-0.204s1.36-3.811,9.864-4.013c5.367,0.459,6.825,6.337,7.005,7.075
		c0,0-0.544-10.136-11.836-7.55c0,0-5.578,1.019-5.918,5.645C59.801,44.709,61.228,49.063,57.282,50.694z"/>
	<path opacity="0.5" fill="#005926" enable-background="new    " d="M59.182,71.756c0,0,8.505,1.722,17.791-0.96
		C76.973,70.796,63.121,72.475,59.182,71.756z"/>
	<path opacity="0.5" fill="#005926" enable-background="new    " d="M179.316,71.989c0,0,8.506,1.722,17.793-0.962
		C197.109,71.027,183.254,72.708,179.316,71.989z"/>
</g>
<g id="Layer_4">
</g>
</svg>
