<?xml version="1.0" encoding="utf-8"?>
<!-- Generator: Adobe Illustrator 16.0.0, SVG Export Plug-In . SVG Version: 6.00 Build 0)  -->
<!DOCTYPE svg PUBLIC "-//W3C//DTD SVG 1.1//EN" "http://www.w3.org/Graphics/SVG/1.1/DTD/svg11.dtd">
<svg version="1.1" id="Layer_2_1_" xmlns="http://www.w3.org/2000/svg" xmlns:xlink="http://www.w3.org/1999/xlink" x="0px" y="0px"
	 width="363.149px" height="104.417px" viewBox="0 0 363.149 104.417" enable-background="new 0 0 363.149 104.417"
	 xml:space="preserve">
<g id="Layer_8_1_">
	<circle fill="#642265" cx="264.003" cy="22.616" r="16.237"/>
	<path fill="#822D0D" stroke="#6A0054" stroke-width="2.7799" stroke-linecap="round" stroke-linejoin="round" d="M53.146,72.621
		l9.931,2.311l-14.038,4.024c-6.166-14.208-9.76-16.52-9.76-16.52c-2.309-1.37-5.735-1.37-7.533-1.285
		c-0.942,0.942-1.798,1.797-2.482,2.481l-0.34,7.964l8.388,4.449H14.628l8.218-4.449l-1.115-41.859L12.401,25.8l18.149-1.455
		l-1.199,36.208l12.326-12.837l14.638-1.029c-8.388,3.168-10.444,3.852-10.444,3.852c-1.968,0.772-4.622,2.226-6.505,3.68
		c-0.685,0.514-2.398,2.056-4.367,3.854c2.054,0.084,7.191,0.255,9.416,1.797C44.416,59.867,47.926,62.346,53.146,72.621z"/>
	<path fill="#822D0D" stroke="#6A0054" stroke-width="2.7799" stroke-linecap="round" stroke-linejoin="round" d="M66.756,47.507
		c0.941,0.941,0.941,2.91,0.941,2.91c0,1.969-2.309,4.109-4.878,4.109c-2.74,0-3.938-1.968-4.025-3.852
		c0-1.968,6.592-10.1,19.43-10.1c9.502,0,14.039,9.502,13.611,15.407c0,0,0,3.512-1.113,15.493l8.303,4.108L82.59,78.235l0.6-3.681
		c-6.335,1.542-11.384,1.542-11.384,1.628c-1.967,0-14.294-0.427-14.381-7.704c0-7.362,7.191-11.557,16.351-11.043
		c0,0,9.415,0,10.1,0.602c1.97-14.894-7.275-14.894-7.275-14.894s-8.301,0-9.843,4.45L66.756,47.507L66.756,47.507L66.756,47.507z
		 M83.619,67.023c0-1.285,0-0.856,0-4.109c0-3.166-5.221-3.854-8.132-3.854c-2.912,0-9.417,0.858-9.417,7.534
		c0,4.965,5.05,6.764,8.133,6.764C84.047,73.358,83.619,68.305,83.619,67.023z"/>
	<path fill="#822D0D" stroke="#6A0054" stroke-width="2.7799" stroke-linecap="round" stroke-linejoin="round" d="M137.119,60.528
		c0,10.871-8.818,16.092-18.233,16.092c-4.194,0-7.19-1.024-9.246-2.227l0.171,13.18l11.985,5.14l-29.103,1.113l10.698-6.253
		l-1.882-37.318l-13.441-4.795l21.4-2.396l0.085,5.732c1.968-1.025,5.821-2.566,11.299-2.566
		C129.329,46.233,137.119,51.282,137.119,60.528z M109.64,66.263c0,4.365,3.425,7.446,9.246,7.446
		c6.248,0,10.271-4.965,10.271-12.925c0-7.879-5.82-11.643-10.187-11.643c-3.508,0-9.5,3.597-9.413,10.357L109.64,66.263z"/>
	<path fill="#822D0D" stroke="#6A0054" stroke-width="2.7799" stroke-linecap="round" stroke-linejoin="round" d="M175.918,60.528
		c0,10.871-8.818,16.092-18.232,16.092c-4.195,0-7.19-1.024-9.244-2.227l0.17,13.18l11.984,5.14l-29.104,1.113l10.701-6.253
		l-1.883-37.318l-13.439-4.795l21.399-2.396l0.087,5.732c1.968-1.025,5.82-2.566,11.298-2.566
		C168.128,46.233,175.918,51.282,175.918,60.528z M148.441,66.263c0,4.365,3.423,7.446,9.244,7.446
		c6.248,0,10.271-4.965,10.271-12.925c0-7.879-5.82-11.643-10.187-11.643c-3.507,0-9.5,3.597-9.413,10.357L148.441,66.263z"/>
	<path fill="#822D0D" stroke="#6A0054" stroke-width="2.7799" stroke-linecap="round" stroke-linejoin="round" d="M186.849,47.507
		c0.942,0.941,0.942,2.91,0.942,2.91c0,1.969-2.311,4.109-4.878,4.109c-2.74,0-3.941-1.968-4.026-3.852
		c0-1.968,6.594-10.1,19.432-10.1c9.503,0,14.038,9.502,13.611,15.407c0,0,0,3.512-1.113,15.493l8.303,4.108l-16.436,2.652
		l0.602-3.681c-6.336,1.542-11.386,1.542-11.386,1.628c-1.968,0-14.293-0.427-14.381-7.704c0-7.362,7.192-11.557,16.353-11.043
		c0,0,9.414,0,10.099,0.602c1.972-14.894-7.275-14.894-7.275-14.894s-8.301,0-9.842,4.45v-0.084L186.849,47.507L186.849,47.507z
		 M203.713,67.023c0-1.285,0-0.856,0-4.109c0-3.166-5.226-3.854-8.135-3.854c-2.91,0-9.414,0.858-9.414,7.534
		c0,4.965,5.05,6.764,8.131,6.764C204.138,73.358,203.713,68.305,203.713,67.023z"/>
	<path fill="#822D0D" stroke="#6A0054" stroke-width="2.7799" stroke-linecap="round" stroke-linejoin="round" d="M269.823,45.422
		l-1.368,26.45l7.36,5.048l-21.4-0.428l8.046-4.963l-1.109-22.259l-8.136-3.85h16.607V45.422z"/>
	<path fill="#822D0D" stroke="#6A0054" stroke-width="2.7799" stroke-linecap="round" stroke-linejoin="round" d="M298.732,77.133
		l7.532-4.625c4.624-23.88-6.078-23.88-6.078-23.88c-4.537,0-7.705,2.312-9.502,4.194c-0.598,5.225-1.284,12.158-1.368,14.21
		c0,0-0.172,3.509,0.426,5.137l7.964,3.938l-24.74,0.341c4.196-2.227,5.907-2.909,5.907-2.909c0.087,0,1.796-0.684,3.937-1.968
		l-0.257-19.776l-10.014-5.305l18.832-0.343c-0.085,0.772-0.173,1.968-0.173,1.968c1.884-1.026,5.735-2.651,10.187-2.651
		c8.56,0,11.641,5.903,12.495,11.551c-0.085,0,1.029,7.022,0.431,16.094l8.217,4.626L298.732,77.133z"/>
	<path fill="#822D0D" stroke="#6A0054" stroke-width="2.7799" stroke-linecap="round" stroke-linejoin="round" d="M318.076,61.009
		c0-5.994,6.339-16.521,22.258-16.521c7.533,0,15.665,4.793,15.665,14.04c0,10.014-6.249,18.83-21.742,18.83
		c-10.445,0-16.265-8.217-16.265-16.349H318.076L318.076,61.009z M336.48,48.513c-4.792,0-10.442,3.768-10.442,12.586
		c0,8.301,5.051,11.896,10.868,11.896c4.965,0,11.47-2.567,11.47-12.242c0-6.59-4.023-12.24-11.811-12.24H336.48z"/>
	<path fill="#822D0D" stroke="#6A0054" stroke-width="2.7799" stroke-linecap="round" stroke-linejoin="round" d="M251.11,62.504
		c-6.335-17.976-14.126-17.976-14.126-17.976c-8.13,0-12.068,7.789-12.068,15.58c0,7.876,2.738,15.836,11.127,15.836
		c0,0,8.388,0,11.298-7.276l4.624,1.629c-2.311,7.872-15.492,7.872-15.492,7.872c-9.504,0-20.031-5.477-20.031-18.061
		c-0.085-12.665,13.524-17.89,18.918-17.89c0,0,5.394,0,12.327,3.939l5.734-4.45L251.11,62.504z"/>
	<polygon fill="#642265" points="279.567,20.018 283.131,21.164 281.732,18.869 278.544,17.977 	"/>
	
		<linearGradient id="SVGID_1_" gradientUnits="userSpaceOnUse" x1="-125.9985" y1="672.7124" x2="-125.9985" y2="705.1899" gradientTransform="matrix(1 0 0 1 388 -667)">
		<stop  offset="0" style="stop-color:#C784A4"/>
		<stop  offset="0.1996" style="stop-color:#C17D9D"/>
		<stop  offset="0.4676" style="stop-color:#B36D8E"/>
		<stop  offset="0.7731" style="stop-color:#9F5579"/>
		<stop  offset="1" style="stop-color:#8E4067"/>
	</linearGradient>
	
		<circle fill="url(#SVGID_1_)" stroke="#6A0054" stroke-width="1.39" stroke-linecap="round" stroke-linejoin="round" cx="262.002" cy="21.952" r="16.239"/>
	<path fill="none" stroke="#6A0054" stroke-width="4.1698" stroke-linecap="round" stroke-linejoin="round" d="M51.093,70.7
		l9.932,2.312l-14.039,4.025c-6.164-14.214-9.758-16.524-9.758-16.524c-2.311-1.368-5.735-1.368-7.532-1.282
		c-0.943,0.941-1.799,1.797-2.483,2.479l-0.342,7.964l8.389,4.447H12.574l8.217-4.447l-1.112-41.857l-9.332-3.938l18.148-1.455
		L27.298,58.63l12.326-12.839l14.638-1.026c-8.389,3.168-10.443,3.852-10.443,3.852c-1.968,0.773-4.622,2.227-6.506,3.679
		c-0.684,0.514-2.397,2.057-4.367,3.854c2.054,0.084,7.19,0.253,9.416,1.797C42.362,57.946,45.872,60.425,51.093,70.7z"/>
	<path fill="none" stroke="#6A0054" stroke-width="4.1698" stroke-linecap="round" stroke-linejoin="round" d="M64.702,45.584
		c0.944,0.944,0.944,2.912,0.944,2.912c0,1.969-2.31,4.108-4.88,4.108c-2.739,0-3.937-1.969-4.023-3.852
		c0-1.968,6.592-10.1,19.43-10.1c9.501,0,14.04,9.5,13.61,15.405c0,0,0,3.51-1.112,15.494l8.304,4.107l-16.435,2.652l0.598-3.677
		c-6.333,1.54-11.382,1.54-11.382,1.627c-1.968,0-14.295-0.43-14.383-7.705c0-7.364,7.191-11.555,16.353-11.043
		c0,0,9.413,0,10.101,0.602c1.969-14.895-7.277-14.895-7.277-14.895s-8.301,0-9.843,4.45v-0.086H64.702z M81.566,65.101
		c0-1.284,0-0.856,0-4.11c0-3.163-5.222-3.85-8.133-3.85c-2.911,0-9.415,0.856-9.415,7.534c0,4.965,5.049,6.761,8.132,6.761
		C81.993,71.435,81.566,66.386,81.566,65.101z"/>
	<path fill="none" stroke="#6A0054" stroke-width="4.1698" stroke-linecap="round" stroke-linejoin="round" d="M135.066,58.604
		c0,10.874-8.818,16.094-18.233,16.094c-4.196,0-7.19-1.025-9.245-2.227l0.172,13.185l11.983,5.134l-29.103,1.113l10.7-6.247
		L99.46,48.332l-13.443-4.79l21.401-2.399l0.086,5.734c1.968-1.024,5.822-2.567,11.298-2.567
		C127.275,44.311,135.066,49.362,135.066,58.604z M107.586,64.34c0,4.367,3.425,7.448,9.244,7.448
		c6.248,0,10.271-4.967,10.271-12.926c0-7.876-5.821-11.642-10.186-11.642c-3.51,0-9.501,3.595-9.414,10.358L107.586,64.34z"/>
	<path fill="none" stroke="#6A0054" stroke-width="4.1698" stroke-linecap="round" stroke-linejoin="round" d="M173.864,58.604
		c0,10.874-8.817,16.094-18.231,16.094c-4.194,0-7.191-1.025-9.244-2.227l0.171,13.185l11.984,5.134l-29.105,1.113l10.703-6.247
		l-1.885-37.324l-13.439-4.79l21.4-2.399l0.085,5.734c1.968-1.024,5.822-2.567,11.3-2.567
		C166.075,44.311,173.864,49.362,173.864,58.604z M146.387,64.34c0,4.367,3.423,7.448,9.244,7.448
		c6.248,0,10.272-4.967,10.272-12.926c0-7.876-5.822-11.642-10.187-11.642c-3.51,0-9.5,3.595-9.416,10.358L146.387,64.34z"/>
	<path fill="none" stroke="#6A0054" stroke-width="4.1698" stroke-linecap="round" stroke-linejoin="round" d="M184.793,45.584
		c0.944,0.944,0.944,2.912,0.944,2.912c0,1.969-2.312,4.108-4.879,4.108c-2.74,0-3.937-1.969-4.025-3.852
		c0-1.968,6.592-10.1,19.432-10.1c9.502,0,14.038,9.5,13.61,15.405c0,0,0,3.51-1.113,15.494l8.303,4.107l-16.435,2.652l0.602-3.677
		c-6.335,1.54-11.386,1.54-11.386,1.627c-1.97,0-14.295-0.43-14.383-7.705c0-7.364,7.191-11.555,16.354-11.043
		c0,0,9.414,0,10.099,0.602c1.972-14.895-7.274-14.895-7.274-14.895s-8.303,0-9.847,4.45L184.793,45.584L184.793,45.584z
		 M201.66,65.101c0-1.284,0-0.856,0-4.11c0-3.163-5.224-3.85-8.133-3.85c-2.912,0-9.416,0.856-9.416,7.534
		c0,4.965,5.051,6.761,8.133,6.761C202.084,71.435,201.66,66.386,201.66,65.101z"/>
	<path fill="none" stroke="#6A0054" stroke-width="4.1698" stroke-linecap="round" stroke-linejoin="round" d="M249.055,60.583
		c-6.334-17.973-14.123-17.973-14.123-17.973c-8.131,0-12.07,7.788-12.07,15.577c0,7.877,2.74,15.837,11.127,15.837
		c0,0,8.389,0,11.3-7.276l4.622,1.627c-2.308,7.876-15.49,7.876-15.49,7.876c-9.501,0-20.029-5.479-20.029-18.062
		C214.304,45.523,227.915,40.3,233.307,40.3c0,0,5.396,0,12.326,3.938l5.735-4.452L249.055,60.583z"/>
	<path fill="none" stroke="#6A0054" stroke-width="4.1698" stroke-linecap="round" stroke-linejoin="round" d="M267.769,43.501
		l-1.368,26.45l7.359,5.051l-21.397-0.427l8.046-4.965l-1.111-22.257l-8.134-3.852H267.769L267.769,43.501z"/>
	<path fill="none" stroke="#6A0054" stroke-width="4.1698" stroke-linecap="round" stroke-linejoin="round" d="M296.678,75.211
		l7.534-4.62c4.622-23.884-6.078-23.884-6.078-23.884c-4.537,0-7.705,2.312-9.502,4.192c-0.598,5.225-1.284,12.158-1.37,14.213
		c0,0-0.171,3.507,0.429,5.136l7.964,3.936l-24.741,0.343c4.194-2.227,5.909-2.91,5.909-2.91c0.084,0,1.796-0.685,3.936-1.969
		l-0.257-19.774l-10.014-5.307l18.832-0.342c-0.088,0.772-0.176,1.969-0.176,1.969c1.885-1.027,5.738-2.652,10.189-2.652
		c8.56,0,11.641,5.904,12.495,11.555c-0.086,0,1.029,7.019,0.43,16.094l8.217,4.622L296.678,75.211z"/>
	<path fill="none" stroke="#6A0054" stroke-width="4.1698" stroke-linecap="round" stroke-linejoin="round" d="M316.024,59.09
		c0-5.994,6.337-16.52,22.256-16.52c7.534,0,15.667,4.792,15.667,14.039c0,10.016-6.249,18.832-21.741,18.832
		c-10.445,0-16.266-8.217-16.266-16.349h0.084V59.09z M334.426,46.59c-4.79,0-10.441,3.767-10.441,12.584
		c0,8.303,5.05,11.899,10.869,11.899c4.965,0,11.47-2.569,11.47-12.24c0-6.592-4.022-12.243-11.812-12.243H334.426L334.426,46.59z"
		/>
	<path fill="#642265" d="M171.969,86.215c0.665-0.555,1.44-0.886,2.547-0.886c1.882,0.108,2.988,0.886,3.211,2.435
		c0.776-0.331,1.772-0.551,2.88-0.666c-0.666-1.992-2.546-3.098-5.648-3.431c-1.771,0-2.991,0.222-4.207,1.107
		c-0.89,0.555-1.44,1.331-1.883,2.215c-0.886,2.104-0.667,3.876,0.443,5.315c1.107,1.551,2.99,2.215,5.646,2.215
		c2.88,0,4.874-1.104,5.981-3.213c-0.776-0.218-1.661-0.553-2.657-0.886c-0.666,1.553-1.884,2.437-3.437,2.548
		c-1.217,0-2.103-0.333-2.879-1.109c-0.885-0.996-1.216-2.215-0.996-3.654C171.083,87.433,171.415,86.771,171.969,86.215z"/>
	<path fill="#642265" d="M200.429,87.433c1-0.111,1.994-0.22,2.772-0.22c0-1.553-0.667-2.768-2.107-3.213
		c-2.216-0.89-4.541-0.553-6.864,0.998v-1.551c-1.107,0.22-1.993,0.22-2.77,0.442c0.443,3.874,0.555,7.419,0.555,10.742
		c0.884-0.112,1.658-0.333,2.215-0.443v-7.091c1.883-1.438,3.432-2.1,4.761-1.655C199.876,85.661,200.429,86.328,200.429,87.433z"/>
	<path fill="#642265" d="M215.937,84.775c-0.998,0.666-1.661,1.44-1.994,2.323c-0.888,1.997-0.776,3.768,0.443,5.207
		c1.327,1.662,3.207,2.327,5.756,2.105c2.767-0.22,4.983-1.329,6.536-3.319c-0.776-0.337-1.553-0.555-2.547-0.89
		c-1.107,1.658-2.55,2.55-4.211,2.55c-1.216,0.106-2.327-0.339-2.991-0.997c-0.55-0.665-0.994-1.331-1.104-1.998
		c3.321-0.331,6.643-0.442,10.077-0.331c0.11-1.661-0.222-3.098-1.327-4.096c-0.998-0.886-2.551-1.44-4.321-1.44
		C218.595,83.775,217.156,84.112,215.937,84.775z M219.591,85.33c2.327,0,3.435,0.998,3.542,2.547l-7.196,0.222
		c0.111-0.665,0.549-1.327,1.104-1.771C217.708,85.661,218.595,85.33,219.591,85.33z"/>
	<path fill="#642265" d="M240.078,87.543c0.22-1.553,1.108-2.325,2.88-2.325c2.439,0.111,3.763,1.109,4.098,3.211
		c-1.105-0.443-2.547-0.665-4.209-0.553c-1.44,0-2.656,0.333-3.656,0.776c-1.547,0.774-2.104,1.66-2.104,2.991
		c0.222,1.105,0.776,1.881,1.882,2.545c1.109,0.666,2.549,0.998,4.431,0.888c1.329-0.22,2.438-0.444,3.323-0.888v0.666
		c0.888-0.111,1.664-0.223,2.437-0.223l-0.218-6.864c-0.222-3.213-2.327-4.653-6.311-4.318c-3.104,0.22-4.878,1.553-5.318,3.874
		C238.417,87.433,239.305,87.433,240.078,87.543z M245.06,89.647c1.111,0.335,1.771,0.555,1.884,1.107
		c0.111,0.555-0.224,1.22-0.994,1.658c-0.668,0.557-1.441,0.776-2.553,0.893c-2.211,0.22-3.431-0.336-3.65-1.441
		c-0.111-1.109,0.885-1.882,2.769-2.217C243.292,89.537,244.175,89.537,245.06,89.647z"/>
	<path fill="#642265" d="M261.12,83.889l-1.437,0.223c0.107,0.663,0,1.218-0.112,1.657l1.327-0.108l-0.22,4.541
		c-0.109,1.105,0.22,2.104,0.776,2.878c0.555,0.776,1.329,1.22,2.214,1.44c3.323,0.665,4.874-0.553,4.762-3.656
		c-0.884,0-1.771,0-2.547-0.218c0.112,1.659-0.333,2.323-1.215,2.323c-1.111-0.111-1.772-0.995-1.772-2.323
		c0-1.219,0.22-2.993,0.441-5.095l3.656-0.111c0-0.665,0.221-1.328,0.221-1.996l-3.657,0.333l0.446-4.315
		c-1.107,0.22-1.994,0.332-2.88,0.332C261.233,80.788,261.233,82.228,261.12,83.889z"/>
	<path fill="#642265" d="M282.164,83.889c-1.107,0-1.994,0.111-2.771,0.223c0.222,3.763,0.222,7.197,0,10.408
		c1.002-0.333,1.663-0.442,2.329-0.442C281.718,91.309,281.944,87.986,282.164,83.889z"/>
	<path fill="#642265" d="M299.437,83.667c-1.884,0.107-3.435,0.776-4.76,1.993c-1.442,1.331-1.884,2.992-1.442,4.985
		c0.666,2.543,2.881,3.765,6.869,3.653c1.769,0,3.431-0.439,4.762-1.438c1.439-1.109,2.102-2.66,2.214-4.433
		c0-1.658-0.556-2.769-1.885-3.654C303.756,83.889,301.875,83.555,299.437,83.667z M299.882,85.33c1.442,0,2.437,0.224,3.325,0.886
		c0.884,0.556,1.437,1.551,1.325,2.771c-0.218,2.434-1.769,3.764-4.427,3.876c-0.998,0-1.886-0.333-2.658-0.665
		c-0.891-0.553-1.443-1.331-1.663-2.107c-0.22-1.327,0-2.437,0.774-3.32C297.448,85.771,298.551,85.33,299.882,85.33z"/>
	<path fill="#642265" d="M329.562,87.986c-0.222-2.215-0.887-3.652-2.545-4.209c-1.886-0.662-4.211-0.22-6.646,1.224v-1.663
		c-0.889,0.22-1.771,0.33-2.659,0.33c0.443,3.876,0.555,7.533,0.112,10.856c0.884,0,1.771-0.222,2.878-0.222
		c0-0.886,0-3.437-0.333-7.418c0.775-0.445,1.66-0.889,2.548-1.22c0.994-0.331,1.884-0.443,2.436-0.331
		c1.107,0.222,1.662,1.329,1.662,3.323c0,1.329-0.331,3.1-0.89,5.536c0.998,0,1.993,0.109,2.77,0.333
		C329.34,91.309,329.562,89.094,329.562,87.986z"/>
	<path fill="#642265" d="M342.854,87.098c0-0.438,0.22-0.771,0.776-1.216c0.549-0.329,1.105-0.553,1.882-0.664
		c1.99-0.22,3.431,0.22,3.874,1.551c1.105-0.334,2.102-0.441,3.098-0.441c-0.22-0.89-1.107-1.553-2.212-2.107
		c-1.331-0.553-2.987-0.776-5.095-0.553c-1.884,0.222-3.437,0.776-4.208,1.662c-0.666,0.776-0.888,1.549-0.553,2.545
		c0.441,0.888,0.996,1.551,1.996,1.882c1.105,0.443,2.545,0.443,4.317,0c2.987-0.662,4.427-0.218,4.427,0.998
		c-0.11,1.444-1.214,2.215-3.317,2.327c-2.22,0.22-3.769-0.557-4.433-1.994c-0.994,0.22-1.994,0.665-2.771,0.887
		c0.335,1.215,1.331,1.993,2.992,2.437c1.329,0.443,2.766,0.443,4.542,0.22c3.543-0.443,5.427-1.661,5.534-3.984
		c0.224-1.221-0.329-2.108-1.437-2.55c-1.002-0.553-2.551-0.553-4.427,0C344.512,88.984,342.854,88.541,342.854,87.098z"/>
	
		<linearGradient id="SVGID_2_" gradientUnits="userSpaceOnUse" x1="-352.314" y1="689.4224" x2="-352.314" y2="744.0366" gradientTransform="matrix(1 0 0 1 388 -667)">
		<stop  offset="0" style="stop-color:#C784A4"/>
		<stop  offset="1" style="stop-color:#8E4067"/>
	</linearGradient>
	<path fill="url(#SVGID_2_)" d="M51.093,70.7l9.932,2.312l-14.039,4.025c-6.164-14.214-9.758-16.524-9.758-16.524
		c-2.311-1.368-5.735-1.368-7.532-1.282c-0.943,0.941-1.799,1.797-2.483,2.479l-0.342,7.964l8.389,4.447H12.574l8.217-4.447
		l-1.112-41.857l-9.332-3.938l18.148-1.455L27.298,58.63l12.326-12.839l14.638-1.026c-8.389,3.168-10.443,3.852-10.443,3.852
		c-1.968,0.773-4.622,2.227-6.506,3.679c-0.684,0.514-2.397,2.057-4.367,3.854c2.054,0.084,7.19,0.253,9.416,1.797
		C42.362,57.946,45.872,60.425,51.093,70.7z"/>
	
		<linearGradient id="SVGID_3_" gradientUnits="userSpaceOnUse" x1="-311.8271" y1="705.6519" x2="-311.8271" y2="743.312" gradientTransform="matrix(1 0 0 1 388 -667)">
		<stop  offset="0" style="stop-color:#C784A4"/>
		<stop  offset="1" style="stop-color:#8E4067"/>
	</linearGradient>
	<path fill="url(#SVGID_3_)" d="M64.702,45.584c0.944,0.944,0.944,2.912,0.944,2.912c0,1.969-2.31,4.108-4.88,4.108
		c-2.739,0-3.937-1.969-4.023-3.852c0-1.968,6.592-10.1,19.43-10.1c9.501,0,14.04,9.5,13.61,15.405c0,0,0,3.51-1.112,15.494
		l8.304,4.107l-16.435,2.652l0.598-3.677c-6.333,1.54-11.382,1.54-11.382,1.627c-1.968,0-14.295-0.43-14.383-7.705
		c0-7.364,7.191-11.555,16.353-11.043c0,0,9.413,0,10.101,0.602c1.969-14.895-7.277-14.895-7.277-14.895s-8.301,0-9.843,4.45v-0.086
		H64.702z M81.566,65.101c0-1.284,0-0.856,0-4.11c0-3.163-5.222-3.85-8.133-3.85c-2.911,0-9.415,0.856-9.415,7.534
		c0,4.965,5.049,6.761,8.132,6.761C81.993,71.435,81.566,66.386,81.566,65.101z"/>
	
		<linearGradient id="SVGID_4_" gradientUnits="userSpaceOnUse" x1="-277.4585" y1="708.1421" x2="-277.4585" y2="758.9028" gradientTransform="matrix(1 0 0 1 388 -667)">
		<stop  offset="0" style="stop-color:#C784A4"/>
		<stop  offset="1" style="stop-color:#8E4067"/>
	</linearGradient>
	<path fill="url(#SVGID_4_)" d="M135.066,58.604c0,10.874-8.818,16.094-18.233,16.094c-4.196,0-7.19-1.025-9.245-2.227l0.172,13.185
		l11.983,5.134l-29.103,1.113l10.7-6.247L99.46,48.332l-13.443-4.79l21.401-2.399l0.086,5.734c1.968-1.024,5.822-2.567,11.298-2.567
		C127.275,44.311,135.066,49.362,135.066,58.604z M107.586,64.34c0,4.367,3.425,7.448,9.244,7.448
		c6.248,0,10.271-4.967,10.271-12.926c0-7.876-5.821-11.642-10.186-11.642c-3.51,0-9.501,3.595-9.414,10.358L107.586,64.34z"/>
	
		<linearGradient id="SVGID_5_" gradientUnits="userSpaceOnUse" x1="-238.6592" y1="708.1421" x2="-238.6592" y2="758.9028" gradientTransform="matrix(1 0 0 1 388 -667)">
		<stop  offset="0" style="stop-color:#C784A4"/>
		<stop  offset="1" style="stop-color:#8E4067"/>
	</linearGradient>
	<path fill="url(#SVGID_5_)" d="M173.864,58.604c0,10.874-8.817,16.094-18.231,16.094c-4.194,0-7.191-1.025-9.244-2.227
		l0.171,13.185l11.984,5.134l-29.105,1.113l10.703-6.247l-1.885-37.324l-13.439-4.79l21.4-2.399l0.085,5.734
		c1.968-1.024,5.822-2.567,11.3-2.567C166.075,44.311,173.864,49.362,173.864,58.604z M146.387,64.34
		c0,4.367,3.423,7.448,9.244,7.448c6.248,0,10.272-4.967,10.272-12.926c0-7.876-5.822-11.642-10.187-11.642
		c-3.51,0-9.5,3.595-9.416,10.358L146.387,64.34z"/>
	
		<linearGradient id="SVGID_6_" gradientUnits="userSpaceOnUse" x1="-191.7363" y1="705.6519" x2="-191.7363" y2="743.312" gradientTransform="matrix(1 0 0 1 388 -667)">
		<stop  offset="0" style="stop-color:#C784A4"/>
		<stop  offset="1" style="stop-color:#8E4067"/>
	</linearGradient>
	<path fill="url(#SVGID_6_)" d="M184.793,45.584c0.944,0.944,0.944,2.912,0.944,2.912c0,1.969-2.312,4.108-4.879,4.108
		c-2.74,0-3.937-1.969-4.025-3.852c0-1.968,6.592-10.1,19.432-10.1c9.502,0,14.038,9.5,13.61,15.405c0,0,0,3.51-1.113,15.494
		l8.303,4.107l-16.435,2.652l0.602-3.677c-6.335,1.54-11.386,1.54-11.386,1.627c-1.97,0-14.295-0.43-14.383-7.705
		c0-7.364,7.191-11.555,16.354-11.043c0,0,9.414,0,10.099,0.602c1.972-14.895-7.274-14.895-7.274-14.895s-8.303,0-9.847,4.45
		L184.793,45.584L184.793,45.584z M201.66,65.101c0-1.284,0-0.856,0-4.11c0-3.163-5.224-3.85-8.133-3.85
		c-2.912,0-9.416,0.856-9.416,7.534c0,4.965,5.051,6.761,8.133,6.761C202.084,71.435,201.66,66.386,201.66,65.101z"/>
	
		<linearGradient id="SVGID_7_" gradientUnits="userSpaceOnUse" x1="-125.5386" y1="710.5005" x2="-125.5386" y2="742.0015" gradientTransform="matrix(1 0 0 1 388 -667)">
		<stop  offset="0" style="stop-color:#C784A4"/>
		<stop  offset="1" style="stop-color:#8E4067"/>
	</linearGradient>
	<path fill="url(#SVGID_7_)" d="M267.769,43.501l-1.368,26.45l7.359,5.051l-21.397-0.427l8.046-4.965l-1.111-22.257l-8.134-3.852
		H267.769L267.769,43.501z"/>
	
		<linearGradient id="SVGID_8_" gradientUnits="userSpaceOnUse" x1="-92.519" y1="710.5415" x2="-92.519" y2="742.813" gradientTransform="matrix(1 0 0 1 388 -667)">
		<stop  offset="0" style="stop-color:#C784A4"/>
		<stop  offset="1" style="stop-color:#8E4067"/>
	</linearGradient>
	<path fill="url(#SVGID_8_)" d="M296.678,75.211l7.534-4.62c4.622-23.884-6.078-23.884-6.078-23.884
		c-4.537,0-7.705,2.312-9.502,4.192c-0.598,5.225-1.284,12.158-1.37,14.213c0,0-0.171,3.507,0.429,5.136l7.964,3.936l-24.741,0.343
		c4.194-2.227,5.909-2.91,5.909-2.91c0.084,0,1.796-0.685,3.936-1.969l-0.257-19.774l-10.014-5.307l18.832-0.342
		c-0.088,0.772-0.176,1.969-0.176,1.969c1.885-1.027,5.738-2.652,10.189-2.652c8.56,0,11.641,5.904,12.495,11.555
		c-0.086,0,1.029,7.019,0.43,16.094l8.217,4.622L296.678,75.211z"/>
	
		<linearGradient id="SVGID_9_" gradientUnits="userSpaceOnUse" x1="-53.0571" y1="709.5698" x2="-53.0571" y2="742.4409" gradientTransform="matrix(1 0 0 1 388 -667)">
		<stop  offset="0" style="stop-color:#C784A4"/>
		<stop  offset="1" style="stop-color:#8E4067"/>
	</linearGradient>
	<path fill="url(#SVGID_9_)" d="M316.024,59.09c0-5.994,6.337-16.52,22.256-16.52c7.534,0,15.667,4.792,15.667,14.039
		c0,10.016-6.249,18.832-21.741,18.832c-10.445,0-16.266-8.217-16.266-16.349h0.084V59.09z M334.426,46.59
		c-4.79,0-10.441,3.767-10.441,12.584c0,8.303,5.05,11.899,10.869,11.899c4.965,0,11.47-2.569,11.47-12.24
		c0-6.592-4.022-12.243-11.812-12.243H334.426L334.426,46.59z"/>
	
		<linearGradient id="SVGID_10_" gradientUnits="userSpaceOnUse" x1="-155.1211" y1="706.7866" x2="-155.1211" y2="743.2505" gradientTransform="matrix(1 0 0 1 388 -667)">
		<stop  offset="0" style="stop-color:#C784A4"/>
		<stop  offset="1" style="stop-color:#8E4067"/>
	</linearGradient>
	<path fill="url(#SVGID_10_)" d="M249.055,60.583c-6.334-17.973-14.123-17.973-14.123-17.973c-8.131,0-12.07,7.788-12.07,15.577
		c0,7.877,2.74,15.837,11.127,15.837c0,0,8.389,0,11.3-7.276l4.622,1.627c-2.308,7.876-15.49,7.876-15.49,7.876
		c-9.501,0-20.029-5.479-20.029-18.062C214.304,45.523,227.915,40.3,233.307,40.3c0,0,5.396,0,12.326,3.938l5.735-4.452
		L249.055,60.583z"/>
	<polyline opacity="0.99" fill="#F7A5AA" enable-background="new    " points="10.192,23.717 11.907,23.603 28.476,22.233 
		27.98,24.312 18.966,25.403 22.434,27.879 23.424,68.989 15.794,74.369 12.706,74.255 20.938,69.454 19.455,27.948 	"/>
	<polygon opacity="0.99" fill="#F7A5AA" enable-background="new    " points="27.457,58.363 39.577,45.556 54.442,44.641 
		40.149,46.701 	"/>
	<path opacity="0.99" fill="#F7A5AA" enable-background="new    " d="M33.19,56.121c0,0,7.208,0.098,9.317,1.91
		c0,0,4.558,4.122,8.579,12.653l10.002,2.206L50.45,71.664C50.452,71.664,45.889,57.151,33.19,56.121z"/>
	<path opacity="0.99" fill="#F7A5AA" enable-background="new    " d="M60.529,52.597c0,0-4.621,0.101-3.514-5.022
		c0,0,4.519-8.237,17.576-8.94c0,0,7.736-0.703,11.554,4.822l21.293-2.41v2.51L91.067,43.96l10.546,3.916l2.007,37.067
		l-10.746,7.031l-2.21,0.101l2.913-2.009l7.633-4.42l-1.808-37.267l-12.555-4.42l-1.507-0.402c0,0-6.229-6.528-15.47-3.215
		C60.629,43.658,56.712,47.876,60.529,52.597z"/>
	<path opacity="0.99" fill="#F7A5AA" enable-background="new    " d="M81.825,56.013c0,0-11.05-1.206-15.068-0.302
		c0,0-10.548,1.104-11.151,9.644c0,0-2.309,5.925,7.838,8.235c0,0-9.845-7.331-1.408-14.867
		C62.036,58.723,66.958,56.212,81.825,56.013z"/>
	<path opacity="0.99" fill="#F7A5AA" enable-background="new    " d="M81.105,72.831l-0.502,3.517l3.816-0.635
		C84.42,75.714,81.241,76.323,81.105,72.831z"/>
	<path opacity="0.99" fill="#F7A5AA" enable-background="new    " d="M206.663,43.959l-1.508-0.402c0,0-6.226-6.528-15.469-3.215
		c-9.241,3.315-13.158,7.534-9.341,12.255c0,0-4.621,0.101-3.515-5.022c0,0,4.518-8.237,17.579-8.94c0,0,7.731-0.703,11.55,4.822"/>
	<path opacity="0.99" fill="#F7A5AA" enable-background="new    " d="M210.765,43.959"/>
	<path opacity="0.99" fill="#F7A5AA" enable-background="new    " d="M201.701,56.186c0,0-11.048-1.204-15.067-0.302
		c0,0-10.55,1.104-11.153,9.644c0,0-2.309,5.926,7.835,8.239c0,0-9.843-7.331-1.406-14.867
		C181.91,58.899,186.834,56.387,201.701,56.186z"/>
	<path opacity="0.99" fill="#F7A5AA" enable-background="new    " d="M201.172,72.885l-0.503,3.518l4.064-0.709
		C204.734,75.698,202.779,75.926,201.172,72.885z"/>
	<path opacity="0.99" fill="#F7A5AA" enable-background="new    " d="M121.602,48.379c0,0,5.926,3.815,5.422,10.947
		c0,0-1.303,9.241-5.021,11.051C122.003,70.377,139.984,58.924,121.602,48.379z"/>
	<polyline opacity="0.99" fill="#F7A5AA" enable-background="new    " points="124.915,43.457 146.211,41.046 146.211,43.557 
		129.835,43.959 140.384,47.876 142.395,84.941 131.645,91.972 129.435,92.073 132.347,90.064 139.983,85.644 138.175,48.379 
		125.618,43.959 124.111,43.557 	"/>
	<path opacity="0.99" fill="#F7A5AA" enable-background="new    " d="M160.374,48.379c0,0,5.928,3.815,5.425,10.947
		c0,0-1.306,9.241-5.022,11.051C160.776,70.377,178.755,58.924,160.374,48.379z"/>
	<path opacity="0.99" fill="#F7A5AA" enable-background="new    " d="M251.248,39.818l-5.486,4.319c0,0-10.395-7.354-20.319-1.75
		c0,0-12.262,4.321-10.978,17.168c0,0-0.351,11.559,12.729,15.764c0,0-20.437-12.61-4.79-29.428c0,0,12.03-9.11,23.359,0
		l5.369-3.969L251.248,39.818z"/>
	<path opacity="0.99" fill="#F7A5AA" enable-background="new    " d="M250.081,68.43l-4.669-1.752c0,0-3.621,7.009-10.511,7.126
		c0,0,9.691-0.819,10.978-6.189l3.97,1.517L250.081,68.43z"/>
	<polygon opacity="0.99" fill="#F7A5AA" enable-background="new    " points="251.48,43.674 259.307,47.526 260.359,69.484 
		252.534,74.153 252.534,74.735 261.875,70.417 261.409,46.708 256.97,44.491 267.598,44.959 267.948,43.207 252.182,43.557 	"/>
	<polygon opacity="0.99" fill="#F7A5AA" enable-background="new    " points="289.405,44.041 270.525,44.547 280.676,49.864 
		280.795,69.716 272.386,73.57 273.436,74.385 282.312,70.066 281.962,48.813 275.305,45.426 289.322,45.054 	"/>
	<path opacity="0.99" fill="#F7A5AA" enable-background="new    " d="M296.658,75.23l7.501-4.721c0,0,5.058-20.399-5.562-23.771
		c0,0,12.389-1.013,7.163,23.516l-6.828,4.973h-2.273V75.23z"/>
	<path opacity="0.99" fill="#F7A5AA" enable-background="new    " d="M289.493,45.981c0,0,8.934-4.722,15.932-1.097
		c0,0,4.047,2.108,5.056,5.395C310.48,50.279,303.317,41.43,289.493,45.981z"/>
	<path opacity="0.99" fill="#F7A5AA" enable-background="new    " d="M332.567,43.151c0,0-11.777,1.229-15.576,11.406
		c0,0-5.766,14.104,10.916,20.485c0,0,9.442,1.227,14.718-1.227c0,0-17.415,3.312-23.181-7.484
		C319.444,66.333,311.716,53.333,332.567,43.151z"/>
	<path opacity="0.99" fill="#F7A5AA" enable-background="new    " d="M341.645,48.792c0,0,5.028,3.803,4.664,10.674
		c0,0,0.195,5.799-5.069,10.116C341.24,69.583,356.366,60.57,341.645,48.792z"/>
	<path opacity="0.99" fill="#F7A5AA" enable-background="new    " d="M257.974,6.879c0,0-6.464,1.917-8.701,6.066
		c0,0-5.665,6.785-1.037,16.203c0,0,3.513,8.142,13.968,8.46C262.206,37.608,239.697,26.115,257.974,6.879z"/>
	<ellipse fill="#C784A4" stroke="#6A0054" stroke-width="1.39" cx="262.002" cy="29.031" rx="8.531" ry="3.577"/>
	<circle fill="#642265" cx="253.472" cy="23.328" r="2.341"/>
	<circle fill="#642265" cx="270.807" cy="23.327" r="2.339"/>
	<polygon fill="#8A2873" stroke="#6A0054" stroke-width="1.39" stroke-linecap="round" stroke-linejoin="round" points="
		247.078,13.708 243.226,18.937 252.032,16.186 256.147,19.526 259.739,16.46 263.59,19.487 266.343,15.361 271.846,19.487 
		272.949,16.186 281.177,19.138 276.663,13.432 	"/>
	<polygon opacity="0.99" fill="#F7A5AA" enable-background="new    " points="245.283,17.733 247.439,14.141 249.354,14.219 	"/>
	<polygon opacity="0.99" fill="#F7A5AA" enable-background="new    " points="252.547,15.657 256.218,18.768 256.937,18.053 
		253.264,15.018 	"/>
	<polygon opacity="0.99" fill="#F7A5AA" enable-background="new    " points="260.29,16.136 263.64,18.69 261.485,15.257 	"/>
	<polygon opacity="0.99" fill="#F7A5AA" enable-background="new    " points="266.994,14.699 271.463,18.21 271.782,17.254 	"/>
	<polygon opacity="0.99" fill="#F7A5AA" enable-background="new    " points="273.218,15.417 279.366,17.811 274.736,14.699 	"/>
	<circle opacity="0.99" fill="#F7A5AA" enable-background="new    " cx="253.385" cy="23.28" r="1.397"/>
	<circle opacity="0.99" fill="#F7A5AA" enable-background="new    " cx="270.706" cy="23.279" r="1.398"/>
	<circle opacity="0.71" fill="#642265" enable-background="new    " cx="253.424" cy="23.241" r="1.037"/>
	<circle opacity="0.71" fill="#642265" enable-background="new    " cx="270.745" cy="23.241" r="1.037"/>
	<circle fill="#FFFFFF" cx="253.506" cy="22.522" r="0.838"/>
	<circle fill="#FFFFFF" cx="270.584" cy="22.521" r="0.84"/>
	<path opacity="0.78" fill="#FFFFFF" enable-background="new    " d="M260.585,26.198c0,0-6.571,0.62-6.415,3.101
		c0,0,0.672,2.64,8.794,2.692C262.964,31.991,250.549,30.233,260.585,26.198z"/>
</g>
</svg>
