<?xml version="1.0" encoding="utf-8"?>
<!-- Generator: Adobe Illustrator 16.0.0, SVG Export Plug-In . SVG Version: 6.00 Build 0)  -->
<!DOCTYPE svg PUBLIC "-//W3C//DTD SVG 1.1//EN" "http://www.w3.org/Graphics/SVG/1.1/DTD/svg11.dtd">
<svg version="1.1" xmlns="http://www.w3.org/2000/svg" xmlns:xlink="http://www.w3.org/1999/xlink" x="0px" y="0px"
	 width="363.149px" height="104.417px" viewBox="0 0 363.149 104.417" enable-background="new 0 0 363.149 104.417"
	 xml:space="preserve">
<g id="Layer_10">
</g>
<g id="Layer_9">
</g>
<g id="Layer_5">
	<circle fill="#004A1C" cx="263.011" cy="24.817" r="16.054"/>
	<path fill="#004A1C" stroke="#004A1C" stroke-width="2.7485" stroke-linecap="round" stroke-linejoin="round" d="M54.537,74.256
		l9.818,2.286l-13.88,3.978c-6.094-14.05-9.649-16.334-9.649-16.334c-2.284-1.355-5.67-1.355-7.446-1.27
		c-0.932,0.932-1.778,1.776-2.455,2.453l-0.338,7.872l8.294,4.399H16.452l8.125-4.399l-1.101-41.386l-9.226-3.893l17.943-1.439
		l-1.185,35.799l12.187-12.694l14.473-1.016c-8.294,3.133-10.325,3.809-10.325,3.809c-1.946,0.763-4.57,2.201-6.432,3.64
		c-0.678,0.508-2.37,2.032-4.317,3.809c2.03,0.084,7.109,0.253,9.31,1.777C45.904,61.647,49.375,64.1,54.537,74.256z"/>
	<path fill="#004A1C" stroke="#004A1C" stroke-width="2.7485" stroke-linecap="round" stroke-linejoin="round" d="M67.992,49.426
		c0.932,0.93,0.932,2.877,0.932,2.877c0,1.946-2.284,4.062-4.823,4.062c-2.709,0-3.894-1.946-3.979-3.809
		c0-1.946,6.518-9.985,19.212-9.985c9.394,0,13.879,9.394,13.456,15.232c0,0,0,3.471-1.101,15.319l8.21,4.062l-16.25,2.622
		l0.592-3.638c-6.262,1.522-11.256,1.522-11.256,1.608c-1.945,0-14.133-0.424-14.219-7.617c0-7.279,7.11-11.426,16.166-10.919
		c0,0,9.309,0,9.986,0.594c1.947-14.727-7.194-14.727-7.194-14.727s-8.208,0-9.732,4.4V49.426z M84.666,68.722
		c0-1.27,0-0.847,0-4.063c0-3.13-5.163-3.809-8.041-3.809c-2.877,0-9.31,0.848-9.31,7.448c0,4.909,4.992,6.686,8.04,6.686
		C85.087,74.984,84.666,69.992,84.666,68.722z"/>
	<path fill="#004A1C" stroke="#004A1C" stroke-width="2.7485" stroke-linecap="round" stroke-linejoin="round" d="M137.56,62.299
		c0,10.749-8.718,15.911-18.027,15.911c-4.147,0-7.109-1.015-9.141-2.201l0.169,13.034l11.849,5.078l-28.774,1.101l10.579-6.179
		l-1.861-36.899l-13.289-4.739l21.159-2.37l0.086,5.669c1.945-1.015,5.754-2.538,11.171-2.538
		C129.858,48.166,137.56,53.16,137.56,62.299z M110.392,67.97c0,4.316,3.386,7.362,9.141,7.362c6.178,0,10.155-4.909,10.155-12.778
		c0-7.787-5.755-11.511-10.071-11.511c-3.47,0-9.394,3.555-9.308,10.241L110.392,67.97z"/>
	<path fill="#004A1C" stroke="#004A1C" stroke-width="2.7485" stroke-linecap="round" stroke-linejoin="round" d="M175.921,62.299
		c0,10.749-8.718,15.911-18.026,15.911c-4.147,0-7.11-1.015-9.141-2.201l0.169,13.034l11.849,5.078l-28.775,1.101l10.58-6.179
		l-1.862-36.899l-13.288-4.739l21.159-2.37l0.084,5.669c1.946-1.015,5.755-2.538,11.172-2.538
		C168.219,48.166,175.921,53.16,175.921,62.299z M148.754,67.97c0,4.316,3.386,7.362,9.141,7.362
		c6.178,0,10.155-4.909,10.155-12.778c0-7.787-5.755-11.511-10.072-11.511c-3.469,0-9.393,3.555-9.309,10.241L148.754,67.97z"/>
	<path fill="#004A1C" stroke="#004A1C" stroke-width="2.7485" stroke-linecap="round" stroke-linejoin="round" d="M186.727,49.426
		c0.932,0.93,0.932,2.877,0.932,2.877c0,1.946-2.284,4.062-4.823,4.062c-2.708,0-3.894-1.946-3.978-3.809
		c0-1.946,6.517-9.985,19.21-9.985c9.394,0,13.879,9.394,13.458,15.232c0,0,0,3.471-1.101,15.319l8.208,4.062l-16.25,2.622
		l0.594-3.638c-6.263,1.522-11.258,1.522-11.258,1.608c-1.945,0-14.131-0.424-14.217-7.617c0-7.279,7.109-11.426,16.166-10.919
		c0,0,9.309,0,9.984,0.594c1.949-14.727-7.193-14.727-7.193-14.727s-8.208,0-9.732,4.4V49.426z M203.401,68.722
		c0-1.27,0-0.847,0-4.063c0-3.13-5.164-3.809-8.042-3.809c-2.877,0-9.308,0.848-9.308,7.448c0,4.909,4.992,6.686,8.038,6.686
		C203.822,74.984,203.401,69.992,203.401,68.722z"/>
	<path fill="#004A1C" stroke="#004A1C" stroke-width="2.7485" stroke-linecap="round" stroke-linejoin="round" d="M268.763,47.365
		l-1.353,26.151l7.276,4.992l-21.158-0.423l7.955-4.908l-1.098-22.005l-8.041-3.808H268.763z"/>
	<path fill="#004A1C" stroke="#004A1C" stroke-width="2.7485" stroke-linecap="round" stroke-linejoin="round" d="M297.346,78.717
		l7.449-4.569c4.57-23.613-6.01-23.613-6.01-23.613c-4.484,0-7.618,2.287-9.394,4.146c-0.591,5.165-1.27,12.02-1.354,14.05
		c0,0-0.169,3.47,0.422,5.079l7.873,3.893l-24.46,0.339c4.147-2.201,5.841-2.878,5.841-2.878c0.086,0,1.776-0.676,3.892-1.945
		l-0.252-19.551l-9.901-5.248l18.619-0.338c-0.086,0.762-0.172,1.946-0.172,1.946c1.863-1.015,5.672-2.623,10.073-2.623
		c8.463,0,11.51,5.838,12.355,11.424c-0.084,0,1.018,6.941,0.424,15.911l8.125,4.571L297.346,78.717z"/>
	<path fill="#004A1C" stroke="#004A1C" stroke-width="2.7485" stroke-linecap="round" stroke-linejoin="round" d="M316.473,62.777
		c0-5.924,6.266-16.334,22.004-16.334c7.449,0,15.49,4.738,15.49,13.881c0,9.901-6.178,18.618-21.496,18.618
		c-10.326,0-16.08-8.125-16.08-16.165H316.473z M334.668,50.42c-4.736,0-10.322,3.725-10.322,12.442
		c0,8.208,4.992,11.763,10.746,11.763c4.91,0,11.342-2.539,11.342-12.103c0-6.517-3.979-12.103-11.68-12.103H334.668z"/>
	<path fill="#004A1C" stroke="#004A1C" stroke-width="2.7485" stroke-linecap="round" stroke-linejoin="round" d="M250.262,64.255
		C244,46.483,236.297,46.483,236.297,46.483c-8.039,0-11.934,7.702-11.934,15.402c0,7.787,2.708,15.658,11.002,15.658
		c0,0,8.294,0,11.171-7.195l4.571,1.609c-2.284,7.785-15.318,7.785-15.318,7.785c-9.395,0-19.803-5.416-19.803-17.857
		c-0.086-12.523,13.372-17.688,18.702-17.688c0,0,5.333,0,12.188,3.895l5.669-4.402L250.262,64.255z"/>
	<polygon fill="#004A1C" points="278.396,22.248 281.924,23.381 280.538,21.113 277.387,20.231 	"/>
	<linearGradient id="SVGID_1_" gradientUnits="userSpaceOnUse" x1="261.0312" y1="8.106" x2="261.0312" y2="40.2144">
		<stop  offset="0" style="stop-color:#8DC63F"/>
		<stop  offset="0.243" style="stop-color:#84BD3E"/>
		<stop  offset="0.5692" style="stop-color:#6EAB3E"/>
		<stop  offset="0.9414" style="stop-color:#4A923C"/>
		<stop  offset="1" style="stop-color:#438E3B"/>
	</linearGradient>
	
		<circle fill="url(#SVGID_1_)" stroke="#004A1C" stroke-width="1.3743" stroke-linecap="round" stroke-linejoin="round" cx="261.031" cy="24.16" r="16.054"/>
	<path fill="none" stroke="#004A1C" stroke-width="4.1228" stroke-linecap="round" stroke-linejoin="round" d="M52.505,72.358
		l9.818,2.285l-13.879,3.978c-6.095-14.05-9.649-16.334-9.649-16.334c-2.284-1.355-5.67-1.355-7.447-1.27
		c-0.931,0.932-1.778,1.777-2.454,2.453l-0.339,7.873l8.294,4.399H14.421l8.125-4.399l-1.101-41.386l-9.226-3.894l17.943-1.438
		l-1.186,35.799L41.166,47.73l14.473-1.016c-8.294,3.132-10.326,3.809-10.326,3.809c-1.945,0.762-4.569,2.2-6.431,3.64
		c-0.678,0.507-2.37,2.031-4.317,3.809c2.03,0.083,7.108,0.252,9.31,1.776C43.874,59.748,47.344,62.201,52.505,72.358z"/>
	<path fill="none" stroke="#004A1C" stroke-width="4.1228" stroke-linecap="round" stroke-linejoin="round" d="M65.961,47.527
		c0.931,0.931,0.931,2.878,0.931,2.878c0,1.945-2.284,4.061-4.823,4.061c-2.708,0-3.893-1.945-3.978-3.809
		c0-1.946,6.517-9.984,19.211-9.984c9.395,0,13.88,9.393,13.457,15.231c0,0,0,3.471-1.101,15.319l8.209,4.062l-16.249,2.623
		l0.592-3.639c-6.262,1.523-11.256,1.523-11.256,1.609c-1.945,0-14.133-0.425-14.219-7.617c0-7.279,7.11-11.427,16.166-10.919
		c0,0,9.309,0,9.986,0.593c1.947-14.727-7.194-14.727-7.194-14.727s-8.208,0-9.732,4.401V47.527z M82.634,66.823
		c0-1.27,0-0.847,0-4.063c0-3.13-5.162-3.809-8.04-3.809c-2.877,0-9.31,0.848-9.31,7.448c0,4.909,4.992,6.687,8.04,6.687
		C83.057,73.085,82.634,68.092,82.634,66.823z"/>
	<path fill="none" stroke="#004A1C" stroke-width="4.1228" stroke-linecap="round" stroke-linejoin="round" d="M135.53,60.4
		c0,10.75-8.718,15.911-18.027,15.911c-4.147,0-7.109-1.015-9.141-2.201l0.169,13.034l11.849,5.078l-28.774,1.101l10.579-6.179
		l-1.861-36.899l-13.289-4.738l21.158-2.37l0.086,5.669c1.946-1.015,5.755-2.538,11.172-2.538
		C127.828,46.267,135.53,51.261,135.53,60.4z M108.362,66.072c0,4.315,3.386,7.362,9.141,7.362c6.177,0,10.155-4.909,10.155-12.779
		c0-7.786-5.755-11.511-10.071-11.511c-3.471,0-9.395,3.556-9.309,10.241L108.362,66.072z"/>
	<path fill="none" stroke="#004A1C" stroke-width="4.1228" stroke-linecap="round" stroke-linejoin="round" d="M173.891,60.4
		c0,10.75-8.719,15.911-18.026,15.911c-4.147,0-7.11-1.015-9.141-2.201l0.169,13.034l11.849,5.078l-28.776,1.101l10.581-6.179
		l-1.863-36.899l-13.287-4.738l21.158-2.37l0.085,5.669c1.946-1.015,5.755-2.538,11.171-2.538
		C166.189,46.267,173.891,51.261,173.891,60.4z M146.724,66.072c0,4.315,3.386,7.362,9.141,7.362
		c6.177,0,10.155-4.909,10.155-12.779c0-7.786-5.755-11.511-10.072-11.511c-3.47,0-9.394,3.556-9.309,10.241L146.724,66.072z"/>
	<path fill="none" stroke="#004A1C" stroke-width="4.1228" stroke-linecap="round" stroke-linejoin="round" d="M184.697,47.527
		c0.932,0.931,0.932,2.878,0.932,2.878c0,1.945-2.284,4.061-4.823,4.061c-2.709,0-3.894-1.945-3.979-3.809
		c0-1.946,6.518-9.984,19.212-9.984c9.395,0,13.879,9.393,13.456,15.231c0,0,0,3.471-1.101,15.319l8.21,4.062l-16.25,2.623
		l0.592-3.639c-6.262,1.523-11.255,1.523-11.255,1.609c-1.946,0-14.134-0.425-14.22-7.617c0-7.279,7.11-11.427,16.167-10.919
		c0,0,9.308,0,9.985,0.593c1.947-14.727-7.194-14.727-7.194-14.727s-8.208,0-9.732,4.401V47.527z M201.371,66.823
		c0-1.27,0-0.847,0-4.063c0-3.13-5.163-3.809-8.04-3.809c-2.878,0-9.311,0.848-9.311,7.448c0,4.909,4.993,6.687,8.04,6.687
		C201.793,73.085,201.371,68.092,201.371,66.823z"/>
	<path fill="none" stroke="#004A1C" stroke-width="4.1228" stroke-linecap="round" stroke-linejoin="round" d="M248.232,62.357
		c-6.263-17.772-13.966-17.772-13.966-17.772c-8.038,0-11.932,7.701-11.932,15.402c0,7.786,2.708,15.657,11.002,15.657
		c0,0,8.294,0,11.171-7.194l4.57,1.609c-2.284,7.785-15.318,7.785-15.318,7.785c-9.395,0-19.804-5.417-19.804-17.857
		c-0.086-12.524,13.372-17.688,18.703-17.688c0,0,5.333,0,12.188,3.895l5.669-4.401L248.232,62.357z"/>
	<path fill="none" stroke="#004A1C" stroke-width="4.1228" stroke-linecap="round" stroke-linejoin="round" d="M266.733,45.465
		l-1.353,26.151l7.277,4.992L251.5,76.186l7.956-4.907l-1.1-22.006l-8.041-3.808H266.733z"/>
	<path fill="none" stroke="#004A1C" stroke-width="4.1228" stroke-linecap="round" stroke-linejoin="round" d="M295.316,76.819
		l7.447-4.57c4.572-23.613-6.01-23.613-6.01-23.613c-4.485,0-7.616,2.287-9.392,4.147c-0.592,5.164-1.27,12.02-1.354,14.05
		c0,0-0.169,3.469,0.423,5.078l7.871,3.894l-24.458,0.338c4.147-2.201,5.84-2.877,5.84-2.877c0.086,0,1.776-0.677,3.893-1.946
		l-0.253-19.551l-9.902-5.247l18.62-0.339c-0.086,0.763-0.171,1.946-0.171,1.946c1.861-1.015,5.67-2.622,10.073-2.622
		c8.463,0,11.51,5.838,12.354,11.423c-0.082,0,1.018,6.941,0.426,15.911l8.123,4.571L295.316,76.819z"/>
	<path fill="none" stroke="#004A1C" stroke-width="4.1228" stroke-linecap="round" stroke-linejoin="round" d="M314.443,60.877
		c0-5.924,6.264-16.334,22.004-16.334c7.447,0,15.49,4.739,15.49,13.881c0,9.901-6.18,18.618-21.498,18.618
		c-10.326,0-16.08-8.124-16.08-16.165H314.443z M332.639,48.522c-4.738,0-10.324,3.724-10.324,12.441
		c0,8.208,4.992,11.764,10.748,11.764c4.908,0,11.342-2.539,11.342-12.103c0-6.518-3.979-12.103-11.68-12.103H332.639z"/>
	<path fill="#004A1C" d="M172.015,87.699c0.657-0.549,1.426-0.877,2.519-0.877c1.862,0.109,2.956,0.877,3.175,2.409
		c0.768-0.329,1.753-0.548,2.849-0.659c-0.658-1.97-2.519-3.063-5.585-3.394c-1.751,0-2.957,0.222-4.159,1.095
		c-0.879,0.549-1.426,1.315-1.863,2.19c-0.875,2.08-0.656,3.833,0.438,5.257c1.096,1.532,2.958,2.19,5.585,2.19
		c2.848,0,4.818-1.094,5.913-3.177c-0.767-0.218-1.643-0.546-2.628-0.878c-0.656,1.537-1.861,2.412-3.396,2.521
		c-1.204,0-2.079-0.329-2.847-1.095c-0.875-0.985-1.202-2.19-0.983-3.613C171.14,88.902,171.468,88.246,172.015,87.699z"/>
	<path fill="#004A1C" d="M200.157,88.902c0.985-0.109,1.97-0.219,2.738-0.219c0-1.533-0.658-2.736-2.082-3.175
		c-2.189-0.878-4.489-0.548-6.788,0.986V84.96c-1.096,0.218-1.971,0.218-2.736,0.439c0.437,3.831,0.547,7.334,0.547,10.619
		c0.874-0.108,1.641-0.329,2.189-0.438v-7.01c1.861-1.422,3.394-2.077,4.708-1.641C199.608,87.15,200.157,87.808,200.157,88.902z"/>
	<path fill="#004A1C" d="M215.486,86.273c-0.984,0.658-1.643,1.426-1.97,2.299c-0.877,1.972-0.768,3.725,0.438,5.148
		c1.313,1.643,3.174,2.299,5.692,2.08c2.737-0.219,4.927-1.313,6.461-3.284c-0.768-0.328-1.534-0.547-2.518-0.877
		c-1.096,1.643-2.519,2.52-4.161,2.52c-1.204,0.109-2.301-0.331-2.958-0.986c-0.546-0.656-0.984-1.316-1.095-1.971
		c3.286-0.328,6.57-0.439,9.964-0.328c0.112-1.643-0.219-3.065-1.312-4.052c-0.984-0.875-2.519-1.422-4.271-1.422
		C218.115,85.287,216.691,85.619,215.486,86.273z M219.099,86.822c2.301,0,3.395,0.986,3.504,2.518l-7.117,0.219
		c0.11-0.656,0.547-1.312,1.095-1.75C217.237,87.15,218.115,86.822,219.099,86.822z"/>
	<path fill="#004A1C" d="M239.357,89.011c0.218-1.534,1.094-2.299,2.848-2.299c2.409,0.109,3.721,1.096,4.05,3.175
		c-1.094-0.438-2.519-0.656-4.161-0.548c-1.424,0-2.627,0.329-3.614,0.767c-1.531,0.768-2.079,1.643-2.079,2.958
		c0.219,1.095,0.766,1.861,1.859,2.518c1.098,0.656,2.521,0.985,4.381,0.877c1.315-0.221,2.409-0.439,3.285-0.877v0.656
		c0.877-0.11,1.644-0.219,2.41-0.219l-0.219-6.788c-0.219-3.177-2.3-4.601-6.241-4.271c-3.067,0.218-4.818,1.534-5.257,3.832
		C237.712,88.902,238.59,88.902,239.357,89.011z M244.282,91.091c1.097,0.33,1.754,0.548,1.863,1.097
		c0.109,0.546-0.22,1.205-0.984,1.64c-0.659,0.549-1.425,0.768-2.521,0.879c-2.189,0.219-3.393-0.33-3.612-1.425
		c-0.11-1.094,0.876-1.86,2.738-2.19C242.533,90.983,243.407,90.983,244.282,91.091z"/>
	<path fill="#004A1C" d="M260.16,85.4l-1.422,0.219c0.108,0.654,0,1.203-0.109,1.64l1.313-0.108l-0.219,4.489
		c-0.11,1.095,0.219,2.081,0.766,2.848c0.549,0.766,1.313,1.203,2.19,1.424c3.285,0.656,4.816-0.548,4.708-3.614
		c-0.875,0-1.752,0-2.519-0.218c0.109,1.642-0.329,2.298-1.203,2.298c-1.096-0.108-1.753-0.983-1.753-2.298
		c0-1.205,0.219-2.958,0.438-5.036l3.614-0.111c0-0.658,0.219-1.312,0.219-1.971l-3.613,0.326l0.438-4.268
		c-1.096,0.219-1.971,0.329-2.849,0.329C260.271,82.332,260.271,83.757,260.16,85.4z"/>
	<path fill="#004A1C" d="M280.964,85.4c-1.096,0-1.971,0.108-2.738,0.219c0.22,3.721,0.22,7.115,0,10.292
		c0.988-0.329,1.643-0.439,2.301-0.439C280.527,92.734,280.747,89.449,280.964,85.4z"/>
	<path fill="#004A1C" d="M298.047,85.178c-1.863,0.108-3.395,0.769-4.709,1.972c-1.424,1.313-1.861,2.956-1.424,4.929
		c0.661,2.517,2.85,3.722,6.79,3.611c1.752,0,3.395-0.438,4.709-1.422c1.422-1.096,2.08-2.629,2.189-4.381
		c0-1.642-0.549-2.737-1.861-3.614C302.314,85.4,300.455,85.07,298.047,85.178z M298.484,86.822c1.424,0,2.408,0.221,3.285,0.877
		c0.875,0.547,1.422,1.532,1.312,2.737c-0.217,2.406-1.752,3.723-4.379,3.832c-0.984,0-1.861-0.33-2.627-0.655
		c-0.877-0.549-1.424-1.316-1.643-2.083c-0.219-1.313,0-2.409,0.766-3.284C296.076,87.258,297.17,86.822,298.484,86.822z"/>
	<path fill="#004A1C" d="M327.83,89.449c-0.221-2.19-0.877-3.611-2.52-4.162c-1.861-0.656-4.16-0.217-6.57,1.208v-1.643
		c-0.877,0.218-1.75,0.326-2.627,0.326c0.438,3.833,0.547,7.448,0.109,10.732c0.875,0,1.752-0.221,2.848-0.221
		c0-0.873,0-3.394-0.33-7.335c0.768-0.439,1.643-0.878,2.52-1.205c0.984-0.328,1.861-0.438,2.408-0.328
		c1.096,0.221,1.643,1.315,1.643,3.284c0,1.315-0.328,3.066-0.877,5.476c0.986,0,1.971,0.108,2.738,0.329
		C327.609,92.734,327.83,90.543,327.83,89.449z"/>
	<path fill="#004A1C" d="M340.969,88.572c0-0.435,0.219-0.764,0.766-1.203c0.549-0.326,1.096-0.547,1.863-0.656
		c1.969-0.218,3.395,0.219,3.832,1.533c1.096-0.33,2.08-0.438,3.064-0.438c-0.217-0.877-1.094-1.535-2.189-2.081
		c-1.312-0.549-2.955-0.767-5.037-0.549c-1.861,0.222-3.395,0.769-4.16,1.644c-0.658,0.767-0.875,1.533-0.547,2.518
		c0.438,0.877,0.984,1.534,1.971,1.862c1.094,0.438,2.518,0.438,4.271,0c2.953-0.658,4.379-0.219,4.379,0.986
		c-0.109,1.425-1.205,2.188-3.285,2.299c-2.191,0.22-3.723-0.549-4.381-1.971c-0.984,0.218-1.971,0.656-2.738,0.877
		c0.33,1.202,1.316,1.97,2.957,2.407c1.314,0.438,2.736,0.438,4.49,0.219c3.504-0.438,5.365-1.643,5.475-3.94
		c0.219-1.205-0.328-2.083-1.422-2.521c-0.988-0.547-2.521-0.547-4.381,0C342.611,90.436,340.969,89.996,340.969,88.572z"/>
	<linearGradient id="SVGID_2_" gradientUnits="userSpaceOnUse" x1="37.272" y1="24.6255" x2="37.272" y2="78.6206">
		<stop  offset="0" style="stop-color:#8DC63F"/>
		<stop  offset="1" style="stop-color:#438E3B"/>
	</linearGradient>
	<path fill="url(#SVGID_2_)" d="M52.505,72.358l9.818,2.285l-13.879,3.978c-6.095-14.05-9.649-16.334-9.649-16.334
		c-2.284-1.355-5.67-1.355-7.447-1.27c-0.931,0.932-1.778,1.777-2.454,2.453l-0.339,7.873l8.294,4.399H14.421l8.125-4.399
		l-1.101-41.386l-9.226-3.894l17.943-1.438l-1.186,35.799L41.166,47.73l14.473-1.016c-8.294,3.132-10.326,3.809-10.326,3.809
		c-1.945,0.762-4.569,2.2-6.431,3.64c-0.678,0.507-2.37,2.031-4.317,3.809c2.03,0.083,7.108,0.252,9.31,1.776
		C43.874,59.748,47.344,62.201,52.505,72.358z"/>
	<linearGradient id="SVGID_3_" gradientUnits="userSpaceOnUse" x1="77.3018" y1="40.6724" x2="77.3018" y2="77.9087">
		<stop  offset="0" style="stop-color:#8DC63F"/>
		<stop  offset="1" style="stop-color:#438E3B"/>
	</linearGradient>
	<path fill="url(#SVGID_3_)" d="M65.961,47.527c0.931,0.931,0.931,2.878,0.931,2.878c0,1.945-2.284,4.061-4.823,4.061
		c-2.708,0-3.893-1.945-3.978-3.809c0-1.946,6.517-9.984,19.211-9.984c9.395,0,13.88,9.393,13.457,15.231c0,0,0,3.471-1.101,15.319
		l8.209,4.062l-16.249,2.623l0.592-3.639c-6.262,1.523-11.256,1.523-11.256,1.609c-1.945,0-14.133-0.425-14.219-7.617
		c0-7.279,7.11-11.427,16.166-10.919c0,0,9.309,0,9.986,0.593c1.947-14.727-7.194-14.727-7.194-14.727s-8.208,0-9.732,4.401V47.527z
		 M82.634,66.823c0-1.27,0-0.847,0-4.063c0-3.13-5.162-3.809-8.04-3.809c-2.877,0-9.31,0.848-9.31,7.448
		c0,4.909,4.992,6.687,8.04,6.687C83.057,73.085,82.634,68.092,82.634,66.823z"/>
	<linearGradient id="SVGID_4_" gradientUnits="userSpaceOnUse" x1="111.2817" y1="43.1362" x2="111.2817" y2="93.3232">
		<stop  offset="0" style="stop-color:#8DC63F"/>
		<stop  offset="1" style="stop-color:#438E3B"/>
	</linearGradient>
	<path fill="url(#SVGID_4_)" d="M135.53,60.4c0,10.75-8.718,15.911-18.027,15.911c-4.147,0-7.109-1.015-9.141-2.201l0.169,13.034
		l11.849,5.078l-28.774,1.101l10.579-6.179l-1.861-36.899l-13.289-4.738l21.158-2.37l0.086,5.669
		c1.946-1.015,5.755-2.538,11.172-2.538C127.828,46.267,135.53,51.261,135.53,60.4z M108.362,66.072
		c0,4.315,3.386,7.362,9.141,7.362c6.177,0,10.155-4.909,10.155-12.779c0-7.786-5.755-11.511-10.071-11.511
		c-3.471,0-9.395,3.556-9.309,10.241L108.362,66.072z"/>
	<linearGradient id="SVGID_5_" gradientUnits="userSpaceOnUse" x1="149.6436" y1="43.1362" x2="149.6436" y2="93.3232">
		<stop  offset="0" style="stop-color:#8DC63F"/>
		<stop  offset="1" style="stop-color:#438E3B"/>
	</linearGradient>
	<path fill="url(#SVGID_5_)" d="M173.891,60.4c0,10.75-8.719,15.911-18.026,15.911c-4.147,0-7.11-1.015-9.141-2.201l0.169,13.034
		l11.849,5.078l-28.776,1.101l10.581-6.179l-1.863-36.899l-13.287-4.738l21.158-2.37l0.085,5.669
		c1.946-1.015,5.755-2.538,11.171-2.538C166.189,46.267,173.891,51.261,173.891,60.4z M146.724,66.072
		c0,4.315,3.386,7.362,9.141,7.362c6.177,0,10.155-4.909,10.155-12.779c0-7.786-5.755-11.511-10.072-11.511
		c-3.47,0-9.394,3.556-9.309,10.241L146.724,66.072z"/>
	<linearGradient id="SVGID_6_" gradientUnits="userSpaceOnUse" x1="196.0376" y1="40.6724" x2="196.0376" y2="77.9087">
		<stop  offset="0" style="stop-color:#8DC63F"/>
		<stop  offset="1" style="stop-color:#438E3B"/>
	</linearGradient>
	<path fill="url(#SVGID_6_)" d="M184.697,47.527c0.932,0.931,0.932,2.878,0.932,2.878c0,1.945-2.284,4.061-4.823,4.061
		c-2.709,0-3.894-1.945-3.979-3.809c0-1.946,6.518-9.984,19.212-9.984c9.395,0,13.879,9.393,13.456,15.231c0,0,0,3.471-1.101,15.319
		l8.21,4.062l-16.25,2.623l0.592-3.639c-6.262,1.523-11.255,1.523-11.255,1.609c-1.946,0-14.134-0.425-14.22-7.617
		c0-7.279,7.11-11.427,16.167-10.919c0,0,9.308,0,9.985,0.593c1.947-14.727-7.194-14.727-7.194-14.727s-8.208,0-9.732,4.401V47.527z
		 M201.371,66.823c0-1.27,0-0.847,0-4.063c0-3.13-5.163-3.809-8.04-3.809c-2.878,0-9.311,0.848-9.311,7.448
		c0,4.909,4.993,6.687,8.04,6.687C201.793,73.085,201.371,68.092,201.371,66.823z"/>
	<linearGradient id="SVGID_7_" gradientUnits="userSpaceOnUse" x1="261.4863" y1="45.4653" x2="261.4863" y2="76.6089">
		<stop  offset="0" style="stop-color:#8DC63F"/>
		<stop  offset="1" style="stop-color:#438E3B"/>
	</linearGradient>
	<path fill="url(#SVGID_7_)" d="M266.733,45.465l-1.353,26.151l7.277,4.992L251.5,76.186l7.956-4.907l-1.1-22.006l-8.041-3.808
		H266.733z"/>
	<linearGradient id="SVGID_8_" gradientUnits="userSpaceOnUse" x1="294.1318" y1="45.5063" x2="294.1318" y2="77.4116">
		<stop  offset="0" style="stop-color:#8DC63F"/>
		<stop  offset="1" style="stop-color:#438E3B"/>
	</linearGradient>
	<path fill="url(#SVGID_8_)" d="M295.316,76.819l7.447-4.57c4.572-23.613-6.01-23.613-6.01-23.613c-4.485,0-7.616,2.287-9.392,4.147
		c-0.592,5.164-1.27,12.02-1.354,14.05c0,0-0.169,3.469,0.423,5.078l7.871,3.894l-24.458,0.338c4.147-2.201,5.84-2.877,5.84-2.877
		c0.086,0,1.776-0.677,3.893-1.946l-0.253-19.551l-9.902-5.247l18.62-0.339c-0.086,0.763-0.171,1.946-0.171,1.946
		c1.861-1.015,5.67-2.622,10.073-2.622c8.463,0,11.51,5.838,12.354,11.423c-0.082,0,1.018,6.941,0.426,15.911l8.123,4.571
		L295.316,76.819z"/>
	<linearGradient id="SVGID_9_" gradientUnits="userSpaceOnUse" x1="333.1484" y1="44.5435" x2="333.1484" y2="77.0425">
		<stop  offset="0" style="stop-color:#8DC63F"/>
		<stop  offset="1" style="stop-color:#438E3B"/>
	</linearGradient>
	<path fill="url(#SVGID_9_)" d="M314.443,60.877c0-5.924,6.264-16.334,22.004-16.334c7.447,0,15.49,4.739,15.49,13.881
		c0,9.901-6.18,18.618-21.498,18.618c-10.326,0-16.08-8.124-16.08-16.165H314.443z M332.639,48.522
		c-4.738,0-10.324,3.724-10.324,12.441c0,8.208,4.992,11.764,10.748,11.764c4.908,0,11.342-2.539,11.342-12.103
		c0-6.518-3.979-12.103-11.68-12.103H332.639z"/>
	<linearGradient id="SVGID_10_" gradientUnits="userSpaceOnUse" x1="232.2358" y1="41.7915" x2="232.2358" y2="77.8442">
		<stop  offset="0" style="stop-color:#8DC63F"/>
		<stop  offset="1" style="stop-color:#438E3B"/>
	</linearGradient>
	<path fill="url(#SVGID_10_)" d="M248.232,62.357c-6.263-17.772-13.966-17.772-13.966-17.772c-8.038,0-11.932,7.701-11.932,15.402
		c0,7.786,2.708,15.657,11.002,15.657c0,0,8.294,0,11.171-7.194l4.57,1.609c-2.284,7.785-15.318,7.785-15.318,7.785
		c-9.395,0-19.804-5.417-19.804-17.857c-0.086-12.524,13.372-17.688,18.703-17.688c0,0,5.333,0,12.188,3.895l5.669-4.401
		L248.232,62.357z"/>
	<polyline opacity="0.86" fill="#C6DE87" points="12.067,25.906 13.762,25.792 30.145,24.439 29.655,26.495 20.743,27.573 
		24.17,30.022 25.15,70.666 17.606,75.987 14.553,75.873 22.693,71.125 21.223,30.088 	"/>
	<polygon opacity="0.86" fill="#C6DE87" points="29.137,60.16 41.12,47.498 55.817,46.593 41.685,48.629 	"/>
	<path opacity="0.86" fill="#C6DE87" d="M34.805,57.943c0,0,7.127,0.098,9.212,1.891c0,0,4.508,4.073,8.483,12.508l9.89,2.181
		l-10.52-1.212C51.871,73.31,47.361,58.96,34.805,57.943z"/>
	<path opacity="0.86" fill="#C6DE87" d="M61.835,54.458c0,0-4.568,0.1-3.476-4.965c0,0,4.468-8.144,17.379-8.839
		c0,0,7.648-0.695,11.422,4.767l21.055-2.384v2.483l-16.188,0.397l10.429,3.873l1.985,36.646L93.814,93.39l-2.185,0.1l2.88-1.986
		l7.549-4.37l-1.788-36.846l-12.414-4.369l-1.49-0.397c0,0-6.157-6.455-15.294-3.178S58.062,49.792,61.835,54.458z"/>
	<path opacity="0.86" fill="#C6DE87" d="M82.89,57.835c0,0-10.925-1.191-14.897-0.298c0,0-10.428,1.093-11.024,9.534
		c0,0-2.283,5.857,7.747,8.143c0,0-9.732-7.249-1.39-14.697C63.326,60.517,68.192,58.034,82.89,57.835z"/>
	<path opacity="0.86" fill="#C6DE87" d="M82.179,74.464l-0.497,3.478l3.774-0.627C85.457,77.315,82.313,77.917,82.179,74.464z"/>
	<path opacity="0.86" fill="#C6DE87" d="M206.319,45.918l-1.49-0.397c0,0-6.158-6.455-15.295-3.178
		c-9.136,3.277-13.01,7.448-9.235,12.115c0,0-4.568,0.1-3.476-4.965c0,0,4.468-8.144,17.379-8.839c0,0,7.647-0.695,11.422,4.767"/>
	<path opacity="0.86" fill="#C6DE87" d="M210.375,45.918"/>
	<path opacity="0.86" fill="#C6DE87" d="M201.412,58.008c0,0-10.925-1.191-14.897-0.298c0,0-10.429,1.093-11.024,9.534
		c0,0-2.283,5.857,7.747,8.144c0,0-9.733-7.25-1.391-14.698C181.846,60.69,186.712,58.208,201.412,58.008z"/>
	<path opacity="0.86" fill="#C6DE87" d="M200.888,74.52l-0.496,3.477l4.019-0.699C204.411,77.297,202.476,77.526,200.888,74.52z"/>
	<path opacity="0.86" fill="#C6DE87" d="M122.218,50.288c0,0,5.859,3.774,5.363,10.825c0,0-1.29,9.137-4.966,10.924
		C122.616,72.037,140.393,60.715,122.218,50.288z"/>
	<polyline opacity="0.86" fill="#C6DE87" points="125.494,45.421 146.548,43.038 146.548,45.521 130.36,45.918 140.789,49.792 
		142.775,86.438 132.148,93.39 129.963,93.49 132.843,91.503 140.391,87.133 138.604,50.288 126.189,45.918 124.7,45.521 	"/>
	<path opacity="0.86" fill="#C6DE87" d="M160.552,50.288c0,0,5.859,3.774,5.362,10.825c0,0-1.29,9.137-4.965,10.924
		C160.95,72.037,178.727,60.715,160.552,50.288z"/>
	<path opacity="0.86" fill="#C6DE87" d="M250.4,41.827l-5.427,4.271c0,0-10.276-7.272-20.09-1.731c0,0-12.124,4.273-10.854,16.973
		c0,0-0.347,11.431,12.585,15.587c0,0-20.205-12.469-4.733-29.096c0,0,11.893-9.007,23.092,0l5.312-3.926L250.4,41.827z"/>
	<path opacity="0.86" fill="#C6DE87" d="M249.246,70.114l-4.619-1.731c0,0-3.579,6.928-10.391,7.043c0,0,9.583-0.808,10.853-6.119
		l3.927,1.5L249.246,70.114z"/>
	<polygon opacity="0.86" fill="#C6DE87" points="250.63,45.636 258.367,49.447 259.406,71.154 251.67,75.772 251.67,76.349 
		260.907,72.078 260.445,48.638 256.058,46.444 266.565,46.906 266.911,45.174 251.324,45.521 	"/>
	<polygon opacity="0.86" fill="#C6DE87" points="288.127,46 269.459,46.5 279.496,51.756 279.611,71.384 271.298,75.195 
		272.337,76.002 281.113,71.731 280.766,50.717 274.185,47.369 288.044,47.001 	"/>
	<path opacity="0.86" fill="#C6DE87" d="M295.295,76.836l7.418-4.667c0,0,5-20.168-5.502-23.502c0,0,12.252-1.002,7.084,23.251
		l-6.75,4.918H295.295z"/>
	<path opacity="0.86" fill="#C6DE87" d="M288.211,47.917c0,0,8.833-4.669,15.751-1.084c0,0,4,2.084,5,5.335
		C308.963,52.168,301.879,43.417,288.211,47.917z"/>
	<path opacity="0.86" fill="#C6DE87" d="M330.801,45.12c0,0-11.643,1.213-15.402,11.278c0,0-5.699,13.945,10.795,20.253
		c0,0,9.338,1.215,14.553-1.212c0,0-17.223,3.273-22.922-7.398C317.824,68.041,310.184,55.186,330.801,45.12z"/>
	<path opacity="0.86" fill="#C6DE87" d="M339.775,50.699c0,0,4.975,3.76,4.609,10.551c0,0,0.193,5.736-5.012,10.004
		C339.373,71.253,354.33,62.342,339.775,50.699z"/>
	<path opacity="0.86" fill="#C6DE87" d="M257.049,9.256c0,0-6.392,1.895-8.601,5.999c0,0-5.603,6.709-1.026,16.02
		c0,0,3.473,8.05,13.81,8.365C261.232,39.64,238.979,28.277,257.049,9.256z"/>
	<ellipse fill="#D7DF23" stroke="#004A1C" stroke-width="1.3743" cx="261.031" cy="31.16" rx="8.435" ry="3.538"/>
	<circle fill="#004A1C" cx="252.597" cy="25.52" r="2.313"/>
	<circle fill="#004A1C" cx="269.738" cy="25.52" r="2.313"/>
	<polygon fill="#005926" stroke="#004A1C" stroke-width="1.3743" stroke-linecap="round" stroke-linejoin="round" points="
		246.276,16.009 242.466,21.18 251.173,18.458 255.244,21.761 258.793,18.73 262.602,21.724 265.324,17.643 270.764,21.724 
		271.854,18.458 279.991,21.378 275.528,15.737 	"/>
	<polygon opacity="0.5" fill="#C6DE87" points="244.502,19.989 246.633,16.437 248.527,16.515 	"/>
	<polygon opacity="0.5" fill="#C6DE87" points="251.683,17.937 255.314,21.014 256.024,20.304 252.393,17.304 	"/>
	<polygon opacity="0.5" fill="#C6DE87" points="259.337,18.411 262.652,20.935 260.521,17.542 	"/>
	<polygon opacity="0.5" fill="#C6DE87" points="265.966,16.989 270.385,20.46 270.702,19.515 	"/>
	<polygon opacity="0.5" fill="#C6DE87" points="272.122,17.699 278.198,20.066 273.621,16.989 	"/>
	<circle opacity="0.5" fill="#C6DE87" cx="252.512" cy="25.472" r="1.382"/>
	<circle opacity="0.5" fill="#C6DE87" cx="269.636" cy="25.472" r="1.382"/>
	<circle opacity="0.71" fill="#005926" cx="252.552" cy="25.433" r="1.026"/>
	<circle opacity="0.71" fill="#005926" cx="269.676" cy="25.433" r="1.026"/>
	<circle fill="#FFFFFF" cx="252.63" cy="24.723" r="0.829"/>
	<circle fill="#FFFFFF" cx="269.518" cy="24.723" r="0.829"/>
	<path opacity="0.78" fill="#FFFFFF" d="M259.631,28.358c0,0-6.495,0.613-6.342,3.067c0,0,0.665,2.609,8.694,2.66
		C261.984,34.085,249.709,32.347,259.631,28.358z"/>
	<polygon opacity="0.5" fill="#005926" points="30.145,26.96 29.137,60.16 28.428,59.168 29.034,26.759 30.145,24.439 	"/>
	<path opacity="0.5" fill="#005926" d="M34.805,57.943c0,0,5.536-5.743,9.474-6.752l11.538-4.598
		C55.817,46.593,39.972,48.945,34.805,57.943z"/>
	<path opacity="0.5" fill="#005926" d="M28.555,71.343l8.294,4.399l0.161,0.488l-10.904-0.506c0,0,5.755,0.001,5.553-1.514
		c0,0-2.423-2.222-4.341-2.727l0.403-7.875l3.433-3.129l0.194,0.536l-2.454,2.453L28.555,71.343z"/>
	<polygon opacity="0.5" fill="#005926" points="48.445,78.621 62.324,74.643 50.236,76.633 48.116,77.845 	"/>
	<path opacity="0.5" fill="#005926" d="M62.849,54.507c0,0,4.949-1.271,3.946-5.351c0,0-0.032-1.027-0.401-1.471
		c-0.37-0.444-0.201-0.202-0.201-0.202s1.338-3.745,9.699-3.945c5.279,0.451,6.712,6.232,6.889,6.956c0,0-0.535-9.966-11.638-7.425
		c0,0-5.484,1.003-5.818,5.551C65.325,48.621,66.728,52.902,62.849,54.507z"/>
	<path opacity="0.5" fill="#005926" d="M64.715,75.214c0,0,8.363,1.695,17.495-0.944C82.21,74.27,68.588,75.923,64.715,75.214z"/>
	<path opacity="0.5" fill="#005926" d="M182.84,75.443c0,0,8.363,1.695,17.495-0.944C200.335,74.499,186.713,76.152,182.84,75.443z"
		/>
</g>
<g id="Layer_6">
</g>
<g id="Layer_7">
</g>
<g id="Layer_8">
</g>
<g id="Layer_3">
</g>
<g id="Layer_2">
</g>
<g id="Layer_1">
</g>
<g id="Layer_4">
</g>
</svg>
