<?xml version="1.0" encoding="utf-8"?>
<!-- Generator: Adobe Illustrator 16.0.0, SVG Export Plug-In . SVG Version: 6.00 Build 0)  -->
<!DOCTYPE svg PUBLIC "-//W3C//DTD SVG 1.1//EN" "http://www.w3.org/Graphics/SVG/1.1/DTD/svg11.dtd">
<svg version="1.1" id="Layer_2" xmlns="http://www.w3.org/2000/svg" xmlns:xlink="http://www.w3.org/1999/xlink" x="0px" y="0px"
	 width="363.149px" height="104.417px" viewBox="0 0 363.149 104.417" enable-background="new 0 0 363.149 104.417"
	 xml:space="preserve">
<g id="Layer_9_1_">
	<circle cx="262.155" cy="20.674" r="16.31"/>
	<path stroke="#000000" stroke-width="2.7922" stroke-linecap="round" stroke-linejoin="round" d="M50.366,70.898l9.976,2.32
		l-14.101,4.043c-6.191-14.272-9.8-16.593-9.8-16.593c-2.32-1.376-5.76-1.376-7.565-1.29c-0.944,0.945-1.807,1.804-2.492,2.488
		l-0.343,8.001l8.425,4.469H11.678l8.254-4.469l-1.118-42.043l-9.373-3.956l18.23-1.461l-1.204,36.369l12.38-12.895l14.703-1.033
		c-8.427,3.18-10.491,3.868-10.491,3.868c-1.977,0.776-4.643,2.236-6.534,3.696c-0.687,0.519-2.408,2.064-4.386,3.869
		c2.062,0.086,7.221,0.26,9.457,1.805C41.597,58.087,45.124,60.581,50.366,70.898z"/>
	<path stroke="#000000" stroke-width="2.7922" stroke-linecap="round" stroke-linejoin="round" d="M64.035,45.675
		c0.946,0.941,0.946,2.922,0.946,2.922c0,1.976-2.32,4.126-4.901,4.126c-2.75,0-3.955-1.977-4.042-3.87
		c0-1.975,6.62-10.143,19.517-10.143c9.543,0,14.101,9.54,13.67,15.474c0,0,0,3.526-1.118,15.562l8.34,4.126l-16.507,2.665
		l0.602-3.697c-6.361,1.549-11.433,1.549-11.433,1.635c-1.977,0-14.357-0.431-14.446-7.737c0-7.396,7.223-11.608,16.423-11.094
		c0,0,9.456,0,10.146,0.604c1.978-14.959-7.31-14.959-7.31-14.959s-8.337,0-9.888,4.469v-0.084l0,0V45.675z M80.975,65.276
		c0-1.289,0-0.862,0-4.129c0-3.179-5.246-3.869-8.169-3.869s-9.456,0.862-9.456,7.567c0,4.987,5.071,6.793,8.167,6.793
		C81.403,71.638,80.975,66.566,80.975,65.276z"/>
	<path stroke="#000000" stroke-width="2.7922" stroke-linecap="round" stroke-linejoin="round" d="M134.709,58.75
		c0,10.922-8.856,16.165-18.313,16.165c-4.213,0-7.222-1.03-9.286-2.238l0.171,13.242l12.037,5.157l-29.229,1.118l10.747-6.275
		l-1.89-37.487l-13.5-4.812l21.493-2.41l0.088,5.76c1.976-1.03,5.845-2.579,11.348-2.579
		C126.885,44.391,134.709,49.467,134.709,58.75z M107.109,64.512c0,4.385,3.441,7.478,9.285,7.478
		c6.275,0,10.317-4.984,10.317-12.982c0-7.912-5.846-11.693-10.232-11.693c-3.525,0-9.544,3.61-9.454,10.403L107.109,64.512z"/>
	<path stroke="#000000" stroke-width="2.7922" stroke-linecap="round" stroke-linejoin="round" d="M173.68,58.75
		c0,10.922-8.855,16.165-18.312,16.165c-4.211,0-7.224-1.03-9.285-2.238l0.171,13.242l12.038,5.157l-29.232,1.118l10.748-6.275
		l-1.891-37.487l-13.5-4.812l21.494-2.41l0.086,5.76c1.977-1.03,5.846-2.579,11.348-2.579
		C165.854,44.391,173.68,49.467,173.68,58.75z M146.081,64.512c0,4.385,3.439,7.478,9.284,7.478c6.276,0,10.317-4.984,10.317-12.982
		c0-7.912-5.846-11.693-10.232-11.693c-3.524,0-9.543,3.61-9.456,10.403L146.081,64.512z"/>
	<path stroke="#000000" stroke-width="2.7922" stroke-linecap="round" stroke-linejoin="round" d="M184.658,45.675
		c0.946,0.941,0.946,2.922,0.946,2.922c0,1.976-2.322,4.126-4.902,4.126c-2.752,0-3.954-1.977-4.041-3.87
		c0-1.975,6.621-10.143,19.518-10.143c9.545,0,14.1,9.54,13.67,15.474c0,0,0,3.526-1.118,15.562l8.339,4.126l-16.508,2.665
		l0.604-3.697c-6.361,1.549-11.434,1.549-11.434,1.637c-1.977,0-14.357-0.431-14.445-7.737c0-7.397,7.225-11.608,16.422-11.096
		c0,0,9.456,0,10.146,0.605c1.979-14.96-7.307-14.96-7.307-14.96s-8.338,0-9.886,4.469v-0.084L184.658,45.675L184.658,45.675z
		 M201.596,65.276c0-1.289,0-0.862,0-4.129c0-3.179-5.244-3.869-8.169-3.869s-9.456,0.862-9.456,7.567
		c0,4.987,5.071,6.793,8.168,6.793C202.023,71.638,201.596,66.566,201.596,65.276z"/>
	<path stroke="#000000" stroke-width="2.7922" stroke-linecap="round" stroke-linejoin="round" d="M267.998,43.58l-1.376,26.566
		l7.393,5.071l-21.493-0.43l8.081-4.985l-1.114-22.355l-8.171-3.87h16.681V43.58z"/>
	<path stroke="#000000" stroke-width="2.7922" stroke-linecap="round" stroke-linejoin="round" d="M297.034,75.43l7.565-4.645
		c4.645-23.987-6.104-23.987-6.104-23.987c-4.558,0-7.739,2.322-9.544,4.214c-0.601,5.245-1.29,12.21-1.374,14.272
		c0,0-0.172,3.524,0.428,5.159l7.997,3.956l-24.85,0.345c4.215-2.24,5.935-2.925,5.935-2.925c0.086,0,1.805-0.688,3.953-1.977
		l-0.258-19.865l-10.06-5.326l18.917-0.343c-0.088,0.773-0.176,1.975-0.176,1.975c1.892-1.028,5.761-2.663,10.231-2.663
		c8.598,0,11.693,5.93,12.55,11.604c-0.084,0,1.034,7.051,0.432,16.165l8.254,4.643L297.034,75.43z"/>
	<path stroke="#000000" stroke-width="2.7922" stroke-linecap="round" stroke-linejoin="round" d="M316.465,59.236
		c0-6.019,6.362-16.592,22.354-16.592c7.567,0,15.736,4.813,15.736,14.104c0,10.058-6.277,18.913-21.84,18.913
		c-10.489,0-16.334-8.254-16.334-16.423h0.084V59.236L316.465,59.236z M334.95,46.682c-4.812,0-10.489,3.784-10.489,12.642
		c0,8.338,5.073,11.952,10.92,11.952c4.984,0,11.52-2.58,11.52-12.296c0-6.621-4.042-12.299-11.865-12.299L334.95,46.682
		L334.95,46.682z"/>
	<path stroke="#000000" stroke-width="2.7922" stroke-linecap="round" stroke-linejoin="round" d="M249.2,60.74
		c-6.362-18.056-14.186-18.056-14.186-18.056c-8.168,0-12.124,7.823-12.124,15.647c0,7.911,2.752,15.905,11.178,15.905
		c0,0,8.425,0,11.348-7.308l4.645,1.637c-2.32,7.907-15.561,7.907-15.561,7.907c-9.543,0-20.117-5.503-20.117-18.142
		c-0.086-12.72,13.582-17.968,18.999-17.968c0,0,5.419,0,12.384,3.958l5.759-4.474L249.2,60.74z"/>
	<polygon points="277.784,18.063 281.365,19.214 279.958,16.909 276.759,16.016 	"/>
	
		<linearGradient id="SVGID_1_" gradientUnits="userSpaceOnUse" x1="-321.8579" y1="-377.2783" x2="-321.8579" y2="-409.8989" gradientTransform="matrix(1 0 0 -1 582 -373.583)">
		<stop  offset="0" style="stop-color:#4D4D4D"/>
		<stop  offset="0.3327" style="stop-color:#464646"/>
		<stop  offset="0.7786" style="stop-color:#353535"/>
		<stop  offset="1" style="stop-color:#2A2A2A"/>
	</linearGradient>
	
		<circle fill="url(#SVGID_1_)" stroke="#000000" stroke-width="1.3961" stroke-linecap="round" stroke-linejoin="round" cx="260.142" cy="20.006" r="16.31"/>
	<path fill="none" stroke="#000000" stroke-width="4.1882" stroke-linecap="round" stroke-linejoin="round" d="M48.305,68.968
		l9.973,2.32l-14.101,4.045c-6.191-14.274-9.802-16.595-9.802-16.595c-2.32-1.378-5.761-1.378-7.564-1.292
		c-0.946,0.947-1.808,1.808-2.493,2.492l-0.343,7.997l8.426,4.469H9.616l8.254-4.469l-1.118-42.042l-9.373-3.955l18.229-1.459
		l-1.204,36.364L36.787,43.95l14.701-1.029c-8.425,3.177-10.491,3.866-10.491,3.866c-1.976,0.775-4.642,2.239-6.533,3.696
		c-0.689,0.517-2.409,2.064-4.386,3.869c2.062,0.086,7.221,0.256,9.456,1.807C39.536,56.159,43.061,58.649,48.305,68.968z"/>
	<path fill="none" stroke="#000000" stroke-width="4.1882" stroke-linecap="round" stroke-linejoin="round" d="M61.973,43.745
		c0.946,0.944,0.946,2.923,0.946,2.923c0,1.976-2.32,4.124-4.899,4.124c-2.751,0-3.956-1.976-4.042-3.864
		c0-1.977,6.621-10.147,19.517-10.147c9.543,0,14.101,9.543,13.669,15.472c0,0,0,3.526-1.118,15.566l8.341,4.126L77.877,74.61
		l0.603-3.695c-6.363,1.545-11.434,1.545-11.434,1.633c-1.976,0-14.358-0.432-14.445-7.739c0-7.396,7.223-11.608,16.423-11.092
		c0,0,9.456,0,10.145,0.605C81.146,39.36,71.86,39.36,71.86,39.36s-8.338,0-9.888,4.468V43.745L61.973,43.745z M78.911,63.346
		c0-1.291,0-0.856,0-4.127c0-3.179-5.246-3.869-8.168-3.869c-2.923,0-9.457,0.858-9.457,7.567c0,4.985,5.072,6.791,8.167,6.791
		C79.34,69.707,78.911,64.634,78.911,63.346z"/>
	<path fill="none" stroke="#000000" stroke-width="4.1882" stroke-linecap="round" stroke-linejoin="round" d="M132.646,56.82
		c0,10.92-8.857,16.165-18.313,16.165c-4.213,0-7.223-1.03-9.285-2.236l0.172,13.242l12.037,5.155l-29.231,1.119l10.748-6.274
		l-1.89-37.488L83.382,41.69l21.494-2.412l0.088,5.759c1.976-1.03,5.847-2.576,11.348-2.576
		C124.821,42.465,132.646,47.535,132.646,56.82z M105.047,62.582c0,4.384,3.438,7.479,9.284,7.479
		c6.275,0,10.316-4.986,10.316-12.981c0-7.91-5.846-11.694-10.231-11.694c-3.524,0-9.543,3.611-9.456,10.405L105.047,62.582z"/>
	<path fill="none" stroke="#000000" stroke-width="4.1882" stroke-linecap="round" stroke-linejoin="round" d="M171.617,56.82
		c0,10.92-8.856,16.165-18.312,16.165c-4.212,0-7.224-1.03-9.285-2.236l0.171,13.242l12.037,5.155l-29.233,1.119l10.749-6.274
		l-1.892-37.488l-13.499-4.812l21.493-2.412l0.088,5.759c1.976-1.03,5.845-2.576,11.349-2.576
		C163.792,42.465,171.617,47.535,171.617,56.82z M144.018,62.582c0,4.384,3.439,7.479,9.284,7.479
		c6.276,0,10.316-4.986,10.316-12.981c0-7.91-5.846-11.694-10.232-11.694c-3.525,0-9.542,3.611-9.456,10.405L144.018,62.582z"/>
	<path fill="none" stroke="#000000" stroke-width="4.1882" stroke-linecap="round" stroke-linejoin="round" d="M182.593,43.745
		c0.948,0.944,0.948,2.923,0.948,2.923c0,1.976-2.322,4.124-4.901,4.124c-2.752,0-3.956-1.976-4.043-3.864
		c0-1.977,6.62-10.147,19.517-10.147c9.543,0,14.1,9.543,13.672,15.472c0,0,0,3.526-1.12,15.566l8.34,4.126l-16.507,2.665
		l0.604-3.695c-6.363,1.545-11.436,1.545-11.436,1.633c-1.975,0-14.358-0.432-14.444-7.739c0-7.396,7.223-11.608,16.426-11.092
		c0,0,9.454,0,10.145,0.605c1.978-14.96-7.308-14.96-7.308-14.96s-8.34,0-9.888,4.469v-0.086H182.593z M199.534,63.346
		c0-1.291,0-0.856,0-4.127c0-3.179-5.246-3.869-8.169-3.869c-2.925,0-9.457,0.858-9.457,7.567c0,4.985,5.074,6.791,8.167,6.791
		C199.964,69.707,199.534,64.634,199.534,63.346z"/>
	<path fill="none" stroke="#000000" stroke-width="4.1882" stroke-linecap="round" stroke-linejoin="round" d="M247.141,58.81
		c-6.362-18.059-14.186-18.059-14.186-18.059c-8.166,0-12.124,7.824-12.124,15.648c0,7.911,2.75,15.908,11.178,15.908
		c0,0,8.425,0,11.348-7.312L248,66.635c-2.32,7.907-15.561,7.907-15.561,7.907c-9.543,0-20.119-5.501-20.119-18.14
		c-0.084-12.723,13.586-17.969,19.001-17.969c0,0,5.417,0,12.382,3.957l5.759-4.472L247.141,58.81z"/>
	<path fill="none" stroke="#000000" stroke-width="4.1882" stroke-linecap="round" stroke-linejoin="round" d="M265.935,41.649
		l-1.372,26.565l7.391,5.071l-21.493-0.428l8.083-4.985l-1.116-22.355l-8.171-3.867L265.935,41.649L265.935,41.649L265.935,41.649z"
		/>
	<path fill="none" stroke="#000000" stroke-width="4.1882" stroke-linecap="round" stroke-linejoin="round" d="M294.971,73.5
		l7.567-4.641c4.643-23.991-6.104-23.991-6.104-23.991c-4.559,0-7.739,2.324-9.546,4.216c-0.601,5.245-1.29,12.208-1.374,14.269
		c0,0-0.172,3.528,0.43,5.163l7.997,3.954l-24.848,0.345c4.213-2.24,5.933-2.927,5.933-2.927c0.086,0,1.805-0.685,3.953-1.975
		l-0.256-19.863l-10.061-5.331l18.918-0.344c-0.088,0.778-0.176,1.976-0.176,1.976c1.892-1.026,5.763-2.661,10.231-2.661
		c8.596,0,11.691,5.931,12.552,11.604c-0.088,0,1.03,7.05,0.429,16.163l8.253,4.643L294.971,73.5z"/>
	<path fill="none" stroke="#000000" stroke-width="4.1882" stroke-linecap="round" stroke-linejoin="round" d="M314.403,57.306
		c0-6.019,6.364-16.592,22.355-16.592c7.565,0,15.736,4.813,15.736,14.1c0,10.058-6.277,18.915-21.84,18.915
		c-10.489,0-16.336-8.252-16.336-16.421L314.403,57.306L314.403,57.306z M332.887,44.755c-4.811,0-10.485,3.781-10.485,12.641
		c0,8.338,5.071,11.948,10.914,11.948c4.986,0,11.521-2.578,11.521-12.294c0-6.621-4.042-12.296-11.863-12.296L332.887,44.755
		L332.887,44.755z"/>
	<path d="M169.713,84.553c0.669-0.556,1.447-0.892,2.557-0.892c1.893,0.112,3.003,0.892,3.226,2.449
		c0.781-0.337,1.781-0.558,2.893-0.668c-0.668-2.004-2.557-3.114-5.673-3.449c-1.777,0-3.002,0.225-4.224,1.112
		c-0.894,0.556-1.448,1.337-1.892,2.226c-0.892,2.112-0.668,3.891,0.444,5.342c1.113,1.554,3.004,2.223,5.672,2.223
		c2.893,0,4.897-1.11,6.008-3.229c-0.779-0.219-1.67-0.552-2.67-0.893c-0.667,1.562-1.89,2.452-3.45,2.562
		c-1.222,0-2.112-0.339-2.891-1.113c-0.89-1.002-1.222-2.223-1.001-3.67C168.823,85.774,169.156,85.111,169.713,84.553z"/>
	<path d="M198.298,85.774c1.004-0.108,2.002-0.221,2.782-0.221c0-1.556-0.668-2.778-2.117-3.225c-2.223-0.891-4.559-0.556-6.894,1
		v-1.556c-1.11,0.221-2.003,0.221-2.778,0.445c0.442,3.893,0.555,7.451,0.555,10.79c0.889-0.108,1.668-0.334,2.224-0.444v-7.121
		c1.893-1.445,3.448-2.114,4.783-1.669C197.743,83.996,198.298,84.666,198.298,85.774z"/>
	<path d="M213.875,83.106c-1,0.668-1.668,1.445-2.003,2.334c-0.892,2.004-0.779,3.784,0.443,5.231
		c1.335,1.668,3.224,2.335,5.785,2.111c2.778-0.219,5.004-1.334,6.563-3.332c-0.781-0.339-1.562-0.558-2.56-0.897
		c-1.111,1.669-2.561,2.562-4.228,2.562c-1.222,0.112-2.338-0.335-3.007-1.001c-0.552-0.669-0.997-1.337-1.109-2.004
		c3.338-0.333,6.674-0.445,10.122-0.333c0.111-1.67-0.223-3.113-1.336-4.115c-1-0.889-2.56-1.443-4.336-1.443
		C216.543,82.102,215.098,82.44,213.875,83.106z M217.544,83.662c2.337,0,3.449,1.004,3.558,2.558l-7.229,0.225
		c0.112-0.67,0.554-1.335,1.109-1.778C215.652,83.996,216.543,83.662,217.544,83.662z"/>
	<path d="M238.124,85.886c0.221-1.556,1.112-2.333,2.893-2.333c2.451,0.108,3.778,1.114,4.117,3.227
		c-1.11-0.448-2.56-0.667-4.228-0.555c-1.447,0-2.668,0.333-3.673,0.777c-1.554,0.78-2.114,1.666-2.114,3.001
		c0.223,1.115,0.779,1.895,1.891,2.561c1.116,0.667,2.562,1,4.45,0.892c1.337-0.221,2.451-0.445,3.337-0.892v0.667
		c0.895-0.11,1.672-0.221,2.452-0.221l-0.221-6.896c-0.225-3.228-2.336-4.673-6.341-4.334c-3.115,0.219-4.897,1.558-5.341,3.891
		C236.454,85.774,237.347,85.774,238.124,85.886z M243.127,88.001c1.116,0.333,1.779,0.552,1.894,1.11
		c0.112,0.554-0.225,1.227-0.998,1.668c-0.672,0.556-1.449,0.779-2.565,0.894c-2.22,0.221-3.446-0.334-3.665-1.447
		c-0.112-1.114,0.888-1.894,2.778-2.225C241.349,87.889,242.237,87.889,243.127,88.001z"/>
	<path d="M259.258,82.218l-1.445,0.222c0.106,0.666,0,1.222-0.112,1.666l1.333-0.11l-0.219,4.561
		c-0.11,1.113,0.219,2.117,0.777,2.893c0.558,0.778,1.337,1.224,2.226,1.446c3.338,0.667,4.894-0.556,4.783-3.671
		c-0.893,0-1.776,0-2.559-0.221c0.112,1.668-0.336,2.336-1.223,2.336c-1.114-0.112-1.776-1.001-1.776-2.336
		c0-1.221,0.219-3.005,0.443-5.117l3.67-0.112c0-0.666,0.221-1.334,0.221-2.001l-3.672,0.329l0.449-4.332
		c-1.115,0.22-2.005,0.336-2.894,0.336C259.369,79.101,259.369,80.548,259.258,82.218z"/>
	<path d="M280.392,82.218c-1.112,0-2.002,0.11-2.78,0.222c0.219,3.779,0.219,7.229,0,10.455c1.004-0.333,1.668-0.445,2.338-0.445
		C279.95,89.669,280.172,86.332,280.392,82.218z"/>
	<path d="M297.747,81.994c-1.895,0.108-3.452,0.781-4.783,2.004c-1.449,1.334-1.895,3.002-1.449,5.006
		c0.67,2.56,2.895,3.782,6.896,3.671c1.778,0,3.45-0.445,4.785-1.445c1.445-1.113,2.113-2.673,2.226-4.449
		c0-1.667-0.56-2.78-1.893-3.672C302.081,82.218,300.192,81.881,297.747,81.994z M298.19,83.662c1.448,0,2.449,0.223,3.337,0.892
		c0.891,0.558,1.445,1.558,1.335,2.782c-0.221,2.442-1.778,3.783-4.45,3.892c-1,0-1.89-0.337-2.666-0.666
		c-0.894-0.558-1.449-1.337-1.668-2.116c-0.223-1.337,0-2.45,0.776-3.338C295.746,84.106,296.854,83.662,298.19,83.662z"/>
	<path d="M328.001,86.332c-0.221-2.226-0.89-3.671-2.558-4.229c-1.891-0.664-4.228-0.219-6.675,1.227v-1.664
		c-0.895,0.219-1.776,0.329-2.669,0.329c0.443,3.893,0.556,7.565,0.11,10.904c0.891,0,1.78-0.224,2.893-0.224
		c0-0.889,0-3.45-0.336-7.45c0.779-0.448,1.668-0.894,2.562-1.225c0.998-0.332,1.891-0.444,2.445-0.332
		c1.113,0.22,1.668,1.337,1.668,3.332c0,1.336-0.333,3.116-0.892,5.564c1,0,2.003,0.11,2.778,0.336
		C327.778,89.669,328.001,87.444,328.001,86.332z"/>
	<path d="M341.352,85.44c0-0.441,0.219-0.776,0.776-1.222c0.556-0.332,1.112-0.557,1.893-0.665c1.998-0.221,3.445,0.219,3.889,1.556
		c1.112-0.337,2.113-0.443,3.113-0.443c-0.219-0.894-1.112-1.558-2.222-2.115c-1.337-0.557-3.003-0.777-5.119-0.557
		c-1.891,0.225-3.45,0.779-4.226,1.668c-0.668,0.781-0.891,1.56-0.556,2.56c0.445,0.89,1.002,1.558,2.007,1.891
		c1.11,0.444,2.558,0.444,4.336,0c3.001-0.666,4.448-0.219,4.448,1.004c-0.112,1.449-1.223,2.222-3.336,2.333
		c-2.229,0.221-3.784-0.555-4.45-2.004c-0.998,0.221-2.003,0.669-2.782,0.896c0.337,1.219,1.337,2.001,3.007,2.445
		c1.337,0.445,2.776,0.445,4.562,0.221c3.56-0.444,5.448-1.669,5.561-4.007c0.223-1.221-0.333-2.114-1.445-2.56
		c-1.004-0.556-2.562-0.556-4.448,0C343.016,87.335,341.352,86.887,341.352,85.44z"/>
	
		<linearGradient id="SVGID_2_" gradientUnits="userSpaceOnUse" x1="-549.1709" y1="-394.063" x2="-549.1709" y2="-448.917" gradientTransform="matrix(1 0 0 -1 582 -373.583)">
		<stop  offset="0" style="stop-color:#4D4D4D"/>
		<stop  offset="1" style="stop-color:#2A2A2A"/>
	</linearGradient>
	<path fill="url(#SVGID_2_)" d="M48.305,68.968l9.973,2.32l-14.101,4.045c-6.191-14.274-9.802-16.595-9.802-16.595
		c-2.32-1.378-5.761-1.378-7.564-1.292c-0.946,0.947-1.808,1.808-2.493,2.492l-0.343,7.997l8.426,4.469H9.616l8.254-4.469
		l-1.118-42.042l-9.373-3.955l18.229-1.459l-1.204,36.364L36.787,43.95l14.701-1.029c-8.425,3.177-10.491,3.866-10.491,3.866
		c-1.976,0.775-4.642,2.239-6.533,3.696c-0.689,0.517-2.409,2.064-4.386,3.869c2.062,0.086,7.221,0.256,9.456,1.807
		C39.536,56.159,43.061,58.649,48.305,68.968z"/>
	
		<linearGradient id="SVGID_3_" gradientUnits="userSpaceOnUse" x1="-508.5063" y1="-410.3633" x2="-508.5063" y2="-448.1934" gradientTransform="matrix(1 0 0 -1 582 -373.583)">
		<stop  offset="0" style="stop-color:#4D4D4D"/>
		<stop  offset="1" style="stop-color:#2A2A2A"/>
	</linearGradient>
	<path fill="url(#SVGID_3_)" d="M61.973,43.745c0.946,0.944,0.946,2.923,0.946,2.923c0,1.976-2.32,4.124-4.899,4.124
		c-2.751,0-3.956-1.976-4.042-3.864c0-1.977,6.621-10.147,19.517-10.147c9.543,0,14.101,9.543,13.669,15.472
		c0,0,0,3.526-1.118,15.566l8.341,4.126L77.877,74.61l0.603-3.695c-6.363,1.545-11.434,1.545-11.434,1.633
		c-1.976,0-14.358-0.432-14.445-7.739c0-7.396,7.223-11.608,16.423-11.092c0,0,9.456,0,10.145,0.605
		C81.146,39.36,71.86,39.36,71.86,39.36s-8.338,0-9.888,4.468V43.745L61.973,43.745z M78.911,63.346c0-1.291,0-0.856,0-4.127
		c0-3.179-5.246-3.869-8.168-3.869c-2.923,0-9.457,0.858-9.457,7.567c0,4.985,5.072,6.791,8.167,6.791
		C79.34,69.707,78.911,64.634,78.911,63.346z"/>
	
		<linearGradient id="SVGID_4_" gradientUnits="userSpaceOnUse" x1="-473.9854" y1="-412.8618" x2="-473.9854" y2="-463.8486" gradientTransform="matrix(1 0 0 -1 582 -373.583)">
		<stop  offset="0" style="stop-color:#4D4D4D"/>
		<stop  offset="1" style="stop-color:#2A2A2A"/>
	</linearGradient>
	<path fill="url(#SVGID_4_)" d="M132.646,56.82c0,10.92-8.857,16.165-18.313,16.165c-4.213,0-7.223-1.03-9.285-2.236l0.172,13.242
		l12.037,5.155l-29.231,1.119l10.748-6.274l-1.89-37.488L83.382,41.69l21.494-2.412l0.088,5.759
		c1.976-1.03,5.847-2.576,11.348-2.576C124.821,42.465,132.646,47.535,132.646,56.82z M105.047,62.582
		c0,4.384,3.438,7.479,9.284,7.479c6.275,0,10.316-4.986,10.316-12.981c0-7.91-5.846-11.694-10.231-11.694
		c-3.524,0-9.543,3.611-9.456,10.405L105.047,62.582z"/>
	
		<linearGradient id="SVGID_5_" gradientUnits="userSpaceOnUse" x1="-435.0146" y1="-412.8618" x2="-435.0146" y2="-463.8486" gradientTransform="matrix(1 0 0 -1 582 -373.583)">
		<stop  offset="0" style="stop-color:#4D4D4D"/>
		<stop  offset="1" style="stop-color:#2A2A2A"/>
	</linearGradient>
	<path fill="url(#SVGID_5_)" d="M171.617,56.82c0,10.92-8.856,16.165-18.312,16.165c-4.212,0-7.224-1.03-9.285-2.236l0.171,13.242
		l12.037,5.155l-29.233,1.119l10.749-6.274l-1.892-37.488l-13.499-4.812l21.493-2.412l0.088,5.759
		c1.976-1.03,5.845-2.576,11.349-2.576C163.792,42.465,171.617,47.535,171.617,56.82z M144.018,62.582
		c0,4.384,3.439,7.479,9.284,7.479c6.276,0,10.316-4.986,10.316-12.981c0-7.91-5.846-11.694-10.232-11.694
		c-3.525,0-9.542,3.611-9.456,10.405L144.018,62.582z"/>
	
		<linearGradient id="SVGID_6_" gradientUnits="userSpaceOnUse" x1="-387.8857" y1="-410.3633" x2="-387.8857" y2="-448.1934" gradientTransform="matrix(1 0 0 -1 582 -373.583)">
		<stop  offset="0" style="stop-color:#4D4D4D"/>
		<stop  offset="1" style="stop-color:#2A2A2A"/>
	</linearGradient>
	<path fill="url(#SVGID_6_)" d="M182.593,43.745c0.948,0.944,0.948,2.923,0.948,2.923c0,1.976-2.322,4.124-4.901,4.124
		c-2.752,0-3.956-1.976-4.043-3.864c0-1.977,6.62-10.147,19.517-10.147c9.543,0,14.1,9.543,13.672,15.472c0,0,0,3.526-1.12,15.566
		l8.34,4.126l-16.507,2.665l0.604-3.695c-6.363,1.545-11.436,1.545-11.436,1.633c-1.975,0-14.358-0.432-14.444-7.739
		c0-7.396,7.223-11.608,16.426-11.092c0,0,9.454,0,10.145,0.605c1.978-14.96-7.308-14.96-7.308-14.96s-8.34,0-9.888,4.469v-0.086
		H182.593z M199.534,63.346c0-1.291,0-0.856,0-4.127c0-3.179-5.246-3.869-8.169-3.869c-2.925,0-9.457,0.858-9.457,7.567
		c0,4.985,5.074,6.791,8.167,6.791C199.964,69.707,199.534,64.634,199.534,63.346z"/>
	
		<linearGradient id="SVGID_7_" gradientUnits="userSpaceOnUse" x1="-321.395" y1="-415.2324" x2="-321.395" y2="-446.8691" gradientTransform="matrix(1 0 0 -1 582 -373.583)">
		<stop  offset="0" style="stop-color:#4D4D4D"/>
		<stop  offset="1" style="stop-color:#2A2A2A"/>
	</linearGradient>
	<path fill="url(#SVGID_7_)" d="M265.935,41.649l-1.372,26.565l7.391,5.071l-21.493-0.428l8.083-4.985l-1.116-22.355l-8.171-3.867
		L265.935,41.649L265.935,41.649L265.935,41.649z"/>
	
		<linearGradient id="SVGID_8_" gradientUnits="userSpaceOnUse" x1="-288.2339" y1="-415.2744" x2="-288.2339" y2="-447.6846" gradientTransform="matrix(1 0 0 -1 582 -373.583)">
		<stop  offset="0" style="stop-color:#4D4D4D"/>
		<stop  offset="1" style="stop-color:#2A2A2A"/>
	</linearGradient>
	<path fill="url(#SVGID_8_)" d="M294.971,73.5l7.567-4.641c4.643-23.991-6.104-23.991-6.104-23.991
		c-4.559,0-7.739,2.324-9.546,4.216c-0.601,5.245-1.29,12.208-1.374,14.269c0,0-0.172,3.528,0.43,5.163l7.997,3.954l-24.848,0.345
		c4.213-2.24,5.933-2.927,5.933-2.927c0.086,0,1.805-0.685,3.953-1.975l-0.256-19.863l-10.061-5.331l18.918-0.344
		c-0.088,0.778-0.176,1.976-0.176,1.976c1.892-1.026,5.763-2.661,10.231-2.661c8.596,0,11.691,5.931,12.552,11.604
		c-0.088,0,1.03,7.05,0.429,16.163l8.253,4.643L294.971,73.5z"/>
	
		<linearGradient id="SVGID_9_" gradientUnits="userSpaceOnUse" x1="-248.5933" y1="-414.2969" x2="-248.5933" y2="-447.3125" gradientTransform="matrix(1 0 0 -1 582 -373.583)">
		<stop  offset="0" style="stop-color:#4D4D4D"/>
		<stop  offset="1" style="stop-color:#2A2A2A"/>
	</linearGradient>
	<path fill="url(#SVGID_9_)" d="M314.403,57.306c0-6.019,6.364-16.592,22.355-16.592c7.565,0,15.736,4.813,15.736,14.1
		c0,10.058-6.277,18.915-21.84,18.915c-10.489,0-16.336-8.252-16.336-16.421L314.403,57.306L314.403,57.306z M332.887,44.755
		c-4.811,0-10.485,3.781-10.485,12.641c0,8.338,5.071,11.948,10.914,11.948c4.986,0,11.521-2.578,11.521-12.294
		c0-6.621-4.042-12.296-11.863-12.296L332.887,44.755L332.887,44.755z"/>
	
		<linearGradient id="SVGID_10_" gradientUnits="userSpaceOnUse" x1="-351.1094" y1="-411.5015" x2="-351.1094" y2="-448.126" gradientTransform="matrix(1 0 0 -1 582 -373.583)">
		<stop  offset="0" style="stop-color:#4D4D4D"/>
		<stop  offset="1" style="stop-color:#2A2A2A"/>
	</linearGradient>
	<path fill="url(#SVGID_10_)" d="M247.141,58.81c-6.362-18.059-14.186-18.059-14.186-18.059c-8.166,0-12.124,7.824-12.124,15.648
		c0,7.911,2.75,15.908,11.178,15.908c0,0,8.425,0,11.348-7.312L248,66.635c-2.32,7.907-15.561,7.907-15.561,7.907
		c-9.543,0-20.119-5.501-20.119-18.14c-0.084-12.723,13.586-17.969,19.001-17.969c0,0,5.417,0,12.382,3.957l5.759-4.472
		L247.141,58.81z"/>
	<polyline opacity="0.99" fill="#B9B9B9" enable-background="new    " points="7.223,21.781 8.944,21.667 25.587,20.288 
		25.091,22.377 16.037,23.473 19.518,25.959 20.513,67.25 12.849,72.656 9.749,72.54 18.017,67.715 16.524,26.029 	"/>
	<polygon opacity="0.99" fill="#B9B9B9" enable-background="new    " points="24.563,56.577 36.738,43.712 51.666,42.794 
		37.31,44.865 	"/>
	<path opacity="0.99" fill="#B9B9B9" enable-background="new    " d="M30.322,54.326c0,0,7.24,0.098,9.357,1.919
		c0,0,4.577,4.14,8.617,12.707l10.047,2.218l-10.685-1.234C47.659,69.935,43.079,55.358,30.322,54.326z"/>
	<path opacity="0.99" fill="#B9B9B9" enable-background="new    " d="M57.782,50.787c0,0-4.641,0.099-3.531-5.045
		c0,0,4.54-8.275,17.655-8.979c0,0,7.769-0.707,11.604,4.843l21.387-2.421v2.522L88.454,42.11l10.593,3.934l2.016,37.229
		L90.27,90.338l-2.221,0.1l2.927-2.018l7.668-4.439l-1.815-37.432l-12.612-4.441l-1.513-0.402c0,0-6.255-6.559-15.538-3.23
		C57.884,41.808,53.949,46.044,57.782,50.787z"/>
	<path opacity="0.99" fill="#B9B9B9" enable-background="new    " d="M79.171,54.217c0,0-11.098-1.214-15.137-0.305
		c0,0-10.594,1.11-11.198,9.686c0,0-2.318,5.953,7.871,8.274c0,0-9.888-7.365-1.414-14.933
		C59.295,56.94,64.239,54.419,79.171,54.217z"/>
	<path opacity="0.99" fill="#B9B9B9" enable-background="new    " d="M78.449,71.107l-0.503,3.534l3.833-0.638
		C81.778,74.003,78.585,74.617,78.449,71.107z"/>
	<path opacity="0.99" fill="#B9B9B9" enable-background="new    " d="M204.56,42.11l-1.513-0.404c0,0-6.255-6.558-15.538-3.229
		c-9.283,3.329-13.216,7.567-9.383,12.309c0,0-4.642,0.099-3.531-5.045c0,0,4.539-8.275,17.654-8.979c0,0,7.769-0.707,11.602,4.843"
		/>
	<path opacity="0.99" fill="#B9B9B9" enable-background="new    " d="M208.681,42.11"/>
	<path opacity="0.99" fill="#B9B9B9" enable-background="new    " d="M199.575,54.391c0,0-11.099-1.212-15.136-0.303
		c0,0-10.595,1.108-11.2,9.686c0,0-2.32,5.952,7.872,8.272c0,0-9.888-7.36-1.414-14.929
		C179.699,57.114,184.645,54.591,199.575,54.391z"/>
	<path opacity="0.99" fill="#B9B9B9" enable-background="new    " d="M199.042,71.166l-0.501,3.532l4.081-0.709
		C202.622,73.987,200.658,74.219,199.042,71.166z"/>
	<path opacity="0.99" fill="#B9B9B9" enable-background="new    " d="M119.122,46.549c0,0,5.954,3.834,5.448,10.996
		c0,0-1.311,9.282-5.044,11.098C119.527,68.643,137.587,57.142,119.122,46.549z"/>
	<polyline opacity="0.99" fill="#B9B9B9" enable-background="new    " points="122.451,41.606 143.84,39.184 143.84,41.707 
		127.395,42.11 137.989,46.044 140.007,83.273 129.211,90.334 126.991,90.436 129.918,88.417 137.586,83.979 135.77,46.549 
		123.158,42.11 121.645,41.707 	"/>
	<path opacity="0.99" fill="#B9B9B9" enable-background="new    " d="M158.066,46.549c0,0,5.954,3.834,5.446,10.996
		c0,0-1.311,9.282-5.044,11.098C158.47,68.643,176.53,57.142,158.066,46.549z"/>
	<path opacity="0.99" fill="#B9B9B9" enable-background="new    " d="M249.34,37.952l-5.511,4.339c0,0-10.44-7.389-20.408-1.757
		c0,0-12.313,4.337-11.026,17.244c0,0-0.352,11.611,12.785,15.831c0,0-20.526-12.664-4.809-29.558c0,0,12.082-9.147,23.462,0
		l5.393-3.985L249.34,37.952z"/>
	<path opacity="0.99" fill="#B9B9B9" enable-background="new    " d="M248.168,66.689l-4.689-1.76c0,0-3.638,7.038-10.558,7.156
		c0,0,9.738-0.819,11.028-6.217l3.986,1.525L248.168,66.689z"/>
	<polygon opacity="0.99" fill="#B9B9B9" enable-background="new    " points="249.576,41.824 257.437,45.695 258.492,67.746 
		250.634,72.437 250.634,73.022 260.015,68.684 259.545,44.872 255.088,42.646 265.765,43.115 266.115,41.355 250.283,41.707 	"/>
	<polygon opacity="0.99" fill="#B9B9B9" enable-background="new    " points="287.668,42.191 268.705,42.703 278.902,48.04 
		279.02,67.981 270.574,71.85 271.63,72.67 280.542,68.333 280.191,46.985 273.504,43.582 287.582,43.208 	"/>
	<path opacity="0.99" fill="#B9B9B9" enable-background="new    " d="M294.951,73.518l7.532-4.74c0,0,5.082-20.488-5.588-23.874
		c0,0,12.444-1.02,7.197,23.617l-6.856,4.997H294.951L294.951,73.518L294.951,73.518z"/>
	<path opacity="0.99" fill="#B9B9B9" enable-background="new    " d="M287.754,44.141c0,0,8.975-4.744,16-1.101
		c0,0,4.066,2.116,5.082,5.418C308.834,48.457,301.641,39.57,287.754,44.141z"/>
	<path opacity="0.99" fill="#B9B9B9" enable-background="new    " d="M331.022,41.297c0,0-11.831,1.232-15.647,11.458
		c0,0-5.792,14.164,10.963,20.575c0,0,9.486,1.232,14.785-1.232c0,0-17.492,3.327-23.285-7.517
		C317.837,64.583,310.078,51.525,331.022,41.297z"/>
	<path opacity="0.99" fill="#B9B9B9" enable-background="new    " d="M340.139,46.968c0,0,5.052,3.818,4.684,10.716
		c0,0,0.196,5.828-5.09,10.162C339.729,67.846,354.923,58.794,340.139,46.968z"/>
	<path opacity="0.99" fill="#B9B9B9" enable-background="new    " d="M256.098,4.864c0,0-6.492,1.926-8.741,6.093
		c0,0-5.688,6.816-1.042,16.276c0,0,3.53,8.178,14.029,8.497C260.346,35.732,237.738,24.186,256.098,4.864z"/>
	<ellipse fill="#B4B4B4" stroke="#000000" stroke-width="1.3961" cx="260.142" cy="27.116" rx="8.569" ry="3.594"/>
	<circle cx="251.573" cy="21.388" r="2.35"/>
	<circle cx="268.989" cy="21.388" r="2.35"/>
	<polygon fill="#131313" stroke="#000000" stroke-width="1.3961" stroke-linecap="round" stroke-linejoin="round" points="
		245.152,11.727 241.282,16.978 250.127,14.212 254.262,17.569 257.871,14.487 261.739,17.532 264.504,13.385 270.032,17.532 
		271.139,14.212 279.404,17.18 274.869,11.45 	"/>
	<polygon opacity="0.99" fill="#B9B9B9" enable-background="new    " points="243.349,15.766 245.516,12.159 247.441,12.239 	"/>
	<polygon opacity="0.99" fill="#B9B9B9" enable-background="new    " points="250.645,13.684 254.333,16.809 255.056,16.088 
		251.368,13.04 	"/>
	<polygon opacity="0.99" fill="#B9B9B9" enable-background="new    " points="258.422,14.167 261.788,16.731 259.623,13.284 	"/>
	<polygon opacity="0.99" fill="#B9B9B9" enable-background="new    " points="265.156,12.72 269.645,16.247 269.964,15.286 	"/>
	<polygon opacity="0.99" fill="#B9B9B9" enable-background="new    " points="271.408,13.441 277.581,15.847 272.932,12.72 	"/>
	<circle opacity="0.99" fill="#B9B9B9" enable-background="new    " cx="251.489" cy="21.338" r="1.404"/>
	<circle opacity="0.99" fill="#B9B9B9" enable-background="new    " cx="268.883" cy="21.338" r="1.405"/>
	<circle opacity="0.71" enable-background="new    " cx="251.526" cy="21.3" r="1.042"/>
	<circle opacity="0.71" enable-background="new    " cx="268.925" cy="21.3" r="1.042"/>
	<circle fill="#FFFFFF" cx="251.609" cy="20.577" r="0.843"/>
	<circle fill="#FFFFFF" cx="268.764" cy="20.577" r="0.843"/>
	<path opacity="0.78" fill="#FFFFFF" enable-background="new    " d="M258.721,24.269c0,0-6.599,0.624-6.441,3.117
		c0,0,0.677,2.652,8.833,2.702C261.111,30.087,248.639,28.325,258.721,24.269z"/>
</g>
</svg>
