<?xml version="1.0" encoding="utf-8"?>
<!-- Generator: Adobe Illustrator 16.0.0, SVG Export Plug-In . SVG Version: 6.00 Build 0)  -->
<!DOCTYPE svg PUBLIC "-//W3C//DTD SVG 1.1//EN" "http://www.w3.org/Graphics/SVG/1.1/DTD/svg11.dtd">
<svg version="1.1" id="Layer_3" xmlns="http://www.w3.org/2000/svg" xmlns:xlink="http://www.w3.org/1999/xlink" x="0px" y="0px"
	 width="363.149px" height="104.417px" viewBox="0 0 363.149 104.417" enable-background="new 0 0 363.149 104.417"
	 xml:space="preserve">
<g id="Layer_10_1_">
	<circle fill="#2B3990" cx="263.744" cy="22.344" r="16.308"/>
	<path fill="#822D0D" stroke="#2B3990" stroke-width="2.7922" stroke-linecap="round" stroke-linejoin="round" d="M51.956,72.57
		l9.976,2.32l-14.101,4.043c-6.192-14.274-9.801-16.595-9.801-16.595c-2.32-1.378-5.761-1.378-7.567-1.29
		c-0.946,0.945-1.805,1.806-2.492,2.492l-0.344,7.997l8.426,4.471H13.268l8.254-4.471l-1.118-42.043l-9.372-3.954l18.229-1.462
		l-1.203,36.367l12.38-12.895l14.702-1.032c-8.426,3.181-10.49,3.869-10.49,3.869c-1.977,0.774-4.644,2.234-6.535,3.696
		c-0.688,0.515-2.408,2.064-4.387,3.869c2.066,0.086,7.223,0.256,9.459,1.806C43.188,59.759,46.712,62.25,51.956,72.57z"/>
	<path fill="#822D0D" stroke="#2B3990" stroke-width="2.7922" stroke-linecap="round" stroke-linejoin="round" d="M65.626,47.344
		c0.948,0.942,0.948,2.923,0.948,2.923c0,1.978-2.321,4.124-4.902,4.124c-2.751,0-3.956-1.976-4.041-3.866
		c0-1.979,6.621-10.145,19.515-10.145c9.545,0,14.101,9.541,13.673,15.474c0,0,0,3.526-1.119,15.562l8.339,4.124l-16.507,2.665
		l0.602-3.695C75.772,76.057,70.7,76.057,70.7,76.147c-1.976,0-14.356-0.434-14.444-7.739c0-7.394,7.224-11.607,16.424-11.092
		c0,0,9.455,0,10.144,0.602c1.979-14.96-7.308-14.96-7.308-14.96s-8.337,0-9.886,4.473v-0.084h-0.003V47.344z M82.564,66.948
		c0-1.293,0-0.862,0-4.129c0-3.179-5.248-3.869-8.171-3.869c-2.923,0-9.455,0.86-9.455,7.565c0,4.987,5.071,6.793,8.166,6.793
		C82.991,73.308,82.564,68.236,82.564,66.948z"/>
	<path fill="#822D0D" stroke="#2B3990" stroke-width="2.7922" stroke-linecap="round" stroke-linejoin="round" d="M136.299,60.421
		c0,10.92-8.856,16.165-18.314,16.165c-4.213,0-7.221-1.03-9.285-2.236l0.172,13.242l12.036,5.155l-29.231,1.116l10.746-6.271
		l-1.889-37.488l-13.502-4.815l21.496-2.408l0.085,5.759c1.977-1.03,5.847-2.577,11.348-2.577
		C128.473,46.061,136.299,51.136,136.299,60.421z M108.699,66.182c0,4.385,3.438,7.479,9.285,7.479
		c6.275,0,10.318-4.986,10.318-12.98c0-7.911-5.847-11.695-10.231-11.695c-3.526,0-9.544,3.612-9.457,10.405L108.699,66.182z"/>
	<path fill="#822D0D" stroke="#2B3990" stroke-width="2.7922" stroke-linecap="round" stroke-linejoin="round" d="M175.27,60.421
		c0,10.92-8.856,16.165-18.313,16.165c-4.212,0-7.223-1.03-9.286-2.236l0.172,13.242l12.039,5.155l-29.233,1.116l10.748-6.271
		l-1.891-37.488l-13.501-4.815l21.494-2.408l0.086,5.759c1.977-1.03,5.847-2.577,11.348-2.577
		C167.443,46.061,175.27,51.136,175.27,60.421z M147.669,66.182c0,4.385,3.441,7.479,9.288,7.479c6.273,0,10.315-4.986,10.315-12.98
		c0-7.911-5.846-11.695-10.231-11.695c-3.526,0-9.543,3.612-9.456,10.405L147.669,66.182z"/>
	<path fill="#822D0D" stroke="#2B3990" stroke-width="2.7922" stroke-linecap="round" stroke-linejoin="round" d="M186.248,47.344
		c0.946,0.942,0.946,2.923,0.946,2.923c0,1.978-2.322,4.124-4.901,4.124c-2.751,0-3.955-1.976-4.04-3.866
		c0-1.979,6.617-10.145,19.515-10.145c9.544,0,14.101,9.541,13.671,15.474c0,0,0,3.526-1.118,15.562l8.339,4.124l-16.507,2.665
		l0.604-3.695c-6.363,1.547-11.436,1.547-11.436,1.637c-1.977,0-14.355-0.434-14.445-7.739c0-7.394,7.225-11.607,16.424-11.092
		c0,0,9.456,0,10.144,0.602c1.98-14.96-7.307-14.96-7.307-14.96s-8.338,0-9.888,4.473v-0.084h-0.002V47.344z M203.186,66.948
		c0-1.293,0-0.862,0-4.129c0-3.179-5.246-3.869-8.169-3.869s-9.458,0.86-9.458,7.565c0,4.987,5.073,6.793,8.17,6.793
		C203.615,73.308,203.186,68.236,203.186,66.948z"/>
	<path fill="#822D0D" stroke="#2B3990" stroke-width="2.7922" stroke-linecap="round" stroke-linejoin="round" d="M269.587,45.25
		l-1.374,26.563l7.391,5.074l-21.493-0.43l8.083-4.987l-1.118-22.354l-8.167-3.869h16.679V45.25L269.587,45.25z"/>
	<path fill="#822D0D" stroke="#2B3990" stroke-width="2.7922" stroke-linecap="round" stroke-linejoin="round" d="M298.624,77.1
		l7.567-4.643c4.643-23.987-6.106-23.987-6.106-23.987c-4.558,0-7.739,2.324-9.544,4.212c-0.601,5.247-1.29,12.21-1.374,14.274
		c0,0-0.172,3.524,0.43,5.157l7.997,3.956l-24.85,0.345c4.215-2.236,5.933-2.923,5.933-2.923c0.088,0,1.807-0.688,3.955-1.979
		l-0.257-19.861l-10.06-5.33l18.915-0.343c-0.086,0.775-0.176,1.977-0.176,1.977c1.893-1.03,5.764-2.664,10.234-2.664
		c8.597,0,11.691,5.931,12.55,11.604c-0.084,0,1.032,7.053,0.432,16.167l8.254,4.643L298.624,77.1z"/>
	<path fill="#822D0D" stroke="#2B3990" stroke-width="2.7922" stroke-linecap="round" stroke-linejoin="round" d="M318.055,60.908
		c0-6.021,6.362-16.595,22.354-16.595c7.565,0,15.736,4.812,15.736,14.101c0,10.06-6.277,18.913-21.842,18.913
		c-10.487,0-16.332-8.253-16.332-16.419H318.055L318.055,60.908z M336.54,48.354c-4.812,0-10.489,3.784-10.489,12.64
		c0,8.34,5.072,11.952,10.918,11.952c4.986,0,11.52-2.582,11.52-12.298c0-6.617-4.04-12.294-11.865-12.294H336.54L336.54,48.354z"/>
	<path fill="#822D0D" stroke="#2B3990" stroke-width="2.7922" stroke-linecap="round" stroke-linejoin="round" d="M250.792,62.41
		c-6.362-18.058-14.188-18.058-14.188-18.058c-8.168,0-12.124,7.823-12.124,15.647c0,7.909,2.752,15.908,11.178,15.908
		c0,0,8.425,0,11.35-7.31l4.643,1.635c-2.32,7.909-15.561,7.909-15.561,7.909c-9.544,0-20.117-5.503-20.117-18.142
		c-0.088-12.723,13.584-17.968,18.999-17.968c0,0,5.419,0,12.382,3.957l5.759-4.472L250.792,62.41z"/>
	<polygon fill="#2B3990" points="279.372,19.734 282.957,20.885 281.548,18.58 278.347,17.686 	"/>
	
		<linearGradient id="SVGID_1_" gradientUnits="userSpaceOnUse" x1="-126.2686" y1="672.3657" x2="-126.2686" y2="704.9858" gradientTransform="matrix(1 0 0 1 388 -667)">
		<stop  offset="0" style="stop-color:#27AAE1"/>
		<stop  offset="0.181" style="stop-color:#26A6DF"/>
		<stop  offset="0.4241" style="stop-color:#239CD7"/>
		<stop  offset="0.7024" style="stop-color:#208BCB"/>
		<stop  offset="1" style="stop-color:#1C75BC"/>
	</linearGradient>
	
		<circle fill="url(#SVGID_1_)" stroke="#2B3990" stroke-width="1.3961" stroke-linecap="round" stroke-linejoin="round" cx="261.732" cy="21.677" r="16.31"/>
	<path fill="none" stroke="#2B3990" stroke-width="4.1882" stroke-linecap="round" stroke-linejoin="round" d="M49.892,70.638
		l9.974,2.322l-14.1,4.041c-6.189-14.271-9.801-16.595-9.801-16.595c-2.32-1.372-5.758-1.372-7.565-1.288
		c-0.946,0.946-1.808,1.806-2.493,2.494l-0.343,7.997l8.425,4.469H11.205l8.254-4.469L18.34,27.569l-9.37-3.956l18.228-1.462
		L25.994,58.52l12.379-12.898l14.702-1.03c-8.425,3.181-10.49,3.869-10.49,3.869c-1.977,0.775-4.64,2.236-6.533,3.694
		c-0.688,0.515-2.409,2.066-4.385,3.871c2.061,0.084,7.22,0.256,9.455,1.804C41.123,57.829,44.648,60.321,49.892,70.638z"/>
	<path fill="none" stroke="#2B3990" stroke-width="4.1882" stroke-linecap="round" stroke-linejoin="round" d="M63.561,45.417
		c0.947,0.944,0.947,2.923,0.947,2.923c0,1.978-2.321,4.126-4.9,4.126c-2.751,0-3.954-1.977-4.042-3.868
		c0-1.977,6.62-10.144,19.518-10.144c9.542,0,14.101,9.54,13.669,15.474c0,0,0,3.523-1.118,15.563l8.341,4.124L79.469,76.28
		l0.599-3.695c-6.362,1.545-11.433,1.545-11.433,1.637c-1.977,0-14.359-0.435-14.446-7.739c0-7.397,7.223-11.608,16.423-11.092
		c0,0,9.456,0,10.146,0.602c1.977-14.96-7.31-14.96-7.31-14.96s-8.338,0-9.887,4.471v-0.084h-0.001V45.417z M80.499,65.016
		c0-1.29,0-0.858,0-4.125c0-3.179-5.244-3.871-8.166-3.871c-2.923,0-9.459,0.862-9.459,7.567c0,4.989,5.072,6.793,8.171,6.793
		C80.931,71.376,80.499,66.306,80.499,65.016z"/>
	<path fill="none" stroke="#2B3990" stroke-width="4.1882" stroke-linecap="round" stroke-linejoin="round" d="M134.235,58.492
		c0,10.92-8.857,16.163-18.313,16.163c-4.212,0-7.223-1.03-9.287-2.236l0.172,13.242l12.039,5.158l-29.232,1.118l10.75-6.276
		L98.47,48.172l-13.5-4.813l21.494-2.407l0.087,5.76c1.977-1.03,5.846-2.581,11.348-2.581
		C126.412,44.134,134.235,49.208,134.235,58.492z M106.635,64.252c0,4.387,3.442,7.479,9.287,7.479
		c6.274,0,10.314-4.986,10.314-12.982c0-7.909-5.846-11.691-10.229-11.691c-3.526,0-9.545,3.609-9.456,10.403L106.635,64.252z"/>
	<path fill="none" stroke="#2B3990" stroke-width="4.1882" stroke-linecap="round" stroke-linejoin="round" d="M173.206,58.492
		c0,10.92-8.856,16.163-18.313,16.163c-4.212,0-7.223-1.03-9.284-2.236l0.172,13.242l12.036,5.158l-29.232,1.118l10.748-6.276
		l-1.891-37.488l-13.497-4.813l21.493-2.407l0.086,5.76c1.976-1.03,5.845-2.581,11.348-2.581
		C165.382,44.134,173.206,49.208,173.206,58.492z M145.608,64.252c0,4.387,3.439,7.479,9.284,7.479
		c6.276,0,10.318-4.986,10.318-12.982c0-7.909-5.846-11.691-10.233-11.691c-3.521,0-9.541,3.609-9.455,10.403L145.608,64.252z"/>
	<path fill="none" stroke="#2B3990" stroke-width="4.1882" stroke-linecap="round" stroke-linejoin="round" d="M184.183,45.417
		c0.948,0.944,0.948,2.923,0.948,2.923c0,1.978-2.322,4.126-4.902,4.126c-2.753,0-3.954-1.977-4.042-3.868
		c0-1.977,6.622-10.144,19.519-10.144c9.543,0,14.1,9.54,13.672,15.474c0,0,0,3.523-1.12,15.563l8.339,4.124L200.09,76.28
		l0.602-3.695c-6.363,1.545-11.434,1.545-11.434,1.637c-1.977,0-14.36-0.435-14.446-7.739c0-7.397,7.223-11.608,16.426-11.092
		c0,0,9.454,0,10.145,0.602c1.978-14.96-7.308-14.96-7.308-14.96s-8.34,0-9.89,4.471v-0.084h-0.002V45.417z M201.124,65.016
		c0-1.29,0-0.858,0-4.125c0-3.179-5.246-3.871-8.171-3.871c-2.923,0-9.457,0.862-9.457,7.567c0,4.989,5.074,6.793,8.171,6.793
		C201.552,71.376,201.124,66.306,201.124,65.016z"/>
	<path fill="none" stroke="#2B3990" stroke-width="4.1882" stroke-linecap="round" stroke-linejoin="round" d="M248.729,60.48
		c-6.36-18.054-14.186-18.054-14.186-18.054c-8.166,0-12.122,7.823-12.122,15.645c0,7.912,2.75,15.907,11.176,15.907
		c0,0,8.425,0,11.348-7.308l4.646,1.635c-2.32,7.909-15.562,7.909-15.562,7.909c-9.544,0-20.117-5.501-20.117-18.142
		c-0.088-12.722,13.584-17.969,18.999-17.969c0,0,5.419,0,12.384,3.957l5.759-4.472L248.729,60.48z"/>
	<path fill="none" stroke="#2B3990" stroke-width="4.1882" stroke-linecap="round" stroke-linejoin="round" d="M267.525,43.323
		l-1.372,26.563l7.391,5.071L252.05,74.53l8.081-4.987l-1.114-22.354l-8.169-3.869h16.677V43.323L267.525,43.323z"/>
	<path fill="none" stroke="#2B3990" stroke-width="4.1882" stroke-linecap="round" stroke-linejoin="round" d="M296.563,75.168
		l7.567-4.639c4.643-23.991-6.105-23.991-6.105-23.991c-4.559,0-7.739,2.324-9.543,4.213c-0.603,5.246-1.292,12.209-1.376,14.275
		c0,0-0.172,3.522,0.428,5.159l7.999,3.952l-24.848,0.345c4.213-2.236,5.933-2.923,5.933-2.923c0.086,0,1.805-0.688,3.953-1.977
		l-0.258-19.861l-10.059-5.33l18.917-0.345c-0.088,0.776-0.176,1.977-0.176,1.977c1.893-1.03,5.763-2.665,10.232-2.665
		c8.597,0,11.691,5.931,12.55,11.606c-0.084,0,1.034,7.051,0.432,16.163l8.254,4.646L296.563,75.168z"/>
	<path fill="none" stroke="#2B3990" stroke-width="4.1882" stroke-linecap="round" stroke-linejoin="round" d="M315.993,58.976
		c0-6.017,6.364-16.594,22.354-16.594c7.567,0,15.736,4.816,15.736,14.102c0,10.06-6.279,18.915-21.838,18.915
		c-10.489,0-16.336-8.253-16.336-16.423H315.993L315.993,58.976z M334.477,46.424c-4.811,0-10.487,3.782-10.487,12.64
		c0,8.338,5.072,11.95,10.916,11.95c4.988,0,11.521-2.578,11.521-12.294c0-6.621-4.042-12.296-11.864-12.296H334.477L334.477,46.424
		z"/>
	<path fill="#2B3990" d="M171.303,86.225c0.669-0.561,1.448-0.894,2.557-0.894c1.893,0.112,3.002,0.894,3.228,2.449
		c0.779-0.335,1.778-0.556,2.892-0.669c-0.668-2.003-2.558-3.111-5.673-3.446c-1.777,0-3.002,0.223-4.223,1.11
		c-0.894,0.556-1.449,1.337-1.892,2.226c-0.894,2.112-0.669,3.895,0.443,5.34c1.113,1.556,3.005,2.224,5.672,2.224
		c2.892,0,4.898-1.109,6.007-3.226c-0.777-0.221-1.67-0.556-2.67-0.891c-0.665,1.558-1.889,2.448-3.449,2.561
		c-1.222,0-2.111-0.337-2.891-1.113c-0.888-1.004-1.221-2.229-1-3.674C170.413,87.446,170.746,86.781,171.303,86.225z"/>
	<path fill="#2B3990" d="M199.89,87.446c1.002-0.112,2-0.219,2.782-0.219c0-1.561-0.67-2.78-2.117-3.226
		c-2.225-0.897-4.561-0.557-6.894,1.001v-1.558c-1.114,0.221-2.003,0.221-2.782,0.445c0.444,3.893,0.555,7.451,0.555,10.788
		c0.891-0.112,1.67-0.332,2.228-0.444v-7.121c1.89-1.446,3.446-2.11,4.783-1.667C199.333,85.665,199.89,86.335,199.89,87.446z"/>
	<path fill="#2B3990" d="M215.463,84.776c-1,0.668-1.666,1.449-2.001,2.336c-0.892,2.002-0.779,3.784,0.445,5.229
		c1.333,1.668,3.224,2.335,5.783,2.115c2.778-0.225,5.004-1.336,6.563-3.338c-0.781-0.335-1.56-0.556-2.559-0.891
		c-1.112,1.668-2.56,2.561-4.229,2.561c-1.222,0.108-2.336-0.339-3.007-1.005c-0.552-0.667-0.997-1.335-1.107-2.004
		c3.336-0.331,6.672-0.445,10.12-0.331c0.111-1.668-0.221-3.115-1.334-4.119c-1-0.887-2.562-1.443-4.336-1.443
		C218.133,83.774,216.688,84.112,215.463,84.776z M219.134,85.332c2.339,0,3.451,1.004,3.56,2.56l-7.23,0.223
		c0.112-0.668,0.554-1.333,1.11-1.778C217.242,85.665,218.133,85.332,219.134,85.332z"/>
	<path fill="#2B3990" d="M239.713,87.558c0.221-1.56,1.112-2.335,2.893-2.335c2.449,0.108,3.777,1.112,4.115,3.224
		c-1.11-0.445-2.558-0.664-4.228-0.554c-1.447,0-2.668,0.335-3.673,0.777c-1.554,0.784-2.112,1.67-2.112,3.005
		c0.221,1.115,0.777,1.891,1.891,2.559c1.114,0.669,2.56,1.002,4.448,0.892c1.335-0.223,2.449-0.447,3.339-0.892v0.669
		c0.893-0.112,1.67-0.225,2.448-0.225l-0.221-6.892c-0.223-3.229-2.336-4.675-6.339-4.338c-3.115,0.221-4.897,1.556-5.342,3.891
		C238.043,87.446,238.935,87.446,239.713,87.558z M244.717,89.671c1.114,0.338,1.779,0.557,1.892,1.112
		c0.114,0.556-0.225,1.227-0.998,1.666c-0.67,0.56-1.447,0.779-2.563,0.894c-2.224,0.221-3.448-0.334-3.667-1.447
		c-0.11-1.112,0.89-1.889,2.78-2.225C242.939,89.559,243.827,89.559,244.717,89.671z"/>
	<path fill="#2B3990" d="M260.848,83.888l-1.445,0.224c0.108,0.664,0,1.22-0.112,1.663l1.333-0.11l-0.219,4.563
		c-0.114,1.111,0.219,2.113,0.775,2.893c0.56,0.776,1.337,1.222,2.226,1.444c3.339,0.669,4.896-0.556,4.785-3.673
		c-0.893,0-1.776,0-2.559-0.217c0.112,1.666-0.336,2.334-1.223,2.334c-1.114-0.112-1.778-1.003-1.778-2.334
		c0-1.229,0.219-3.005,0.445-5.119l3.668-0.112c0-0.67,0.225-1.332,0.225-2.003l-3.674,0.333l0.447-4.336
		c-1.113,0.221-2.003,0.333-2.893,0.333C260.958,80.771,260.958,82.218,260.848,83.888z"/>
	<path fill="#2B3990" d="M281.982,83.888c-1.112,0-2.002,0.112-2.782,0.224c0.223,3.779,0.223,7.228,0,10.453
		c1.004-0.333,1.67-0.443,2.34-0.443C281.54,91.339,281.761,88.001,281.982,83.888z"/>
	<path fill="#2B3990" d="M299.336,83.666c-1.893,0.108-3.452,0.779-4.785,1.999c-1.447,1.337-1.893,3.005-1.447,5.011
		c0.669,2.558,2.895,3.781,6.897,3.669c1.776,0,3.448-0.443,4.783-1.444c1.447-1.114,2.113-2.672,2.226-4.453
		c0-1.666-0.56-2.782-1.891-3.671C303.67,83.888,301.782,83.553,299.336,83.666z M299.779,85.332c1.449,0,2.45,0.225,3.338,0.896
		c0.891,0.556,1.445,1.556,1.333,2.778c-0.221,2.444-1.776,3.783-4.448,3.892c-1.002,0-1.892-0.335-2.668-0.666
		c-0.894-0.558-1.449-1.337-1.668-2.114c-0.225-1.336,0-2.45,0.776-3.336C297.333,85.778,298.444,85.332,299.779,85.332z"/>
	<path fill="#2B3990" d="M329.591,88.001c-0.224-2.227-0.89-3.669-2.558-4.228c-1.893-0.67-4.228-0.219-6.675,1.227v-1.668
		c-0.895,0.221-1.776,0.335-2.669,0.335c0.443,3.891,0.556,7.563,0.112,10.898c0.889,0,1.776-0.22,2.891-0.22
		c0-0.889,0-3.448-0.334-7.455c0.779-0.443,1.667-0.891,2.562-1.225c0.998-0.329,1.89-0.441,2.445-0.329
		c1.112,0.224,1.668,1.337,1.668,3.333c0,1.339-0.333,3.117-0.892,5.563c1,0,2.002,0.112,2.78,0.332
		C329.368,91.339,329.591,89.114,329.591,88.001z"/>
	<path fill="#2B3990" d="M342.942,87.112c0-0.439,0.219-0.776,0.776-1.224c0.557-0.329,1.112-0.553,1.892-0.665
		c1.999-0.221,3.446,0.221,3.892,1.56c1.112-0.337,2.113-0.447,3.113-0.447c-0.221-0.892-1.112-1.56-2.224-2.115
		c-1.335-0.553-3.001-0.777-5.117-0.553c-1.891,0.221-3.45,0.777-4.226,1.664c-0.668,0.781-0.891,1.558-0.556,2.56
		c0.443,0.892,1,1.556,2.005,1.891c1.108,0.444,2.558,0.444,4.338,0c2.997-0.668,4.446-0.221,4.446,1.004
		c-0.11,1.447-1.221,2.225-3.334,2.337c-2.227,0.219-3.783-0.559-4.452-2.006c-0.997,0.221-2.001,0.667-2.78,0.892
		c0.335,1.221,1.337,2.003,3.005,2.446c1.337,0.444,2.778,0.444,4.562,0.222c3.56-0.444,5.45-1.666,5.559-4.001
		c0.225-1.229-0.331-2.12-1.445-2.562c-1.002-0.556-2.56-0.556-4.446,0C344.608,89.005,342.942,88.559,342.942,87.112z"/>
	
		<linearGradient id="SVGID_2_" gradientUnits="userSpaceOnUse" x1="-353.582" y1="689.1499" x2="-353.582" y2="744.0015" gradientTransform="matrix(1 0 0 1 388 -667)">
		<stop  offset="0" style="stop-color:#27AAE1"/>
		<stop  offset="1" style="stop-color:#1C75BC"/>
	</linearGradient>
	<path fill="url(#SVGID_2_)" d="M49.892,70.638l9.974,2.322l-14.1,4.041c-6.189-14.271-9.801-16.595-9.801-16.595
		c-2.32-1.372-5.758-1.372-7.565-1.288c-0.946,0.946-1.808,1.806-2.493,2.494l-0.343,7.997l8.425,4.469H11.205l8.254-4.469
		L18.34,27.569l-9.37-3.956l18.228-1.462L25.994,58.52l12.379-12.898l14.702-1.03c-8.425,3.181-10.49,3.869-10.49,3.869
		c-1.977,0.775-4.64,2.236-6.533,3.694c-0.688,0.515-2.409,2.066-4.385,3.871c2.061,0.084,7.22,0.256,9.455,1.804
		C41.123,57.829,44.648,60.321,49.892,70.638z"/>
	
		<linearGradient id="SVGID_3_" gradientUnits="userSpaceOnUse" x1="-312.9175" y1="705.4526" x2="-312.9175" y2="743.2798" gradientTransform="matrix(1 0 0 1 388 -667)">
		<stop  offset="0" style="stop-color:#27AAE1"/>
		<stop  offset="1" style="stop-color:#1C75BC"/>
	</linearGradient>
	<path fill="url(#SVGID_3_)" d="M63.561,45.417c0.947,0.944,0.947,2.923,0.947,2.923c0,1.978-2.321,4.126-4.9,4.126
		c-2.751,0-3.954-1.977-4.042-3.868c0-1.977,6.62-10.144,19.518-10.144c9.542,0,14.101,9.54,13.669,15.474c0,0,0,3.523-1.118,15.563
		l8.341,4.124L79.469,76.28l0.599-3.695c-6.362,1.545-11.433,1.545-11.433,1.637c-1.977,0-14.359-0.435-14.446-7.739
		c0-7.397,7.223-11.608,16.423-11.092c0,0,9.456,0,10.146,0.602c1.977-14.96-7.31-14.96-7.31-14.96s-8.338,0-9.887,4.471v-0.084
		h-0.001V45.417z M80.499,65.016c0-1.29,0-0.858,0-4.125c0-3.179-5.244-3.871-8.166-3.871c-2.923,0-9.459,0.862-9.459,7.567
		c0,4.989,5.072,6.793,8.171,6.793C80.931,71.376,80.499,66.306,80.499,65.016z"/>
	
		<linearGradient id="SVGID_4_" gradientUnits="userSpaceOnUse" x1="-278.397" y1="707.9526" x2="-278.397" y2="758.937" gradientTransform="matrix(1 0 0 1 388 -667)">
		<stop  offset="0" style="stop-color:#27AAE1"/>
		<stop  offset="1" style="stop-color:#1C75BC"/>
	</linearGradient>
	<path fill="url(#SVGID_4_)" d="M134.235,58.492c0,10.92-8.857,16.163-18.313,16.163c-4.212,0-7.223-1.03-9.287-2.236l0.172,13.242
		l12.039,5.158l-29.232,1.118l10.75-6.276L98.47,48.172l-13.5-4.813l21.494-2.407l0.087,5.76c1.977-1.03,5.846-2.581,11.348-2.581
		C126.412,44.134,134.235,49.208,134.235,58.492z M106.635,64.252c0,4.387,3.442,7.479,9.287,7.479
		c6.274,0,10.314-4.986,10.314-12.982c0-7.909-5.846-11.691-10.229-11.691c-3.526,0-9.545,3.609-9.456,10.403L106.635,64.252z"/>
	
		<linearGradient id="SVGID_5_" gradientUnits="userSpaceOnUse" x1="-239.4253" y1="707.9526" x2="-239.4253" y2="758.937" gradientTransform="matrix(1 0 0 1 388 -667)">
		<stop  offset="0" style="stop-color:#27AAE1"/>
		<stop  offset="1" style="stop-color:#1C75BC"/>
	</linearGradient>
	<path fill="url(#SVGID_5_)" d="M173.206,58.492c0,10.92-8.856,16.163-18.313,16.163c-4.212,0-7.223-1.03-9.284-2.236l0.172,13.242
		l12.036,5.158l-29.232,1.118l10.748-6.276l-1.891-37.488l-13.497-4.813l21.493-2.407l0.086,5.76
		c1.976-1.03,5.845-2.581,11.348-2.581C165.382,44.134,173.206,49.208,173.206,58.492z M145.608,64.252
		c0,4.387,3.439,7.479,9.284,7.479c6.276,0,10.318-4.986,10.318-12.982c0-7.909-5.846-11.691-10.233-11.691
		c-3.521,0-9.541,3.609-9.455,10.403L145.608,64.252z"/>
	
		<linearGradient id="SVGID_6_" gradientUnits="userSpaceOnUse" x1="-192.2959" y1="705.4526" x2="-192.2959" y2="743.2798" gradientTransform="matrix(1 0 0 1 388 -667)">
		<stop  offset="0" style="stop-color:#27AAE1"/>
		<stop  offset="1" style="stop-color:#1C75BC"/>
	</linearGradient>
	<path fill="url(#SVGID_6_)" d="M184.183,45.417c0.948,0.944,0.948,2.923,0.948,2.923c0,1.978-2.322,4.126-4.902,4.126
		c-2.753,0-3.954-1.977-4.042-3.868c0-1.977,6.622-10.144,19.519-10.144c9.543,0,14.1,9.54,13.672,15.474c0,0,0,3.523-1.12,15.563
		l8.339,4.124L200.09,76.28l0.602-3.695c-6.363,1.545-11.434,1.545-11.434,1.637c-1.977,0-14.36-0.435-14.446-7.739
		c0-7.397,7.223-11.608,16.426-11.092c0,0,9.454,0,10.145,0.602c1.978-14.96-7.308-14.96-7.308-14.96s-8.34,0-9.89,4.471v-0.084
		h-0.002V45.417z M201.124,65.016c0-1.29,0-0.858,0-4.125c0-3.179-5.246-3.871-8.171-3.871c-2.923,0-9.457,0.862-9.457,7.567
		c0,4.989,5.074,6.793,8.171,6.793C201.552,71.376,201.124,66.306,201.124,65.016z"/>
	
		<linearGradient id="SVGID_7_" gradientUnits="userSpaceOnUse" x1="-125.8047" y1="710.3198" x2="-125.8047" y2="741.9575" gradientTransform="matrix(1 0 0 1 388 -667)">
		<stop  offset="0" style="stop-color:#27AAE1"/>
		<stop  offset="1" style="stop-color:#1C75BC"/>
	</linearGradient>
	<path fill="url(#SVGID_7_)" d="M267.525,43.323l-1.372,26.563l7.391,5.071L252.05,74.53l8.081-4.987l-1.114-22.354l-8.169-3.869
		h16.677V43.323L267.525,43.323z"/>
	
		<linearGradient id="SVGID_8_" gradientUnits="userSpaceOnUse" x1="-92.6416" y1="710.3589" x2="-92.6416" y2="742.7749" gradientTransform="matrix(1 0 0 1 388 -667)">
		<stop  offset="0" style="stop-color:#27AAE1"/>
		<stop  offset="1" style="stop-color:#1C75BC"/>
	</linearGradient>
	<path fill="url(#SVGID_8_)" d="M296.563,75.168l7.567-4.639c4.643-23.991-6.105-23.991-6.105-23.991
		c-4.559,0-7.739,2.324-9.543,4.213c-0.603,5.246-1.292,12.209-1.376,14.275c0,0-0.172,3.522,0.428,5.159l7.999,3.952l-24.848,0.345
		c4.213-2.236,5.933-2.923,5.933-2.923c0.086,0,1.805-0.688,3.953-1.977l-0.258-19.861l-10.059-5.33l18.917-0.345
		c-0.088,0.776-0.176,1.977-0.176,1.977c1.893-1.03,5.763-2.665,10.232-2.665c8.597,0,11.691,5.931,12.55,11.606
		c-0.084,0,1.034,7.051,0.432,16.163l8.254,4.646L296.563,75.168z"/>
	
		<linearGradient id="SVGID_9_" gradientUnits="userSpaceOnUse" x1="-53.0049" y1="709.3813" x2="-53.0049" y2="742.3989" gradientTransform="matrix(1 0 0 1 388 -667)">
		<stop  offset="0" style="stop-color:#27AAE1"/>
		<stop  offset="1" style="stop-color:#1C75BC"/>
	</linearGradient>
	<path fill="url(#SVGID_9_)" d="M315.993,58.976c0-6.017,6.364-16.594,22.354-16.594c7.567,0,15.736,4.816,15.736,14.102
		c0,10.06-6.279,18.915-21.838,18.915c-10.489,0-16.336-8.253-16.336-16.423H315.993L315.993,58.976z M334.477,46.424
		c-4.811,0-10.487,3.782-10.487,12.64c0,8.338,5.072,11.95,10.916,11.95c4.988,0,11.521-2.578,11.521-12.294
		c0-6.621-4.042-12.296-11.864-12.296H334.477L334.477,46.424z"/>
	
		<linearGradient id="SVGID_10_" gradientUnits="userSpaceOnUse" x1="-155.5186" y1="706.5894" x2="-155.5186" y2="743.2144" gradientTransform="matrix(1 0 0 1 388 -667)">
		<stop  offset="0" style="stop-color:#27AAE1"/>
		<stop  offset="1" style="stop-color:#1C75BC"/>
	</linearGradient>
	<path fill="url(#SVGID_10_)" d="M248.729,60.48c-6.36-18.054-14.186-18.054-14.186-18.054c-8.166,0-12.122,7.823-12.122,15.645
		c0,7.912,2.75,15.907,11.176,15.907c0,0,8.425,0,11.348-7.308l4.646,1.635c-2.32,7.909-15.562,7.909-15.562,7.909
		c-9.544,0-20.117-5.501-20.117-18.142c-0.088-12.722,13.584-17.969,18.999-17.969c0,0,5.419,0,12.384,3.957l5.759-4.472
		L248.729,60.48z"/>
	<polyline opacity="0.55" fill="#FFFFFF" enable-background="new    " points="8.813,23.45 10.534,23.335 27.176,21.959 
		26.68,24.047 17.625,25.144 21.109,27.63 22.101,68.92 14.438,74.328 11.337,74.209 19.606,69.387 18.114,27.698 	"/>
	<polygon opacity="0.55" fill="#FFFFFF" enable-background="new    " points="26.153,58.249 38.325,45.384 53.257,44.466 
		38.901,46.537 	"/>
	<path opacity="0.55" fill="#FFFFFF" enable-background="new    " d="M31.912,55.996c0,0,7.24,0.1,9.358,1.921
		c0,0,4.577,4.14,8.616,12.709l10.048,2.214l-10.685-1.23C49.249,71.607,44.667,57.03,31.912,55.996z"/>
	<path opacity="0.55" fill="#FFFFFF" enable-background="new    " d="M59.371,52.457c0,0-4.642,0.101-3.531-5.043
		c0,0,4.54-8.273,17.655-8.981c0,0,7.771-0.707,11.604,4.845l21.388-2.42v2.521l-16.444,0.403l10.593,3.935l2.017,37.228
		L91.86,92.006l-2.221,0.1l2.926-2.016l7.667-4.441l-1.816-37.43l-12.61-4.44l-1.514-0.403c0,0-6.256-6.555-15.54-3.226
		C59.47,43.478,55.537,47.715,59.371,52.457z"/>
	<path opacity="0.55" fill="#FFFFFF" enable-background="new    " d="M80.761,55.885c0,0-11.1-1.21-15.138-0.303
		c0,0-10.593,1.108-11.197,9.688c0,0-2.32,5.952,7.87,8.274c0,0-9.888-7.365-1.412-14.933
		C60.884,58.612,65.827,56.089,80.761,55.885z"/>
	<path opacity="0.55" fill="#FFFFFF" enable-background="new    " d="M80.038,72.779l-0.502,3.532l3.832-0.636
		C83.367,75.675,80.175,76.287,80.038,72.779z"/>
	<path opacity="0.55" fill="#FFFFFF" enable-background="new    " d="M206.15,43.782l-1.515-0.404c0,0-6.253-6.558-15.536-3.229
		c-9.282,3.329-13.218,7.567-9.383,12.308c0,0-4.642,0.101-3.531-5.043c0,0,4.537-8.274,17.654-8.979c0,0,7.767-0.707,11.604,4.841"
		/>
	<path opacity="0.55" fill="#FFFFFF" enable-background="new    " d="M210.269,43.782"/>
	<path opacity="0.55" fill="#FFFFFF" enable-background="new    " d="M201.165,56.061c0,0-11.097-1.21-15.136-0.303
		c0,0-10.595,1.11-11.199,9.686c0,0-2.321,5.954,7.869,8.274c0,0-9.888-7.365-1.414-14.933
		C181.287,58.786,186.235,56.263,201.165,56.061z"/>
	<path opacity="0.55" fill="#FFFFFF" enable-background="new    " d="M200.634,72.835l-0.503,3.532l4.081-0.713
		C204.211,75.659,202.248,75.89,200.634,72.835z"/>
	<path opacity="0.55" fill="#FFFFFF" enable-background="new    " d="M120.713,48.219c0,0,5.954,3.835,5.448,10.996
		c0,0-1.311,9.28-5.044,11.098C121.117,70.313,139.175,58.814,120.713,48.219z"/>
	<polyline opacity="0.55" fill="#FFFFFF" enable-background="new    " points="124.039,43.275 145.431,40.856 145.431,43.377 
		128.983,43.782 139.579,47.715 141.597,84.943 130.799,92.004 128.58,92.106 131.506,90.09 139.175,85.649 137.359,48.219 
		124.746,43.782 123.233,43.377 	"/>
	<path opacity="0.55" fill="#FFFFFF" enable-background="new    " d="M159.655,48.219c0,0,5.952,3.835,5.448,10.996
		c0,0-1.311,9.28-5.045,11.098C160.06,70.313,178.12,58.814,159.655,48.219z"/>
	<path opacity="0.55" fill="#FFFFFF" enable-background="new    " d="M250.93,39.623l-5.511,4.341c0,0-10.438-7.39-20.408-1.761
		c0,0-12.315,4.339-11.026,17.244c0,0-0.352,11.609,12.785,15.833c0,0-20.526-12.666-4.809-29.558c0,0,12.08-9.148,23.46,0
		l5.395-3.986L250.93,39.623z"/>
	<path opacity="0.55" fill="#FFFFFF" enable-background="new    " d="M249.758,68.359l-4.689-1.76c0,0-3.638,7.038-10.558,7.156
		c0,0,9.734-0.821,11.026-6.217l3.986,1.523L249.758,68.359z"/>
	<polygon opacity="0.55" fill="#FFFFFF" enable-background="new    " points="251.166,43.494 259.027,47.364 260.082,69.417 
		252.222,74.107 252.222,74.692 261.605,70.356 261.135,46.542 256.678,44.315 267.353,44.785 267.705,43.027 251.871,43.377 	"/>
	<polygon opacity="0.55" fill="#FFFFFF" enable-background="new    " points="289.257,43.863 270.292,44.372 280.492,49.711 
		280.608,69.651 272.164,73.52 273.218,74.34 282.133,70.002 281.781,48.657 275.094,45.253 289.173,44.879 	"/>
	<path opacity="0.55" fill="#FFFFFF" enable-background="new    " d="M296.541,75.189l7.534-4.741c0,0,5.08-20.487-5.59-23.874
		c0,0,12.446-1.018,7.197,23.618l-6.858,4.994h-2.283V75.189L296.541,75.189z"/>
	<path opacity="0.55" fill="#FFFFFF" enable-background="new    " d="M289.345,45.813c0,0,8.974-4.743,16.001-1.102
		c0,0,4.064,2.118,5.08,5.421C310.426,50.13,303.229,41.239,289.345,45.813z"/>
	<path opacity="0.55" fill="#FFFFFF" enable-background="new    " d="M332.61,42.968c0,0-11.829,1.236-15.646,11.458
		c0,0-5.789,14.167,10.966,20.575c0,0,9.483,1.232,14.783-1.232c0,0-17.494,3.327-23.283-7.515
		C319.429,66.253,311.666,53.195,332.61,42.968z"/>
	<path opacity="0.55" fill="#FFFFFF" enable-background="new    " d="M341.729,48.637c0,0,5.052,3.819,4.682,10.719
		c0,0,0.196,5.826-5.09,10.162C341.319,69.518,356.511,60.464,341.729,48.637z"/>
	<path opacity="0.55" fill="#FFFFFF" enable-background="new    " d="M257.688,6.537c0,0-6.492,1.926-8.74,6.094
		c0,0-5.689,6.814-1.041,16.273c0,0,3.528,8.178,14.027,8.5C261.936,37.403,239.328,25.858,257.688,6.537z"/>
	<ellipse fill="#96BEE5" stroke="#2B3990" stroke-width="1.3961" cx="261.732" cy="28.787" rx="8.569" ry="3.594"/>
	<circle fill="#2B3990" cx="253.165" cy="23.059" r="2.351"/>
	<circle fill="#2B3990" cx="270.579" cy="23.059" r="2.349"/>
	<polygon fill="#0059A3" stroke="#2B3990" stroke-width="1.3961" stroke-linecap="round" stroke-linejoin="round" points="
		246.742,13.396 242.874,18.65 251.719,15.883 255.853,19.239 259.458,16.159 263.329,19.202 266.094,15.054 271.622,19.202 
		272.729,15.883 280.993,18.851 276.458,13.12 	"/>
	<polygon opacity="0.55" fill="#FFFFFF" enable-background="new    " points="244.939,17.438 247.106,13.831 249.031,13.91 	"/>
	<polygon opacity="0.55" fill="#FFFFFF" enable-background="new    " points="252.237,15.353 255.922,18.48 256.646,17.76 
		252.958,14.711 	"/>
	<polygon opacity="0.55" fill="#FFFFFF" enable-background="new    " points="260.01,15.834 263.377,18.4 261.212,14.954 	"/>
	<polygon opacity="0.55" fill="#FFFFFF" enable-background="new    " points="266.745,14.392 271.233,17.918 271.556,16.958 	"/>
	<polygon opacity="0.55" fill="#FFFFFF" enable-background="new    " points="272.998,15.112 279.172,17.517 274.522,14.392 	"/>
	<circle opacity="0.55" fill="#FFFFFF" enable-background="new    " cx="253.079" cy="23.01" r="1.402"/>
	<circle opacity="0.55" fill="#FFFFFF" enable-background="new    " cx="270.473" cy="23.009" r="1.405"/>
	<circle opacity="0.71" fill="#2B3990" enable-background="new    " cx="253.118" cy="22.969" r="1.042"/>
	<circle opacity="0.71" fill="#2B3990" enable-background="new    " cx="270.515" cy="22.969" r="1.042"/>
	<circle fill="#FFFFFF" cx="253.199" cy="22.249" r="0.841"/>
	<path fill="#FFFFFF" d="M270.354,21.406c0.466,0,0.842,0.378,0.842,0.842c0,0.466-0.376,0.844-0.842,0.844
		c-0.468,0-0.846-0.378-0.846-0.844C269.508,21.783,269.886,21.406,270.354,21.406z"/>
	<path opacity="0.78" fill="#FFFFFF" enable-background="new    " d="M260.311,25.939c0,0-6.599,0.622-6.443,3.117
		c0,0,0.677,2.651,8.831,2.702C262.699,31.758,250.229,29.995,260.311,25.939z"/>
</g>
</svg>
